  0
SECTION
  2
BLOCKS
  0
ENDSEC
  0
SECTION
  2
ENTITIES
  0
LINE
  8
0
 10
126.147
 20
0.0279541
 11
126.643
 21
0.0776062
  0
LINE
  8
0
 10
126.643
 20
0.0776062
 11
127.136
 21
0.151917
  0
LINE
  8
0
 10
127.136
 20
0.151917
 11
127.625
 21
0.250717
  0
LINE
  8
0
 10
127.625
 20
0.250717
 11
128.108
 21
0.373749
  0
LINE
  8
0
 10
128.108
 20
0.373749
 11
128.585
 21
0.520721
  0
LINE
  8
0
 10
128.585
 20
0.520721
 11
129.053
 21
0.691254
  0
LINE
  8
0
 10
129.053
 20
0.691254
 11
129.513
 21
0.884933
  0
LINE
  8
0
 10
129.513
 20
0.884933
 11
129.962
 21
1.10127
  0
LINE
  8
0
 10
129.962
 20
1.10127
 11
130.4
 21
1.33974
  0
LINE
  8
0
 10
130.4
 20
1.33974
 11
130.825
 21
1.59973
  0
LINE
  8
0
 10
130.825
 20
1.59973
 11
131.237
 21
1.88062
  0
LINE
  8
0
 10
131.237
 20
1.88062
 11
131.635
 21
2.18167
  0
LINE
  8
0
 10
131.635
 20
2.18167
 11
132.017
 21
2.50218
  0
LINE
  8
0
 10
132.017
 20
2.50218
 11
132.382
 21
2.84132
  0
LINE
  8
0
 10
132.382
 20
2.84132
 11
132.731
 21
3.19826
  0
LINE
  8
0
 10
132.731
 20
3.19826
 11
133.06
 21
3.57211
  0
LINE
  8
0
 10
133.06
 20
3.57211
 11
133.371
 21
3.96194
  0
LINE
  8
0
 10
133.371
 20
3.96194
 11
133.662
 21
4.36679
  0
LINE
  8
0
 10
133.662
 20
4.36679
 11
133.933
 21
4.78564
  0
LINE
  8
0
 10
133.933
 20
4.78564
 11
134.182
 21
5.21745
  0
LINE
  8
0
 10
134.182
 20
5.21745
 11
134.41
 21
5.66115
  0
LINE
  8
0
 10
134.41
 20
5.66115
 11
134.615
 21
6.11565
  0
LINE
  8
0
 10
134.615
 20
6.11565
 11
134.797
 21
6.57979
  0
LINE
  8
0
 10
134.797
 20
6.57979
 11
134.956
 21
7.05244
  0
LINE
  8
0
 10
134.956
 20
7.05244
 11
135.091
 21
7.53242
  0
LINE
  8
0
 10
135.091
 20
7.53242
 11
135.202
 21
8.01852
  0
LINE
  8
0
 10
135.202
 20
8.01852
 11
135.288
 21
8.50957
  0
LINE
  8
0
 10
135.288
 20
8.50957
 11
135.35
 21
9.00432
  0
LINE
  8
0
 10
135.35
 20
9.00432
 11
135.388
 21
9.50154
  0
LINE
  8
0
 10
135.388
 20
9.50154
 11
135.4
 21
10
  0
LINE
  8
0
 10
135.4
 20
10
 11
135.4
 21
117.2
  0
LINE
  8
0
 10
135.4
 20
117.2
 11
135.388
 21
117.698
  0
LINE
  8
0
 10
135.388
 20
117.698
 11
135.35
 21
118.196
  0
LINE
  8
0
 10
135.35
 20
118.196
 11
135.288
 21
118.69
  0
LINE
  8
0
 10
135.288
 20
118.69
 11
135.202
 21
119.181
  0
LINE
  8
0
 10
135.202
 20
119.181
 11
135.091
 21
119.668
  0
LINE
  8
0
 10
135.091
 20
119.668
 11
134.956
 21
120.148
  0
LINE
  8
0
 10
134.956
 20
120.148
 11
134.797
 21
120.62
  0
LINE
  8
0
 10
134.797
 20
120.62
 11
134.615
 21
121.084
  0
LINE
  8
0
 10
134.615
 20
121.084
 11
134.41
 21
121.539
  0
LINE
  8
0
 10
134.41
 20
121.539
 11
134.182
 21
121.983
  0
LINE
  8
0
 10
134.182
 20
121.983
 11
133.933
 21
122.414
  0
LINE
  8
0
 10
133.933
 20
122.414
 11
133.662
 21
122.833
  0
LINE
  8
0
 10
133.662
 20
122.833
 11
133.371
 21
123.238
  0
LINE
  8
0
 10
133.371
 20
123.238
 11
133.06
 21
123.628
  0
LINE
  8
0
 10
133.06
 20
123.628
 11
132.731
 21
124.002
  0
LINE
  8
0
 10
132.731
 20
124.002
 11
132.382
 21
124.359
  0
LINE
  8
0
 10
132.382
 20
124.359
 11
132.017
 21
124.698
  0
LINE
  8
0
 10
132.017
 20
124.698
 11
131.635
 21
125.018
  0
LINE
  8
0
 10
131.635
 20
125.018
 11
131.237
 21
125.319
  0
LINE
  8
0
 10
131.237
 20
125.319
 11
130.825
 21
125.6
  0
LINE
  8
0
 10
130.825
 20
125.6
 11
130.4
 21
125.86
  0
LINE
  8
0
 10
130.4
 20
125.86
 11
129.962
 21
126.099
  0
LINE
  8
0
 10
129.962
 20
126.099
 11
129.513
 21
126.315
  0
LINE
  8
0
 10
129.513
 20
126.315
 11
129.053
 21
126.509
  0
LINE
  8
0
 10
129.053
 20
126.509
 11
128.585
 21
126.679
  0
LINE
  8
0
 10
128.585
 20
126.679
 11
128.108
 21
126.826
  0
LINE
  8
0
 10
128.108
 20
126.826
 11
127.625
 21
126.949
  0
LINE
  8
0
 10
127.625
 20
126.949
 11
127.136
 21
127.048
  0
LINE
  8
0
 10
127.136
 20
127.048
 11
126.643
 21
127.122
  0
LINE
  8
0
 10
126.643
 20
127.122
 11
126.147
 21
127.172
  0
LINE
  8
0
 10
126.147
 20
127.172
 11
125.649
 21
127.197
  0
LINE
  8
0
 10
125.649
 20
127.197
 11
9.75069
 21
127.197
  0
LINE
  8
0
 10
9.75069
 20
127.197
 11
9.25269
 21
127.172
  0
LINE
  8
0
 10
9.25269
 20
127.172
 11
8.75656
 21
127.122
  0
LINE
  8
0
 10
8.75656
 20
127.122
 11
8.2635
 21
127.048
  0
LINE
  8
0
 10
8.2635
 20
127.048
 11
7.77478
 21
126.949
  0
LINE
  8
0
 10
7.77478
 20
126.949
 11
7.29158
 21
126.826
  0
LINE
  8
0
 10
7.29158
 20
126.826
 11
6.81512
 21
126.679
  0
LINE
  8
0
 10
6.81512
 20
126.679
 11
6.34659
 21
126.509
  0
LINE
  8
0
 10
6.34659
 20
126.509
 11
5.88712
 21
126.315
  0
LINE
  8
0
 10
5.88712
 20
126.315
 11
5.43788
 21
126.099
  0
LINE
  8
0
 10
5.43788
 20
126.099
 11
5
 21
125.86
  0
LINE
  8
0
 10
5
 20
125.86
 11
4.57452
 21
125.6
  0
LINE
  8
0
 10
4.57452
 20
125.6
 11
4.16255
 21
125.319
  0
LINE
  8
0
 10
4.16255
 20
125.319
 11
3.76509
 21
125.018
  0
LINE
  8
0
 10
3.76509
 20
125.018
 11
3.38313
 21
124.698
  0
LINE
  8
0
 10
3.38313
 20
124.698
 11
3.01762
 21
124.359
  0
LINE
  8
0
 10
3.01762
 20
124.359
 11
2.66948
 21
124.002
  0
LINE
  8
0
 10
2.66948
 20
124.002
 11
2.33955
 21
123.628
  0
LINE
  8
0
 10
2.33955
 20
123.628
 11
2.02867
 21
123.238
  0
LINE
  8
0
 10
2.02867
 20
123.238
 11
1.73761
 21
122.833
  0
LINE
  8
0
 10
1.73761
 20
122.833
 11
1.46709
 21
122.414
  0
LINE
  8
0
 10
1.46709
 20
122.414
 11
1.21777
 21
121.983
  0
LINE
  8
0
 10
1.21777
 20
121.983
 11
0.990311
 21
121.539
  0
LINE
  8
0
 10
0.990311
 20
121.539
 11
0.785233
 21
121.084
  0
LINE
  8
0
 10
0.785233
 20
121.084
 11
0.603073
 21
120.62
  0
LINE
  8
0
 10
0.603073
 20
120.62
 11
0.44426
 21
120.148
  0
LINE
  8
0
 10
0.44426
 20
120.148
 11
0.309219
 21
119.668
  0
LINE
  8
0
 10
0.309219
 20
119.668
 11
0.198273
 21
119.181
  0
LINE
  8
0
 10
0.198273
 20
119.181
 11
0.111679
 21
118.69
  0
LINE
  8
0
 10
0.111679
 20
118.69
 11
0.0496826
 21
118.196
  0
LINE
  8
0
 10
0.0496826
 20
118.196
 11
0.0124207
 21
117.698
  0
LINE
  8
0
 10
0.0124207
 20
117.698
 11
0
 21
117.2
  0
LINE
  8
0
 10
0
 20
117.2
 11
0
 21
64
  0
LINE
  8
0
 10
0
 20
64
 11
0.0124207
 21
63.5015
  0
LINE
  8
0
 10
0.0124207
 20
63.5015
 11
0.0496826
 21
63.0043
  0
LINE
  8
0
 10
0.0496826
 20
63.0043
 11
0.111679
 21
62.5096
  0
LINE
  8
0
 10
0.111679
 20
62.5096
 11
0.198273
 21
62.0185
  0
LINE
  8
0
 10
0.198273
 20
62.0185
 11
0.309219
 21
61.5324
  0
LINE
  8
0
 10
0.309219
 20
61.5324
 11
0.44426
 21
61.0524
  0
LINE
  8
0
 10
0.44426
 20
61.0524
 11
0.603073
 21
60.5798
  0
LINE
  8
0
 10
0.603073
 20
60.5798
 11
0.785233
 21
60.1156
  0
LINE
  8
0
 10
0.785233
 20
60.1156
 11
0.990311
 21
59.6612
  0
LINE
  8
0
 10
0.990311
 20
59.6612
 11
1.21777
 21
59.2175
  0
LINE
  8
0
 10
1.21777
 20
59.2175
 11
1.46709
 21
58.7856
  0
LINE
  8
0
 10
1.46709
 20
58.7856
 11
1.73761
 21
58.3668
  0
LINE
  8
0
 10
1.73761
 20
58.3668
 11
2.02867
 21
57.9619
  0
LINE
  8
0
 10
2.02867
 20
57.9619
 11
2.33955
 21
57.5721
  0
LINE
  8
0
 10
2.33955
 20
57.5721
 11
2.66948
 21
57.1983
  0
LINE
  8
0
 10
2.66948
 20
57.1983
 11
3.01762
 21
56.8413
  0
LINE
  8
0
 10
3.01762
 20
56.8413
 11
3.38313
 21
56.5022
  0
LINE
  8
0
 10
3.38313
 20
56.5022
 11
3.76509
 21
56.1817
  0
LINE
  8
0
 10
3.76509
 20
56.1817
 11
4.16255
 21
55.8806
  0
LINE
  8
0
 10
4.16255
 20
55.8806
 11
4.57452
 21
55.5997
  0
LINE
  8
0
 10
4.57452
 20
55.5997
 11
5
 21
55.3397
  0
LINE
  8
0
 10
5
 20
55.3397
 11
5.43788
 21
55.1013
  0
LINE
  8
0
 10
5.43788
 20
55.1013
 11
5.88712
 21
54.8849
  0
LINE
  8
0
 10
5.88712
 20
54.8849
 11
6.34659
 21
54.6913
  0
LINE
  8
0
 10
6.34659
 20
54.6913
 11
6.81512
 21
54.5207
  0
LINE
  8
0
 10
6.81512
 20
54.5207
 11
7.29158
 21
54.3737
  0
LINE
  8
0
 10
7.29158
 20
54.3737
 11
7.77478
 21
54.2507
  0
LINE
  8
0
 10
7.77478
 20
54.2507
 11
8.2635
 21
54.1519
  0
LINE
  8
0
 10
8.2635
 20
54.1519
 11
8.75656
 21
54.0776
  0
LINE
  8
0
 10
8.75656
 20
54.0776
 11
9.25269
 21
54.028
  0
LINE
  8
0
 10
9.25269
 20
54.028
 11
9.75069
 21
54.0031
  0
LINE
  8
0
 10
9.75069
 20
54.0031
 11
70.4
 21
54.0016
  0
LINE
  8
0
 10
70.4
 20
54.0016
 11
70.4
 21
53.9969
  0
LINE
  8
0
 10
70.4
 20
53.9969
 11
70.6493
 21
53.9969
  0
LINE
  8
0
 10
70.6493
 20
53.9969
 11
71.1473
 21
53.972
  0
LINE
  8
0
 10
71.1473
 20
53.972
 11
71.6434
 21
53.9224
  0
LINE
  8
0
 10
71.6434
 20
53.9224
 11
72.1365
 21
53.8481
  0
LINE
  8
0
 10
72.1365
 20
53.8481
 11
72.6252
 21
53.7493
  0
LINE
  8
0
 10
72.6252
 20
53.7493
 11
73.1084
 21
53.6262
  0
LINE
  8
0
 10
73.1084
 20
53.6262
 11
73.5849
 21
53.4793
  0
LINE
  8
0
 10
73.5849
 20
53.4793
 11
74.0534
 21
53.3087
  0
LINE
  8
0
 10
74.0534
 20
53.3087
 11
74.5129
 21
53.1151
  0
LINE
  8
0
 10
74.5129
 20
53.1151
 11
74.9621
 21
52.8987
  0
LINE
  8
0
 10
74.9621
 20
52.8987
 11
75.4
 21
52.6602
  0
LINE
  8
0
 10
75.4
 20
52.6602
 11
75.8255
 21
52.4003
  0
LINE
  8
0
 10
75.8255
 20
52.4003
 11
76.2374
 21
52.1194
  0
LINE
  8
0
 10
76.2374
 20
52.1194
 11
76.6349
 21
51.8183
  0
LINE
  8
0
 10
76.6349
 20
51.8183
 11
77.0169
 21
51.4978
  0
LINE
  8
0
 10
77.0169
 20
51.4978
 11
77.3824
 21
51.1587
  0
LINE
  8
0
 10
77.3824
 20
51.1587
 11
77.7305
 21
50.8017
  0
LINE
  8
0
 10
77.7305
 20
50.8017
 11
78.0604
 21
50.4279
  0
LINE
  8
0
 10
78.0604
 20
50.4279
 11
78.3713
 21
50.038
  0
LINE
  8
0
 10
78.3713
 20
50.038
 11
78.6624
 21
49.6332
  0
LINE
  8
0
 10
78.6624
 20
49.6332
 11
78.9329
 21
49.2143
  0
LINE
  8
0
 10
78.9329
 20
49.2143
 11
79.1822
 21
48.7825
  0
LINE
  8
0
 10
79.1822
 20
48.7825
 11
79.4097
 21
48.3388
  0
LINE
  8
0
 10
79.4097
 20
48.3388
 11
79.6148
 21
47.8843
  0
LINE
  8
0
 10
79.6148
 20
47.8843
 11
79.7969
 21
47.4202
  0
LINE
  8
0
 10
79.7969
 20
47.4202
 11
79.9557
 21
46.9475
  0
LINE
  8
0
 10
79.9557
 20
46.9475
 11
80.0908
 21
46.4676
  0
LINE
  8
0
 10
80.0908
 20
46.4676
 11
80.2017
 21
45.9815
  0
LINE
  8
0
 10
80.2017
 20
45.9815
 11
80.2883
 21
45.4904
  0
LINE
  8
0
 10
80.2883
 20
45.4904
 11
80.3503
 21
44.9957
  0
LINE
  8
0
 10
80.3503
 20
44.9957
 11
80.3876
 21
44.4985
  0
LINE
  8
0
 10
80.3876
 20
44.4985
 11
80.4
 21
44
  0
LINE
  8
0
 10
80.4
 20
44
 11
80.4
 21
10
  0
LINE
  8
0
 10
80.4
 20
10
 11
80.4124
 21
9.50154
  0
LINE
  8
0
 10
80.4124
 20
9.50154
 11
80.4497
 21
9.00432
  0
LINE
  8
0
 10
80.4497
 20
9.00432
 11
80.5117
 21
8.50957
  0
LINE
  8
0
 10
80.5117
 20
8.50957
 11
80.5983
 21
8.01852
  0
LINE
  8
0
 10
80.5983
 20
8.01852
 11
80.7092
 21
7.53242
  0
LINE
  8
0
 10
80.7092
 20
7.53242
 11
80.8443
 21
7.05244
  0
LINE
  8
0
 10
80.8443
 20
7.05244
 11
81.0031
 21
6.57979
  0
LINE
  8
0
 10
81.0031
 20
6.57979
 11
81.1852
 21
6.11565
  0
LINE
  8
0
 10
81.1852
 20
6.11565
 11
81.3903
 21
5.66115
  0
LINE
  8
0
 10
81.3903
 20
5.66115
 11
81.6178
 21
5.21745
  0
LINE
  8
0
 10
81.6178
 20
5.21745
 11
81.8671
 21
4.78564
  0
LINE
  8
0
 10
81.8671
 20
4.78564
 11
82.1376
 21
4.36679
  0
LINE
  8
0
 10
82.1376
 20
4.36679
 11
82.4287
 21
3.96194
  0
LINE
  8
0
 10
82.4287
 20
3.96194
 11
82.7395
 21
3.57211
  0
LINE
  8
0
 10
82.7395
 20
3.57211
 11
83.0695
 21
3.19826
  0
LINE
  8
0
 10
83.0695
 20
3.19826
 11
83.4176
 21
2.84132
  0
LINE
  8
0
 10
83.4176
 20
2.84132
 11
83.7831
 21
2.50218
  0
LINE
  8
0
 10
83.7831
 20
2.50218
 11
84.1651
 21
2.18167
  0
LINE
  8
0
 10
84.1651
 20
2.18167
 11
84.5626
 21
1.88062
  0
LINE
  8
0
 10
84.5626
 20
1.88062
 11
84.9745
 21
1.59973
  0
LINE
  8
0
 10
84.9745
 20
1.59973
 11
85.4
 21
1.33974
  0
LINE
  8
0
 10
85.4
 20
1.33974
 11
85.8379
 21
1.10127
  0
LINE
  8
0
 10
85.8379
 20
1.10127
 11
86.2871
 21
0.884933
  0
LINE
  8
0
 10
86.2871
 20
0.884933
 11
86.7466
 21
0.691254
  0
LINE
  8
0
 10
86.7466
 20
0.691254
 11
87.2151
 21
0.520721
  0
LINE
  8
0
 10
87.2151
 20
0.520721
 11
87.6916
 21
0.373749
  0
LINE
  8
0
 10
87.6916
 20
0.373749
 11
88.1748
 21
0.250717
  0
LINE
  8
0
 10
88.1748
 20
0.250717
 11
88.6635
 21
0.151917
  0
LINE
  8
0
 10
88.6635
 20
0.151917
 11
89.1566
 21
0.0776062
  0
LINE
  8
0
 10
89.1566
 20
0.0776062
 11
89.6527
 21
0.0279541
  0
LINE
  8
0
 10
89.6527
 20
0.0279541
 11
90.1507
 21
0.00309753
  0
LINE
  8
0
 10
90.1507
 20
0.00309753
 11
125.649
 21
0.00309753
  0
LINE
  8
0
 10
125.649
 20
0.00309753
 11
126.147
 21
0.0279541
  0
LINE
  8
0
 10
4.66635
 20
121.276
 11
4.24533
 21
121.479
  0
LINE
  8
0
 10
4.24533
 20
121.479
 11
3.95398
 21
121.844
  0
LINE
  8
0
 10
3.95398
 20
121.844
 11
3.84999
 21
122.3
  0
LINE
  8
0
 10
3.84999
 20
122.3
 11
3.95398
 21
122.756
  0
LINE
  8
0
 10
3.95398
 20
122.756
 11
4.24533
 21
123.121
  0
LINE
  8
0
 10
4.24533
 20
123.121
 11
4.66635
 21
123.324
  0
LINE
  8
0
 10
4.66635
 20
123.324
 11
5.13364
 21
123.324
  0
LINE
  8
0
 10
5.13364
 20
123.324
 11
5.55466
 21
123.121
  0
LINE
  8
0
 10
5.55466
 20
123.121
 11
5.84601
 21
122.756
  0
LINE
  8
0
 10
5.84601
 20
122.756
 11
5.95
 21
122.3
  0
LINE
  8
0
 10
5.95
 20
122.3
 11
5.84601
 21
121.844
  0
LINE
  8
0
 10
5.84601
 20
121.844
 11
5.55466
 21
121.479
  0
LINE
  8
0
 10
5.55466
 20
121.479
 11
5.13364
 21
121.276
  0
LINE
  8
0
 10
5.13364
 20
121.276
 11
4.66635
 21
121.276
  0
LINE
  8
0
 10
130.266
 20
121.276
 11
129.845
 21
121.479
  0
LINE
  8
0
 10
129.845
 20
121.479
 11
129.554
 21
121.844
  0
LINE
  8
0
 10
129.554
 20
121.844
 11
129.45
 21
122.3
  0
LINE
  8
0
 10
129.45
 20
122.3
 11
129.554
 21
122.756
  0
LINE
  8
0
 10
129.554
 20
122.756
 11
129.845
 21
123.121
  0
LINE
  8
0
 10
129.845
 20
123.121
 11
130.266
 21
123.324
  0
LINE
  8
0
 10
130.266
 20
123.324
 11
130.734
 21
123.324
  0
LINE
  8
0
 10
130.734
 20
123.324
 11
131.155
 21
123.121
  0
LINE
  8
0
 10
131.155
 20
123.121
 11
131.446
 21
122.756
  0
LINE
  8
0
 10
131.446
 20
122.756
 11
131.55
 21
122.3
  0
LINE
  8
0
 10
131.55
 20
122.3
 11
131.446
 21
121.844
  0
LINE
  8
0
 10
131.446
 20
121.844
 11
131.155
 21
121.479
  0
LINE
  8
0
 10
131.155
 20
121.479
 11
130.734
 21
121.276
  0
LINE
  8
0
 10
130.734
 20
121.276
 11
130.266
 21
121.276
  0
LINE
  8
0
 10
73.2023
 20
96.5102
 11
72.7135
 21
96.5918
  0
LINE
  8
0
 10
72.7135
 20
96.5918
 11
72.2449
 21
96.7527
  0
LINE
  8
0
 10
72.2449
 20
96.7527
 11
71.8092
 21
96.9885
  0
LINE
  8
0
 10
71.8092
 20
96.9885
 11
71.4182
 21
97.2928
  0
LINE
  8
0
 10
71.4182
 20
97.2928
 11
71.0826
 21
97.6574
  0
LINE
  8
0
 10
71.0826
 20
97.6574
 11
70.8116
 21
98.0722
  0
LINE
  8
0
 10
70.8116
 20
98.0722
 11
70.6125
 21
98.5259
  0
LINE
  8
0
 10
70.6125
 20
98.5259
 11
70.4909
 21
99.0062
  0
LINE
  8
0
 10
70.4909
 20
99.0062
 11
70.45
 21
99.5
  0
LINE
  8
0
 10
70.45
 20
99.5
 11
70.45
 21
108.2
  0
LINE
  8
0
 10
70.45
 20
108.2
 11
70.4909
 21
108.694
  0
LINE
  8
0
 10
70.4909
 20
108.694
 11
70.6125
 21
109.174
  0
LINE
  8
0
 10
70.6125
 20
109.174
 11
70.8116
 21
109.628
  0
LINE
  8
0
 10
70.8116
 20
109.628
 11
71.0826
 21
110.043
  0
LINE
  8
0
 10
71.0826
 20
110.043
 11
71.4182
 21
110.407
  0
LINE
  8
0
 10
71.4182
 20
110.407
 11
71.8092
 21
110.712
  0
LINE
  8
0
 10
71.8092
 20
110.712
 11
72.2449
 21
110.947
  0
LINE
  8
0
 10
72.2449
 20
110.947
 11
72.7135
 21
111.108
  0
LINE
  8
0
 10
72.7135
 20
111.108
 11
73.2023
 21
111.19
  0
LINE
  8
0
 10
73.2023
 20
111.19
 11
87.4977
 21
111.19
  0
LINE
  8
0
 10
87.4977
 20
111.19
 11
87.9865
 21
111.108
  0
LINE
  8
0
 10
87.9865
 20
111.108
 11
88.4551
 21
110.947
  0
LINE
  8
0
 10
88.4551
 20
110.947
 11
88.8908
 21
110.712
  0
LINE
  8
0
 10
88.8908
 20
110.712
 11
89.2818
 21
110.407
  0
LINE
  8
0
 10
89.2818
 20
110.407
 11
89.6174
 21
110.043
  0
LINE
  8
0
 10
89.6174
 20
110.043
 11
89.8884
 21
109.628
  0
LINE
  8
0
 10
89.8884
 20
109.628
 11
90.0874
 21
109.174
  0
LINE
  8
0
 10
90.0874
 20
109.174
 11
90.2091
 21
108.694
  0
LINE
  8
0
 10
90.2091
 20
108.694
 11
90.25
 21
108.2
  0
LINE
  8
0
 10
90.25
 20
108.2
 11
90.25
 21
99.5
  0
LINE
  8
0
 10
90.25
 20
99.5
 11
90.2091
 21
99.0062
  0
LINE
  8
0
 10
90.2091
 20
99.0062
 11
90.0874
 21
98.5259
  0
LINE
  8
0
 10
90.0874
 20
98.5259
 11
89.8884
 21
98.0722
  0
LINE
  8
0
 10
89.8884
 20
98.0722
 11
89.6174
 21
97.6574
  0
LINE
  8
0
 10
89.6174
 20
97.6574
 11
89.2818
 21
97.2928
  0
LINE
  8
0
 10
89.2818
 20
97.2928
 11
88.8908
 21
96.9885
  0
LINE
  8
0
 10
88.8908
 20
96.9885
 11
88.4551
 21
96.7527
  0
LINE
  8
0
 10
88.4551
 20
96.7527
 11
87.9865
 21
96.5918
  0
LINE
  8
0
 10
87.9865
 20
96.5918
 11
87.4977
 21
96.5102
  0
LINE
  8
0
 10
87.4977
 20
96.5102
 11
73.2023
 21
96.5102
  0
LINE
  8
0
 10
15.9769
 20
64.4087
 11
15.4808
 21
64.4474
  0
LINE
  8
0
 10
15.4808
 20
64.4474
 11
14.988
 21
64.5168
  0
LINE
  8
0
 10
14.988
 20
64.5168
 11
14.5006
 21
64.6167
  0
LINE
  8
0
 10
14.5006
 20
64.6167
 11
14.0203
 21
64.7467
  0
LINE
  8
0
 10
14.0203
 20
64.7467
 11
13.549
 21
64.9064
  0
LINE
  8
0
 10
13.549
 20
64.9064
 11
13.0885
 21
65.095
  0
LINE
  8
0
 10
13.0885
 20
65.095
 11
12.6407
 21
65.3119
  0
LINE
  8
0
 10
12.6407
 20
65.3119
 11
12.2072
 21
65.5562
  0
LINE
  8
0
 10
12.2072
 20
65.5562
 11
11.7897
 21
65.827
  0
LINE
  8
0
 10
11.7897
 20
65.827
 11
11.3899
 21
66.1232
  0
LINE
  8
0
 10
11.3899
 20
66.1232
 11
11.0093
 21
66.4438
  0
LINE
  8
0
 10
11.0093
 20
66.4438
 11
10.6493
 21
66.7873
  0
LINE
  8
0
 10
10.6493
 20
66.7873
 11
10.3114
 21
67.1526
  0
LINE
  8
0
 10
10.3114
 20
67.1526
 11
9.99686
 21
67.5381
  0
LINE
  8
0
 10
9.99686
 20
67.5381
 11
9.70689
 21
67.9425
  0
LINE
  8
0
 10
9.70689
 20
67.9425
 11
9.44261
 21
68.3641
  0
LINE
  8
0
 10
9.44261
 20
68.3641
 11
9.20508
 21
68.8014
  0
LINE
  8
0
 10
9.20508
 20
68.8014
 11
8.99516
 21
69.2525
  0
LINE
  8
0
 10
8.99516
 20
69.2525
 11
8.81372
 21
69.7159
  0
LINE
  8
0
 10
8.81372
 20
69.7159
 11
8.66142
 21
70.1896
  0
LINE
  8
0
 10
8.66142
 20
70.1896
 11
8.53888
 21
70.6719
  0
LINE
  8
0
 10
8.53888
 20
70.6719
 11
8.44655
 21
71.1608
  0
LINE
  8
0
 10
8.44655
 20
71.1608
 11
8.3848
 21
71.6546
  0
LINE
  8
0
 10
8.3848
 20
71.6546
 11
8.35387
 21
72.1512
  0
LINE
  8
0
 10
8.35387
 20
72.1512
 11
8.35387
 21
98.0488
  0
LINE
  8
0
 10
8.35387
 20
98.0488
 11
8.3848
 21
98.5454
  0
LINE
  8
0
 10
8.3848
 20
98.5454
 11
8.44655
 21
99.0392
  0
LINE
  8
0
 10
8.44655
 20
99.0392
 11
8.53888
 21
99.5281
  0
LINE
  8
0
 10
8.53888
 20
99.5281
 11
8.66142
 21
100.01
  0
LINE
  8
0
 10
8.66142
 20
100.01
 11
8.81372
 21
100.484
  0
LINE
  8
0
 10
8.81372
 20
100.484
 11
8.99516
 21
100.947
  0
LINE
  8
0
 10
8.99516
 20
100.947
 11
9.20508
 21
101.399
  0
LINE
  8
0
 10
9.20508
 20
101.399
 11
9.44261
 21
101.836
  0
LINE
  8
0
 10
9.44261
 20
101.836
 11
9.70689
 21
102.257
  0
LINE
  8
0
 10
9.70689
 20
102.257
 11
9.99686
 21
102.662
  0
LINE
  8
0
 10
9.99686
 20
102.662
 11
10.3114
 21
103.047
  0
LINE
  8
0
 10
10.3114
 20
103.047
 11
10.6493
 21
103.413
  0
LINE
  8
0
 10
10.6493
 20
103.413
 11
11.0093
 21
103.756
  0
LINE
  8
0
 10
11.0093
 20
103.756
 11
11.3899
 21
104.077
  0
LINE
  8
0
 10
11.3899
 20
104.077
 11
11.7897
 21
104.373
  0
LINE
  8
0
 10
11.7897
 20
104.373
 11
12.2072
 21
104.644
  0
LINE
  8
0
 10
12.2072
 20
104.644
 11
12.6407
 21
104.888
  0
LINE
  8
0
 10
12.6407
 20
104.888
 11
13.0885
 21
105.105
  0
LINE
  8
0
 10
13.0885
 20
105.105
 11
13.549
 21
105.294
  0
LINE
  8
0
 10
13.549
 20
105.294
 11
14.0203
 21
105.453
  0
LINE
  8
0
 10
14.0203
 20
105.453
 11
14.5006
 21
105.583
  0
LINE
  8
0
 10
14.5006
 20
105.583
 11
14.988
 21
105.683
  0
LINE
  8
0
 10
14.988
 20
105.683
 11
15.4808
 21
105.753
  0
LINE
  8
0
 10
15.4808
 20
105.753
 11
15.9769
 21
105.791
  0
LINE
  8
0
 10
15.9769
 20
105.791
 11
16.4744
 21
105.799
  0
LINE
  8
0
 10
16.4744
 20
105.799
 11
16.9715
 21
105.776
  0
LINE
  8
0
 10
16.9715
 20
105.776
 11
17.4661
 21
105.722
  0
LINE
  8
0
 10
17.4661
 20
105.722
 11
17.9565
 21
105.637
  0
LINE
  8
0
 10
17.9565
 20
105.637
 11
18.4406
 21
105.522
  0
LINE
  8
0
 10
18.4406
 20
105.522
 11
18.9166
 21
105.377
  0
LINE
  8
0
 10
18.9166
 20
105.377
 11
19.3827
 21
105.203
  0
LINE
  8
0
 10
19.3827
 20
105.203
 11
19.8371
 21
105
  0
LINE
  8
0
 10
19.8371
 20
105
 11
20.2779
 21
104.769
  0
LINE
  8
0
 10
20.2779
 20
104.769
 11
20.7036
 21
104.512
  0
LINE
  8
0
 10
20.7036
 20
104.512
 11
21.1125
 21
104.228
  0
LINE
  8
0
 10
21.1125
 20
104.228
 11
21.5029
 21
103.919
  0
LINE
  8
0
 10
21.5029
 20
103.919
 11
21.8734
 21
103.587
  0
LINE
  8
0
 10
21.8734
 20
103.587
 11
22.2225
 21
103.233
  0
LINE
  8
0
 10
22.2225
 20
103.233
 11
22.5488
 21
102.857
  0
LINE
  8
0
 10
22.5488
 20
102.857
 11
22.8513
 21
102.462
  0
LINE
  8
0
 10
22.8513
 20
102.462
 11
23.1285
 21
102.049
  0
LINE
  8
0
 10
23.1285
 20
102.049
 11
23.3795
 21
101.619
  0
LINE
  8
0
 10
23.3795
 20
101.619
 11
23.6034
 21
101.175
  0
LINE
  8
0
 10
23.6034
 20
101.175
 11
23.7991
 21
100.717
  0
LINE
  8
0
 10
23.7991
 20
100.717
 11
23.9661
 21
100.248
  0
LINE
  8
0
 10
23.9661
 20
100.248
 11
24.1036
 21
99.7702
  0
LINE
  8
0
 10
24.1036
 20
99.7702
 11
24.2111
 21
99.2844
  0
LINE
  8
0
 10
24.2111
 20
99.2844
 11
24.2881
 21
98.7928
  0
LINE
  8
0
 10
24.2881
 20
98.7928
 11
24.3345
 21
98.2973
  0
LINE
  8
0
 10
24.3345
 20
98.2973
 11
24.35
 21
97.8
  0
LINE
  8
0
 10
24.35
 20
97.8
 11
24.35
 21
72.4
  0
LINE
  8
0
 10
24.35
 20
72.4
 11
24.3345
 21
71.9026
  0
LINE
  8
0
 10
24.3345
 20
71.9026
 11
24.2881
 21
71.4072
  0
LINE
  8
0
 10
24.2881
 20
71.4072
 11
24.2111
 21
70.9156
  0
LINE
  8
0
 10
24.2111
 20
70.9156
 11
24.1036
 21
70.4298
  0
LINE
  8
0
 10
24.1036
 20
70.4298
 11
23.9661
 21
69.9515
  0
LINE
  8
0
 10
23.9661
 20
69.9515
 11
23.7991
 21
69.4828
  0
LINE
  8
0
 10
23.7991
 20
69.4828
 11
23.6034
 21
69.0253
  0
LINE
  8
0
 10
23.6034
 20
69.0253
 11
23.3795
 21
68.5809
  0
LINE
  8
0
 10
23.3795
 20
68.5809
 11
23.1285
 21
68.1513
  0
LINE
  8
0
 10
23.1285
 20
68.1513
 11
22.8513
 21
67.7381
  0
LINE
  8
0
 10
22.8513
 20
67.7381
 11
22.5488
 21
67.3429
  0
LINE
  8
0
 10
22.5488
 20
67.3429
 11
22.2225
 21
66.9673
  0
LINE
  8
0
 10
22.2225
 20
66.9673
 11
21.8734
 21
66.6127
  0
LINE
  8
0
 10
21.8734
 20
66.6127
 11
21.5029
 21
66.2805
  0
LINE
  8
0
 10
21.5029
 20
66.2805
 11
21.1125
 21
65.972
  0
LINE
  8
0
 10
21.1125
 20
65.972
 11
20.7036
 21
65.6884
  0
LINE
  8
0
 10
20.7036
 20
65.6884
 11
20.2779
 21
65.4307
  0
LINE
  8
0
 10
20.2779
 20
65.4307
 11
19.8371
 21
65.2
  0
LINE
  8
0
 10
19.8371
 20
65.2
 11
19.3827
 21
64.9971
  0
LINE
  8
0
 10
19.3827
 20
64.9971
 11
18.9166
 21
64.8229
  0
LINE
  8
0
 10
18.9166
 20
64.8229
 11
18.4406
 21
64.678
  0
LINE
  8
0
 10
18.4406
 20
64.678
 11
17.9565
 21
64.5629
  0
LINE
  8
0
 10
17.9565
 20
64.5629
 11
17.4661
 21
64.4782
  0
LINE
  8
0
 10
17.4661
 20
64.4782
 11
16.9715
 21
64.4242
  0
LINE
  8
0
 10
16.9715
 20
64.4242
 11
16.4744
 21
64.401
  0
LINE
  8
0
 10
16.4744
 20
64.401
 11
15.9769
 21
64.4087
  0
LINE
  8
0
 10
110.336
 20
80.2473
 11
109.855
 21
80.3527
  0
LINE
  8
0
 10
109.855
 20
80.3527
 11
109.391
 21
80.5164
  0
LINE
  8
0
 10
109.391
 20
80.5164
 11
108.95
 21
80.7359
  0
LINE
  8
0
 10
108.95
 20
80.7359
 11
108.539
 21
81.0079
  0
LINE
  8
0
 10
108.539
 20
81.0079
 11
108.165
 21
81.3284
  0
LINE
  8
0
 10
108.165
 20
81.3284
 11
107.834
 21
81.6923
  0
LINE
  8
0
 10
107.834
 20
81.6923
 11
107.549
 21
82.0943
  0
LINE
  8
0
 10
107.549
 20
82.0943
 11
107.316
 21
82.5282
  0
LINE
  8
0
 10
107.316
 20
82.5282
 11
107.138
 21
82.9874
  0
LINE
  8
0
 10
107.138
 20
82.9874
 11
107.018
 21
83.465
  0
LINE
  8
0
 10
107.018
 20
83.465
 11
106.958
 21
83.9538
  0
LINE
  8
0
 10
106.958
 20
83.9538
 11
106.958
 21
84.4462
  0
LINE
  8
0
 10
106.958
 20
84.4462
 11
107.018
 21
84.935
  0
LINE
  8
0
 10
107.018
 20
84.935
 11
107.138
 21
85.4126
  0
LINE
  8
0
 10
107.138
 20
85.4126
 11
107.316
 21
85.8718
  0
LINE
  8
0
 10
107.316
 20
85.8718
 11
107.549
 21
86.3057
  0
LINE
  8
0
 10
107.549
 20
86.3057
 11
107.834
 21
86.7077
  0
LINE
  8
0
 10
107.834
 20
86.7077
 11
108.165
 21
87.0716
  0
LINE
  8
0
 10
108.165
 20
87.0716
 11
108.539
 21
87.3921
  0
LINE
  8
0
 10
108.539
 20
87.3921
 11
108.95
 21
87.6641
  0
LINE
  8
0
 10
108.95
 20
87.6641
 11
109.391
 21
87.8836
  0
LINE
  8
0
 10
109.391
 20
87.8836
 11
109.855
 21
88.0473
  0
LINE
  8
0
 10
109.855
 20
88.0473
 11
110.336
 21
88.1527
  0
LINE
  8
0
 10
110.336
 20
88.1527
 11
110.827
 21
88.1981
  0
LINE
  8
0
 10
110.827
 20
88.1981
 11
111.319
 21
88.1829
  0
LINE
  8
0
 10
111.319
 20
88.1829
 11
111.806
 21
88.1074
  0
LINE
  8
0
 10
111.806
 20
88.1074
 11
112.279
 21
87.9726
  0
LINE
  8
0
 10
112.279
 20
87.9726
 11
112.733
 21
87.7807
  0
LINE
  8
0
 10
112.733
 20
87.7807
 11
113.159
 21
87.5344
  0
LINE
  8
0
 10
113.159
 20
87.5344
 11
113.552
 21
87.2376
  0
LINE
  8
0
 10
113.552
 20
87.2376
 11
113.906
 21
86.8948
  0
LINE
  8
0
 10
113.906
 20
86.8948
 11
114.215
 21
86.5111
  0
LINE
  8
0
 10
114.215
 20
86.5111
 11
114.474
 21
86.0924
  0
LINE
  8
0
 10
114.474
 20
86.0924
 11
114.68
 21
85.645
  0
LINE
  8
0
 10
114.68
 20
85.645
 11
114.829
 21
85.1756
  0
LINE
  8
0
 10
114.829
 20
85.1756
 11
114.92
 21
84.6915
  0
LINE
  8
0
 10
114.92
 20
84.6915
 11
114.95
 21
84.2
  0
LINE
  8
0
 10
114.95
 20
84.2
 11
114.92
 21
83.7085
  0
LINE
  8
0
 10
114.92
 20
83.7085
 11
114.829
 21
83.2243
  0
LINE
  8
0
 10
114.829
 20
83.2243
 11
114.68
 21
82.755
  0
LINE
  8
0
 10
114.68
 20
82.755
 11
114.474
 21
82.3076
  0
LINE
  8
0
 10
114.474
 20
82.3076
 11
114.215
 21
81.8889
  0
LINE
  8
0
 10
114.215
 20
81.8889
 11
113.906
 21
81.5052
  0
LINE
  8
0
 10
113.906
 20
81.5052
 11
113.552
 21
81.1624
  0
LINE
  8
0
 10
113.552
 20
81.1624
 11
113.159
 21
80.8656
  0
LINE
  8
0
 10
113.159
 20
80.8656
 11
112.733
 21
80.6193
  0
LINE
  8
0
 10
112.733
 20
80.6193
 11
112.279
 21
80.4274
  0
LINE
  8
0
 10
112.279
 20
80.4274
 11
111.806
 21
80.2926
  0
LINE
  8
0
 10
111.806
 20
80.2926
 11
111.319
 21
80.2171
  0
LINE
  8
0
 10
111.319
 20
80.2171
 11
110.827
 21
80.2019
  0
LINE
  8
0
 10
110.827
 20
80.2019
 11
110.336
 21
80.2473
  0
LINE
  8
0
 10
64.2269
 20
64.4087
 11
63.7308
 21
64.4474
  0
LINE
  8
0
 10
63.7308
 20
64.4474
 11
63.2381
 21
64.5168
  0
LINE
  8
0
 10
63.2381
 20
64.5168
 11
62.7506
 21
64.6167
  0
LINE
  8
0
 10
62.7506
 20
64.6167
 11
62.2703
 21
64.7467
  0
LINE
  8
0
 10
62.2703
 20
64.7467
 11
61.799
 21
64.9064
  0
LINE
  8
0
 10
61.799
 20
64.9064
 11
61.3385
 21
65.095
  0
LINE
  8
0
 10
61.3385
 20
65.095
 11
60.8907
 21
65.3119
  0
LINE
  8
0
 10
60.8907
 20
65.3119
 11
60.4572
 21
65.5562
  0
LINE
  8
0
 10
60.4572
 20
65.5562
 11
60.0397
 21
65.827
  0
LINE
  8
0
 10
60.0397
 20
65.827
 11
59.6399
 21
66.1232
  0
LINE
  8
0
 10
59.6399
 20
66.1232
 11
59.2593
 21
66.4438
  0
LINE
  8
0
 10
59.2593
 20
66.4438
 11
58.8993
 21
66.7873
  0
LINE
  8
0
 10
58.8993
 20
66.7873
 11
58.5614
 21
67.1526
  0
LINE
  8
0
 10
58.5614
 20
67.1526
 11
58.2469
 21
67.5381
  0
LINE
  8
0
 10
58.2469
 20
67.5381
 11
57.9569
 21
67.9425
  0
LINE
  8
0
 10
57.9569
 20
67.9425
 11
57.6926
 21
68.3641
  0
LINE
  8
0
 10
57.6926
 20
68.3641
 11
57.4551
 21
68.8014
  0
LINE
  8
0
 10
57.4551
 20
68.8014
 11
57.2452
 21
69.2525
  0
LINE
  8
0
 10
57.2452
 20
69.2525
 11
57.0637
 21
69.7159
  0
LINE
  8
0
 10
57.0637
 20
69.7159
 11
56.9114
 21
70.1896
  0
LINE
  8
0
 10
56.9114
 20
70.1896
 11
56.7889
 21
70.6719
  0
LINE
  8
0
 10
56.7889
 20
70.6719
 11
56.6965
 21
71.1608
  0
LINE
  8
0
 10
56.6965
 20
71.1608
 11
56.6348
 21
71.6546
  0
LINE
  8
0
 10
56.6348
 20
71.6546
 11
56.6039
 21
72.1512
  0
LINE
  8
0
 10
56.6039
 20
72.1512
 11
56.6039
 21
72.6488
  0
LINE
  8
0
 10
56.6039
 20
72.6488
 11
56.6348
 21
73.1454
  0
LINE
  8
0
 10
56.6348
 20
73.1454
 11
56.6965
 21
73.6392
  0
LINE
  8
0
 10
56.6965
 20
73.6392
 11
56.7889
 21
74.1281
  0
LINE
  8
0
 10
56.7889
 20
74.1281
 11
56.9114
 21
74.6104
  0
LINE
  8
0
 10
56.9114
 20
74.6104
 11
57.0637
 21
75.0841
  0
LINE
  8
0
 10
57.0637
 20
75.0841
 11
57.2452
 21
75.5475
  0
LINE
  8
0
 10
57.2452
 20
75.5475
 11
57.4551
 21
75.9986
  0
LINE
  8
0
 10
57.4551
 20
75.9986
 11
57.6926
 21
76.4359
  0
LINE
  8
0
 10
57.6926
 20
76.4359
 11
57.9569
 21
76.8575
  0
LINE
  8
0
 10
57.9569
 20
76.8575
 11
58.2469
 21
77.2619
  0
LINE
  8
0
 10
58.2469
 20
77.2619
 11
58.5614
 21
77.6474
  0
LINE
  8
0
 10
58.5614
 20
77.6474
 11
58.8993
 21
78.0127
  0
LINE
  8
0
 10
58.8993
 20
78.0127
 11
59.2593
 21
78.3562
  0
LINE
  8
0
 10
59.2593
 20
78.3562
 11
59.6399
 21
78.6768
  0
LINE
  8
0
 10
59.6399
 20
78.6768
 11
60.0397
 21
78.973
  0
LINE
  8
0
 10
60.0397
 20
78.973
 11
60.4572
 21
79.2438
  0
LINE
  8
0
 10
60.4572
 20
79.2438
 11
60.8907
 21
79.4881
  0
LINE
  8
0
 10
60.8907
 20
79.4881
 11
61.3385
 21
79.705
  0
LINE
  8
0
 10
61.3385
 20
79.705
 11
61.799
 21
79.8936
  0
LINE
  8
0
 10
61.799
 20
79.8936
 11
62.2703
 21
80.0533
  0
LINE
  8
0
 10
62.2703
 20
80.0533
 11
62.7506
 21
80.1833
  0
LINE
  8
0
 10
62.7506
 20
80.1833
 11
63.2381
 21
80.2832
  0
LINE
  8
0
 10
63.2381
 20
80.2832
 11
63.7308
 21
80.3526
  0
LINE
  8
0
 10
63.7308
 20
80.3526
 11
64.2269
 21
80.3913
  0
LINE
  8
0
 10
64.2269
 20
80.3913
 11
64.7244
 21
80.399
  0
LINE
  8
0
 10
64.7244
 20
80.399
 11
65.2215
 21
80.3758
  0
LINE
  8
0
 10
65.2215
 20
80.3758
 11
65.7161
 21
80.3218
  0
LINE
  8
0
 10
65.7161
 20
80.3218
 11
66.2065
 21
80.237
  0
LINE
  8
0
 10
66.2065
 20
80.237
 11
66.6906
 21
80.122
  0
LINE
  8
0
 10
66.6906
 20
80.122
 11
67.1666
 21
79.9771
  0
LINE
  8
0
 10
67.1666
 20
79.9771
 11
67.6327
 21
79.8029
  0
LINE
  8
0
 10
67.6327
 20
79.8029
 11
68.0871
 21
79.6
  0
LINE
  8
0
 10
68.0871
 20
79.6
 11
68.528
 21
79.3693
  0
LINE
  8
0
 10
68.528
 20
79.3693
 11
68.9536
 21
79.1116
  0
LINE
  8
0
 10
68.9536
 20
79.1116
 11
69.3625
 21
78.828
  0
LINE
  8
0
 10
69.3625
 20
78.828
 11
69.7529
 21
78.5195
  0
LINE
  8
0
 10
69.7529
 20
78.5195
 11
70.1234
 21
78.1873
  0
LINE
  8
0
 10
70.1234
 20
78.1873
 11
70.4725
 21
77.8327
  0
LINE
  8
0
 10
70.4725
 20
77.8327
 11
70.7989
 21
77.4571
  0
LINE
  8
0
 10
70.7989
 20
77.4571
 11
71.1013
 21
77.0619
  0
LINE
  8
0
 10
71.1013
 20
77.0619
 11
71.3785
 21
76.6487
  0
LINE
  8
0
 10
71.3785
 20
76.6487
 11
71.6295
 21
76.2191
  0
LINE
  8
0
 10
71.6295
 20
76.2191
 11
71.8534
 21
75.7747
  0
LINE
  8
0
 10
71.8534
 20
75.7747
 11
72.0491
 21
75.3172
  0
LINE
  8
0
 10
72.0491
 20
75.3172
 11
72.2161
 21
74.8484
  0
LINE
  8
0
 10
72.2161
 20
74.8484
 11
72.3536
 21
74.3702
  0
LINE
  8
0
 10
72.3536
 20
74.3702
 11
72.4611
 21
73.8844
  0
LINE
  8
0
 10
72.4611
 20
73.8844
 11
72.5382
 21
73.3928
  0
LINE
  8
0
 10
72.5382
 20
73.3928
 11
72.5845
 21
72.8974
  0
LINE
  8
0
 10
72.5845
 20
72.8974
 11
72.6
 21
72.4
  0
LINE
  8
0
 10
72.6
 20
72.4
 11
72.5845
 21
71.9026
  0
LINE
  8
0
 10
72.5845
 20
71.9026
 11
72.5382
 21
71.4072
  0
LINE
  8
0
 10
72.5382
 20
71.4072
 11
72.4611
 21
70.9156
  0
LINE
  8
0
 10
72.4611
 20
70.9156
 11
72.3536
 21
70.4298
  0
LINE
  8
0
 10
72.3536
 20
70.4298
 11
72.2161
 21
69.9515
  0
LINE
  8
0
 10
72.2161
 20
69.9515
 11
72.0491
 21
69.4828
  0
LINE
  8
0
 10
72.0491
 20
69.4828
 11
71.8534
 21
69.0253
  0
LINE
  8
0
 10
71.8534
 20
69.0253
 11
71.6295
 21
68.5809
  0
LINE
  8
0
 10
71.6295
 20
68.5809
 11
71.3785
 21
68.1513
  0
LINE
  8
0
 10
71.3785
 20
68.1513
 11
71.1013
 21
67.7381
  0
LINE
  8
0
 10
71.1013
 20
67.7381
 11
70.7989
 21
67.3429
  0
LINE
  8
0
 10
70.7989
 20
67.3429
 11
70.4725
 21
66.9673
  0
LINE
  8
0
 10
70.4725
 20
66.9673
 11
70.1234
 21
66.6127
  0
LINE
  8
0
 10
70.1234
 20
66.6127
 11
69.7529
 21
66.2805
  0
LINE
  8
0
 10
69.7529
 20
66.2805
 11
69.3625
 21
65.972
  0
LINE
  8
0
 10
69.3625
 20
65.972
 11
68.9536
 21
65.6884
  0
LINE
  8
0
 10
68.9536
 20
65.6884
 11
68.528
 21
65.4307
  0
LINE
  8
0
 10
68.528
 20
65.4307
 11
68.0871
 21
65.2
  0
LINE
  8
0
 10
68.0871
 20
65.2
 11
67.6327
 21
64.9971
  0
LINE
  8
0
 10
67.6327
 20
64.9971
 11
67.1666
 21
64.8229
  0
LINE
  8
0
 10
67.1666
 20
64.8229
 11
66.6906
 21
64.678
  0
LINE
  8
0
 10
66.6906
 20
64.678
 11
66.2065
 21
64.5629
  0
LINE
  8
0
 10
66.2065
 20
64.5629
 11
65.7161
 21
64.4782
  0
LINE
  8
0
 10
65.7161
 20
64.4782
 11
65.2215
 21
64.4242
  0
LINE
  8
0
 10
65.2215
 20
64.4242
 11
64.7244
 21
64.401
  0
LINE
  8
0
 10
64.7244
 20
64.401
 11
64.2269
 21
64.4087
  0
LINE
  8
0
 10
4.66635
 20
57.8763
 11
4.24533
 21
58.0791
  0
LINE
  8
0
 10
4.24533
 20
58.0791
 11
3.95398
 21
58.4444
  0
LINE
  8
0
 10
3.95398
 20
58.4444
 11
3.84999
 21
58.9
  0
LINE
  8
0
 10
3.84999
 20
58.9
 11
3.95398
 21
59.3556
  0
LINE
  8
0
 10
3.95398
 20
59.3556
 11
4.24533
 21
59.7209
  0
LINE
  8
0
 10
4.24533
 20
59.7209
 11
4.66635
 21
59.9237
  0
LINE
  8
0
 10
4.66635
 20
59.9237
 11
5.13364
 21
59.9237
  0
LINE
  8
0
 10
5.13364
 20
59.9237
 11
5.55466
 21
59.7209
  0
LINE
  8
0
 10
5.55466
 20
59.7209
 11
5.84601
 21
59.3556
  0
LINE
  8
0
 10
5.84601
 20
59.3556
 11
5.95
 21
58.9
  0
LINE
  8
0
 10
5.95
 20
58.9
 11
5.84601
 21
58.4444
  0
LINE
  8
0
 10
5.84601
 20
58.4444
 11
5.55466
 21
58.0791
  0
LINE
  8
0
 10
5.55466
 20
58.0791
 11
5.13364
 21
57.8763
  0
LINE
  8
0
 10
5.13364
 20
57.8763
 11
4.66635
 21
57.8763
  0
LINE
  8
0
 10
80.1664
 20
53.9763
 11
79.7453
 21
54.1791
  0
LINE
  8
0
 10
79.7453
 20
54.1791
 11
79.454
 21
54.5444
  0
LINE
  8
0
 10
79.454
 20
54.5444
 11
79.35
 21
55
  0
LINE
  8
0
 10
79.35
 20
55
 11
79.454
 21
55.4556
  0
LINE
  8
0
 10
79.454
 20
55.4556
 11
79.7453
 21
55.8209
  0
LINE
  8
0
 10
79.7453
 20
55.8209
 11
80.1664
 21
56.0237
  0
LINE
  8
0
 10
80.1664
 20
56.0237
 11
80.6336
 21
56.0237
  0
LINE
  8
0
 10
80.6336
 20
56.0237
 11
81.0547
 21
55.8209
  0
LINE
  8
0
 10
81.0547
 20
55.8209
 11
81.346
 21
55.4556
  0
LINE
  8
0
 10
81.346
 20
55.4556
 11
81.45
 21
55
  0
LINE
  8
0
 10
81.45
 20
55
 11
81.346
 21
54.5444
  0
LINE
  8
0
 10
81.346
 20
54.5444
 11
81.0547
 21
54.1791
  0
LINE
  8
0
 10
81.0547
 20
54.1791
 11
80.6336
 21
53.9763
  0
LINE
  8
0
 10
80.6336
 20
53.9763
 11
80.1664
 21
53.9763
  0
LINE
  8
0
 10
107.202
 20
11.0122
 11
106.505
 21
11.0487
  0
LINE
  8
0
 10
106.505
 20
11.0487
 11
105.809
 21
11.1096
  0
LINE
  8
0
 10
105.809
 20
11.1096
 11
105.117
 21
11.1946
  0
LINE
  8
0
 10
105.117
 20
11.1946
 11
104.427
 21
11.3038
  0
LINE
  8
0
 10
104.427
 20
11.3038
 11
103.742
 21
11.437
  0
LINE
  8
0
 10
103.742
 20
11.437
 11
103.062
 21
11.5941
  0
LINE
  8
0
 10
103.062
 20
11.5941
 11
102.387
 21
11.7748
  0
LINE
  8
0
 10
102.387
 20
11.7748
 11
101.72
 21
11.9789
  0
LINE
  8
0
 10
101.72
 20
11.9789
 11
101.06
 21
12.2061
  0
LINE
  8
0
 10
101.06
 20
12.2061
 11
100.408
 21
12.4563
  0
LINE
  8
0
 10
100.408
 20
12.4563
 11
99.7653
 21
12.7291
  0
LINE
  8
0
 10
99.7653
 20
12.7291
 11
99.1326
 21
13.0241
  0
LINE
  8
0
 10
99.1326
 20
13.0241
 11
98.5106
 21
13.341
  0
LINE
  8
0
 10
98.5106
 20
13.341
 11
97.9
 21
13.6795
  0
LINE
  8
0
 10
97.9
 20
13.6795
 11
97.3016
 21
14.039
  0
LINE
  8
0
 10
97.3016
 20
14.039
 11
96.7161
 21
14.4192
  0
LINE
  8
0
 10
96.7161
 20
14.4192
 11
96.1443
 21
14.8197
  0
LINE
  8
0
 10
96.1443
 20
14.8197
 11
95.5868
 21
15.2398
  0
LINE
  8
0
 10
95.5868
 20
15.2398
 11
95.0443
 21
15.6791
  0
LINE
  8
0
 10
95.0443
 20
15.6791
 11
94.5174
 21
16.1371
  0
LINE
  8
0
 10
94.5174
 20
16.1371
 11
94.0068
 21
16.6132
  0
LINE
  8
0
 10
94.0068
 20
16.6132
 11
93.5132
 21
17.1068
  0
LINE
  8
0
 10
93.5132
 20
17.1068
 11
93.0371
 21
17.6174
  0
LINE
  8
0
 10
93.0371
 20
17.6174
 11
92.5791
 21
18.1442
  0
LINE
  8
0
 10
92.5791
 20
18.1442
 11
92.1398
 21
18.6868
  0
LINE
  8
0
 10
92.1398
 20
18.6868
 11
91.7197
 21
19.2443
  0
LINE
  8
0
 10
91.7197
 20
19.2443
 11
91.3192
 21
19.8161
  0
LINE
  8
0
 10
91.3192
 20
19.8161
 11
90.939
 21
20.4016
  0
LINE
  8
0
 10
90.939
 20
20.4016
 11
90.5795
 21
21
  0
LINE
  8
0
 10
90.5795
 20
21
 11
90.241
 21
21.6106
  0
LINE
  8
0
 10
90.241
 20
21.6106
 11
89.9241
 21
22.2326
  0
LINE
  8
0
 10
89.9241
 20
22.2326
 11
89.6291
 21
22.8653
  0
LINE
  8
0
 10
89.6291
 20
22.8653
 11
89.3563
 21
23.5079
  0
LINE
  8
0
 10
89.3563
 20
23.5079
 11
89.1061
 21
24.1596
  0
LINE
  8
0
 10
89.1061
 20
24.1596
 11
88.8789
 21
24.8197
  0
LINE
  8
0
 10
88.8789
 20
24.8197
 11
88.6748
 21
25.4872
  0
LINE
  8
0
 10
88.6748
 20
25.4872
 11
88.4941
 21
26.1616
  0
LINE
  8
0
 10
88.4941
 20
26.1616
 11
88.3371
 21
26.8418
  0
LINE
  8
0
 10
88.3371
 20
26.8418
 11
88.2038
 21
27.527
  0
LINE
  8
0
 10
88.2038
 20
27.527
 11
88.0946
 21
28.2165
  0
LINE
  8
0
 10
88.0946
 20
28.2165
 11
88.0096
 21
28.9094
  0
LINE
  8
0
 10
88.0096
 20
28.9094
 11
87.9487
 21
29.6049
  0
LINE
  8
0
 10
87.9487
 20
29.6049
 11
87.9122
 21
30.302
  0
LINE
  8
0
 10
87.9122
 20
30.302
 11
87.9
 21
31
  0
LINE
  8
0
 10
87.9
 20
31
 11
87.9122
 21
31.698
  0
LINE
  8
0
 10
87.9122
 20
31.698
 11
87.9487
 21
32.3951
  0
LINE
  8
0
 10
87.9487
 20
32.3951
 11
88.0096
 21
33.0906
  0
LINE
  8
0
 10
88.0096
 20
33.0906
 11
88.0946
 21
33.7835
  0
LINE
  8
0
 10
88.0946
 20
33.7835
 11
88.2038
 21
34.473
  0
LINE
  8
0
 10
88.2038
 20
34.473
 11
88.3371
 21
35.1582
  0
LINE
  8
0
 10
88.3371
 20
35.1582
 11
88.4941
 21
35.8384
  0
LINE
  8
0
 10
88.4941
 20
35.8384
 11
88.6748
 21
36.5127
  0
LINE
  8
0
 10
88.6748
 20
36.5127
 11
88.8789
 21
37.1803
  0
LINE
  8
0
 10
88.8789
 20
37.1803
 11
89.1061
 21
37.8404
  0
LINE
  8
0
 10
89.1061
 20
37.8404
 11
89.3563
 21
38.4921
  0
LINE
  8
0
 10
89.3563
 20
38.4921
 11
89.6291
 21
39.1347
  0
LINE
  8
0
 10
89.6291
 20
39.1347
 11
89.9241
 21
39.7674
  0
LINE
  8
0
 10
89.9241
 20
39.7674
 11
90.241
 21
40.3894
  0
LINE
  8
0
 10
90.241
 20
40.3894
 11
90.5795
 21
41
  0
LINE
  8
0
 10
90.5795
 20
41
 11
90.939
 21
41.5984
  0
LINE
  8
0
 10
90.939
 20
41.5984
 11
91.3192
 21
42.1839
  0
LINE
  8
0
 10
91.3192
 20
42.1839
 11
91.7197
 21
42.7557
  0
LINE
  8
0
 10
91.7197
 20
42.7557
 11
92.1398
 21
43.3132
  0
LINE
  8
0
 10
92.1398
 20
43.3132
 11
92.5791
 21
43.8557
  0
LINE
  8
0
 10
92.5791
 20
43.8557
 11
93.0371
 21
44.3826
  0
LINE
  8
0
 10
93.0371
 20
44.3826
 11
93.5132
 21
44.8932
  0
LINE
  8
0
 10
93.5132
 20
44.8932
 11
94.0068
 21
45.3868
  0
LINE
  8
0
 10
94.0068
 20
45.3868
 11
94.5174
 21
45.8629
  0
LINE
  8
0
 10
94.5174
 20
45.8629
 11
95.0443
 21
46.3209
  0
LINE
  8
0
 10
95.0443
 20
46.3209
 11
95.5868
 21
46.7602
  0
LINE
  8
0
 10
95.5868
 20
46.7602
 11
96.1443
 21
47.1803
  0
LINE
  8
0
 10
96.1443
 20
47.1803
 11
96.7161
 21
47.5807
  0
LINE
  8
0
 10
96.7161
 20
47.5807
 11
97.3016
 21
47.961
  0
LINE
  8
0
 10
97.3016
 20
47.961
 11
97.9
 21
48.3205
  0
LINE
  8
0
 10
97.9
 20
48.3205
 11
98.5106
 21
48.659
  0
LINE
  8
0
 10
98.5106
 20
48.659
 11
99.1326
 21
48.9759
  0
LINE
  8
0
 10
99.1326
 20
48.9759
 11
99.7653
 21
49.2709
  0
LINE
  8
0
 10
99.7653
 20
49.2709
 11
100.408
 21
49.5437
  0
LINE
  8
0
 10
100.408
 20
49.5437
 11
101.06
 21
49.7939
  0
LINE
  8
0
 10
101.06
 20
49.7939
 11
101.72
 21
50.0211
  0
LINE
  8
0
 10
101.72
 20
50.0211
 11
102.387
 21
50.2252
  0
LINE
  8
0
 10
102.387
 20
50.2252
 11
103.062
 21
50.4059
  0
LINE
  8
0
 10
103.062
 20
50.4059
 11
103.742
 21
50.5629
  0
LINE
  8
0
 10
103.742
 20
50.5629
 11
104.427
 21
50.6962
  0
LINE
  8
0
 10
104.427
 20
50.6962
 11
105.117
 21
50.8054
  0
LINE
  8
0
 10
105.117
 20
50.8054
 11
105.809
 21
50.8904
  0
LINE
  8
0
 10
105.809
 20
50.8904
 11
106.505
 21
50.9513
  0
LINE
  8
0
 10
106.505
 20
50.9513
 11
107.202
 21
50.9878
  0
LINE
  8
0
 10
107.202
 20
50.9878
 11
107.9
 21
51
  0
LINE
  8
0
 10
107.9
 20
51
 11
108.598
 21
50.9878
  0
LINE
  8
0
 10
108.598
 20
50.9878
 11
109.295
 21
50.9513
  0
LINE
  8
0
 10
109.295
 20
50.9513
 11
109.991
 21
50.8904
  0
LINE
  8
0
 10
109.991
 20
50.8904
 11
110.683
 21
50.8054
  0
LINE
  8
0
 10
110.683
 20
50.8054
 11
111.373
 21
50.6962
  0
LINE
  8
0
 10
111.373
 20
50.6962
 11
112.058
 21
50.5629
  0
LINE
  8
0
 10
112.058
 20
50.5629
 11
112.738
 21
50.4059
  0
LINE
  8
0
 10
112.738
 20
50.4059
 11
113.413
 21
50.2252
  0
LINE
  8
0
 10
113.413
 20
50.2252
 11
114.08
 21
50.0211
  0
LINE
  8
0
 10
114.08
 20
50.0211
 11
114.74
 21
49.7939
  0
LINE
  8
0
 10
114.74
 20
49.7939
 11
115.392
 21
49.5437
  0
LINE
  8
0
 10
115.392
 20
49.5437
 11
116.035
 21
49.2709
  0
LINE
  8
0
 10
116.035
 20
49.2709
 11
116.667
 21
48.9759
  0
LINE
  8
0
 10
116.667
 20
48.9759
 11
117.289
 21
48.659
  0
LINE
  8
0
 10
117.289
 20
48.659
 11
117.9
 21
48.3205
  0
LINE
  8
0
 10
117.9
 20
48.3205
 11
118.498
 21
47.961
  0
LINE
  8
0
 10
118.498
 20
47.961
 11
119.084
 21
47.5807
  0
LINE
  8
0
 10
119.084
 20
47.5807
 11
119.656
 21
47.1803
  0
LINE
  8
0
 10
119.656
 20
47.1803
 11
120.213
 21
46.7602
  0
LINE
  8
0
 10
120.213
 20
46.7602
 11
120.756
 21
46.3209
  0
LINE
  8
0
 10
120.756
 20
46.3209
 11
121.283
 21
45.8629
  0
LINE
  8
0
 10
121.283
 20
45.8629
 11
121.793
 21
45.3868
  0
LINE
  8
0
 10
121.793
 20
45.3868
 11
122.287
 21
44.8932
  0
LINE
  8
0
 10
122.287
 20
44.8932
 11
122.763
 21
44.3826
  0
LINE
  8
0
 10
122.763
 20
44.3826
 11
123.221
 21
43.8557
  0
LINE
  8
0
 10
123.221
 20
43.8557
 11
123.66
 21
43.3132
  0
LINE
  8
0
 10
123.66
 20
43.3132
 11
124.08
 21
42.7557
  0
LINE
  8
0
 10
124.08
 20
42.7557
 11
124.481
 21
42.1839
  0
LINE
  8
0
 10
124.481
 20
42.1839
 11
124.861
 21
41.5984
  0
LINE
  8
0
 10
124.861
 20
41.5984
 11
125.221
 21
41
  0
LINE
  8
0
 10
125.221
 20
41
 11
125.559
 21
40.3894
  0
LINE
  8
0
 10
125.559
 20
40.3894
 11
125.876
 21
39.7674
  0
LINE
  8
0
 10
125.876
 20
39.7674
 11
126.171
 21
39.1347
  0
LINE
  8
0
 10
126.171
 20
39.1347
 11
126.444
 21
38.4921
  0
LINE
  8
0
 10
126.444
 20
38.4921
 11
126.694
 21
37.8404
  0
LINE
  8
0
 10
126.694
 20
37.8404
 11
126.921
 21
37.1803
  0
LINE
  8
0
 10
126.921
 20
37.1803
 11
127.125
 21
36.5127
  0
LINE
  8
0
 10
127.125
 20
36.5127
 11
127.306
 21
35.8384
  0
LINE
  8
0
 10
127.306
 20
35.8384
 11
127.463
 21
35.1582
  0
LINE
  8
0
 10
127.463
 20
35.1582
 11
127.596
 21
34.473
  0
LINE
  8
0
 10
127.596
 20
34.473
 11
127.705
 21
33.7835
  0
LINE
  8
0
 10
127.705
 20
33.7835
 11
127.79
 21
33.0906
  0
LINE
  8
0
 10
127.79
 20
33.0906
 11
127.851
 21
32.3951
  0
LINE
  8
0
 10
127.851
 20
32.3951
 11
127.888
 21
31.698
  0
LINE
  8
0
 10
127.888
 20
31.698
 11
127.9
 21
31
  0
LINE
  8
0
 10
127.9
 20
31
 11
127.888
 21
30.302
  0
LINE
  8
0
 10
127.888
 20
30.302
 11
127.851
 21
29.6049
  0
LINE
  8
0
 10
127.851
 20
29.6049
 11
127.79
 21
28.9094
  0
LINE
  8
0
 10
127.79
 20
28.9094
 11
127.705
 21
28.2165
  0
LINE
  8
0
 10
127.705
 20
28.2165
 11
127.596
 21
27.527
  0
LINE
  8
0
 10
127.596
 20
27.527
 11
127.463
 21
26.8418
  0
LINE
  8
0
 10
127.463
 20
26.8418
 11
127.306
 21
26.1616
  0
LINE
  8
0
 10
127.306
 20
26.1616
 11
127.125
 21
25.4872
  0
LINE
  8
0
 10
127.125
 20
25.4872
 11
126.921
 21
24.8197
  0
LINE
  8
0
 10
126.921
 20
24.8197
 11
126.694
 21
24.1596
  0
LINE
  8
0
 10
126.694
 20
24.1596
 11
126.444
 21
23.5079
  0
LINE
  8
0
 10
126.444
 20
23.5079
 11
126.171
 21
22.8653
  0
LINE
  8
0
 10
126.171
 20
22.8653
 11
125.876
 21
22.2326
  0
LINE
  8
0
 10
125.876
 20
22.2326
 11
125.559
 21
21.6106
  0
LINE
  8
0
 10
125.559
 20
21.6106
 11
125.221
 21
21
  0
LINE
  8
0
 10
125.221
 20
21
 11
124.861
 21
20.4016
  0
LINE
  8
0
 10
124.861
 20
20.4016
 11
124.481
 21
19.8161
  0
LINE
  8
0
 10
124.481
 20
19.8161
 11
124.08
 21
19.2443
  0
LINE
  8
0
 10
124.08
 20
19.2443
 11
123.66
 21
18.6868
  0
LINE
  8
0
 10
123.66
 20
18.6868
 11
123.221
 21
18.1442
  0
LINE
  8
0
 10
123.221
 20
18.1442
 11
122.763
 21
17.6174
  0
LINE
  8
0
 10
122.763
 20
17.6174
 11
122.287
 21
17.1068
  0
LINE
  8
0
 10
122.287
 20
17.1068
 11
121.793
 21
16.6132
  0
LINE
  8
0
 10
121.793
 20
16.6132
 11
121.283
 21
16.1371
  0
LINE
  8
0
 10
121.283
 20
16.1371
 11
120.756
 21
15.6791
  0
LINE
  8
0
 10
120.756
 20
15.6791
 11
120.213
 21
15.2398
  0
LINE
  8
0
 10
120.213
 20
15.2398
 11
119.656
 21
14.8197
  0
LINE
  8
0
 10
119.656
 20
14.8197
 11
119.084
 21
14.4192
  0
LINE
  8
0
 10
119.084
 20
14.4192
 11
118.498
 21
14.039
  0
LINE
  8
0
 10
118.498
 20
14.039
 11
117.9
 21
13.6795
  0
LINE
  8
0
 10
117.9
 20
13.6795
 11
117.289
 21
13.341
  0
LINE
  8
0
 10
117.289
 20
13.341
 11
116.667
 21
13.0241
  0
LINE
  8
0
 10
116.667
 20
13.0241
 11
116.035
 21
12.7291
  0
LINE
  8
0
 10
116.035
 20
12.7291
 11
115.392
 21
12.4563
  0
LINE
  8
0
 10
115.392
 20
12.4563
 11
114.74
 21
12.2061
  0
LINE
  8
0
 10
114.74
 20
12.2061
 11
114.08
 21
11.9789
  0
LINE
  8
0
 10
114.08
 20
11.9789
 11
113.413
 21
11.7748
  0
LINE
  8
0
 10
113.413
 20
11.7748
 11
112.738
 21
11.5941
  0
LINE
  8
0
 10
112.738
 20
11.5941
 11
112.058
 21
11.437
  0
LINE
  8
0
 10
112.058
 20
11.437
 11
111.373
 21
11.3038
  0
LINE
  8
0
 10
111.373
 20
11.3038
 11
110.683
 21
11.1946
  0
LINE
  8
0
 10
110.683
 20
11.1946
 11
109.991
 21
11.1096
  0
LINE
  8
0
 10
109.991
 20
11.1096
 11
109.295
 21
11.0487
  0
LINE
  8
0
 10
109.295
 20
11.0487
 11
108.598
 21
11.0122
  0
LINE
  8
0
 10
108.598
 20
11.0122
 11
107.9
 21
11
  0
LINE
  8
0
 10
107.9
 20
11
 11
107.202
 21
11.0122
  0
LINE
  8
0
 10
130.266
 20
3.87631
 11
129.845
 21
4.07907
  0
LINE
  8
0
 10
129.845
 20
4.07907
 11
129.554
 21
4.44441
  0
LINE
  8
0
 10
129.554
 20
4.44441
 11
129.45
 21
4.89999
  0
LINE
  8
0
 10
129.45
 20
4.89999
 11
129.554
 21
5.35558
  0
LINE
  8
0
 10
129.554
 20
5.35558
 11
129.845
 21
5.72092
  0
LINE
  8
0
 10
129.845
 20
5.72092
 11
130.266
 21
5.92366
  0
LINE
  8
0
 10
130.266
 20
5.92366
 11
130.734
 21
5.92366
  0
LINE
  8
0
 10
130.734
 20
5.92366
 11
131.155
 21
5.72092
  0
LINE
  8
0
 10
131.155
 20
5.72092
 11
131.446
 21
5.35558
  0
LINE
  8
0
 10
131.446
 20
5.35558
 11
131.55
 21
4.89999
  0
LINE
  8
0
 10
131.55
 20
4.89999
 11
131.446
 21
4.44441
  0
LINE
  8
0
 10
131.446
 20
4.44441
 11
131.155
 21
4.07907
  0
LINE
  8
0
 10
131.155
 20
4.07907
 11
130.734
 21
3.87631
  0
LINE
  8
0
 10
130.734
 20
3.87631
 11
130.266
 21
3.87631
  0
LINE
  8
0
 10
85.0663
 20
3.87631
 11
84.6453
 21
4.07907
  0
LINE
  8
0
 10
84.6453
 20
4.07907
 11
84.354
 21
4.44441
  0
LINE
  8
0
 10
84.354
 20
4.44441
 11
84.25
 21
4.89999
  0
LINE
  8
0
 10
84.25
 20
4.89999
 11
84.354
 21
5.35558
  0
LINE
  8
0
 10
84.354
 20
5.35558
 11
84.6453
 21
5.72092
  0
LINE
  8
0
 10
84.6453
 20
5.72092
 11
85.0663
 21
5.92366
  0
LINE
  8
0
 10
85.0663
 20
5.92366
 11
85.5336
 21
5.92366
  0
LINE
  8
0
 10
85.5336
 20
5.92366
 11
85.9547
 21
5.72092
  0
LINE
  8
0
 10
85.9547
 20
5.72092
 11
86.246
 21
5.35558
  0
LINE
  8
0
 10
86.246
 20
5.35558
 11
86.35
 21
4.89999
  0
LINE
  8
0
 10
86.35
 20
4.89999
 11
86.246
 21
4.44441
  0
LINE
  8
0
 10
86.246
 20
4.44441
 11
85.9547
 21
4.07907
  0
LINE
  8
0
 10
85.9547
 20
4.07907
 11
85.5336
 21
3.87631
  0
LINE
  8
0
 10
85.5336
 20
3.87631
 11
85.0663
 21
3.87631
  0
ENDSEC
  0
SECTION
  2
OBJECTS
  0
DICTIONARY
  0
ENDSEC
  0
EOF
