M48
; DRILL file {KiCad 8.0.7} date 2026-03-12T18:24:49-0700
; FORMAT={-:-/ absolute / metric / decimal}
; #@! TF.CreationDate,2026-03-12T18:24:49-07:00
; #@! TF.GenerationSoftware,Kicad,Pcbnew,8.0.7
; #@! TF.FileFunction,Plated,1,2,PTH
FMAT,2
METRIC
; #@! TA.AperFunction,Plated,PTH,ViaDrill
T1C0.300
; #@! TA.AperFunction,Plated,PTH,ComponentDrill
T2C0.800
; #@! TA.AperFunction,Plated,PTH,ComponentDrill
T3C1.000
; #@! TA.AperFunction,Plated,PTH,ComponentDrill
T4C1.020
; #@! TA.AperFunction,Plated,PTH,ComponentDrill
T5C1.100
; #@! TA.AperFunction,Plated,PTH,ComponentDrill
T6C1.200
%
G90
G05
T1
X121.92Y-82.55
X123.19Y-96.52
X123.19Y-102.87
X124.46Y-85.09
X128.27Y-85.09
X129.54Y-82.55
X132.08Y-96.52
X133.35Y-114.3
X138.43Y-102.87
X143.51Y-104.27
X168.91Y-110.49
T2
X143.51Y-86.36
X143.51Y-93.98
X146.05Y-86.36
X146.05Y-93.98
X148.59Y-86.36
X148.59Y-93.98
X154.94Y-78.74
X154.94Y-91.44
X157.48Y-78.74
X157.48Y-91.44
X160.02Y-78.74
X160.02Y-91.44
X162.56Y-78.74
X162.56Y-91.44
X165.1Y-78.74
X165.1Y-91.44
X167.64Y-78.74
X167.64Y-91.44
X170.18Y-78.74
X170.18Y-91.44
X172.72Y-78.74
X172.72Y-91.44
X177.8Y-83.86
X177.8Y-86.36
X177.8Y-88.94
X177.8Y-91.44
X182.88Y-77.51
X182.88Y-80.01
T3
X116.48Y-76.2
X119.02Y-76.2
X121.56Y-76.2
X124.1Y-76.2
X126.64Y-76.2
X129.18Y-76.2
X131.72Y-76.2
X146.05Y-82.55
X148.59Y-82.55
X160.02Y-73.66
X162.56Y-73.66
X165.1Y-73.66
X167.64Y-73.66
X182.88Y-123.825
X185.42Y-123.825
X187.96Y-123.825
X190.5Y-123.825
X196.85Y-79.375
X199.39Y-79.375
T4
X157.48Y-99.06
X157.48Y-116.84
X160.02Y-99.06
X160.02Y-116.84
X162.56Y-99.06
X162.56Y-116.84
X165.1Y-99.06
X165.1Y-116.84
X167.64Y-99.06
X167.64Y-116.84
X170.18Y-99.06
X170.18Y-116.84
X172.72Y-99.06
X172.72Y-116.84
X175.26Y-99.06
X175.26Y-116.84
X177.8Y-99.06
X177.8Y-116.84
X180.34Y-99.06
X180.34Y-116.84
X182.88Y-99.06
X182.88Y-116.84
X185.42Y-99.06
X185.42Y-116.84
X187.96Y-99.06
X187.96Y-116.84
X190.5Y-99.06
X190.5Y-116.84
X193.04Y-99.06
X193.04Y-116.84
X195.58Y-99.06
X195.58Y-116.84
X198.12Y-99.06
X198.12Y-116.84
X200.66Y-99.06
X200.66Y-116.84
X203.2Y-99.06
X203.2Y-116.84
X205.74Y-99.06
X205.74Y-116.84
T5
X96.52Y-88.9
X96.52Y-93.4
X96.52Y-101.6
X96.52Y-106.1
X96.52Y-114.3
X96.52Y-118.8
X103.02Y-88.9
X103.02Y-93.4
X103.02Y-101.6
X103.02Y-106.1
X103.02Y-114.3
X103.02Y-118.8
X144.78Y-114.3
X144.78Y-118.8
X151.28Y-114.3
X151.28Y-118.8
X182.88Y-86.36
X182.88Y-88.9
X182.88Y-91.44
T6
X138.43Y-99.06
X151.13Y-99.06
M30
