%TF.GenerationSoftware,KiCad,Pcbnew,8.0.7*%
%TF.CreationDate,2026-03-12T18:24:39-07:00*%
%TF.ProjectId,macro_rail_kicad,6d616372-6f5f-4726-9169-6c5f6b696361,rev?*%
%TF.SameCoordinates,Original*%
%TF.FileFunction,Other,User*%
%FSLAX46Y46*%
G04 Gerber Fmt 4.6, Leading zero omitted, Abs format (unit mm)*
G04 Created by KiCad (PCBNEW 8.0.7) date 2026-03-12 18:24:39*
%MOMM*%
%LPD*%
G01*
G04 APERTURE LIST*
%ADD10C,0.050000*%
%ADD11C,0.120000*%
G04 APERTURE END LIST*
D10*
%TO.C,C2*%
X176250000Y-82810000D02*
X176250000Y-87410000D01*
X176250000Y-87410000D02*
X179350000Y-87410000D01*
X179350000Y-82810000D02*
X176250000Y-82810000D01*
X179350000Y-87410000D02*
X179350000Y-82810000D01*
%TO.C,SW4*%
X143280000Y-112800000D02*
X143530000Y-112800000D01*
X143280000Y-113050000D02*
X143280000Y-112800000D01*
X143280000Y-120050000D02*
X143280000Y-113050000D01*
X143280000Y-120050000D02*
X143280000Y-120300000D01*
X143280000Y-120300000D02*
X143530000Y-120300000D01*
X143530000Y-112800000D02*
X152530000Y-112800000D01*
X152530000Y-112800000D02*
X152780000Y-112800000D01*
X152530000Y-120300000D02*
X143530000Y-120300000D01*
X152530000Y-120300000D02*
X152780000Y-120300000D01*
X152780000Y-112800000D02*
X152780000Y-113050000D01*
X152780000Y-113050000D02*
X152780000Y-120050000D01*
X152780000Y-120300000D02*
X152780000Y-120050000D01*
%TO.C,R1*%
X136980000Y-97010000D02*
X136980000Y-101110000D01*
X136980000Y-101110000D02*
X152580000Y-101110000D01*
X152580000Y-97010000D02*
X136980000Y-97010000D01*
X152580000Y-101110000D02*
X152580000Y-97010000D01*
%TO.C,J2*%
X158220000Y-71860000D02*
X158220000Y-75460000D01*
X158220000Y-75460000D02*
X169420000Y-75460000D01*
X169420000Y-71860000D02*
X158220000Y-71860000D01*
X169420000Y-75460000D02*
X169420000Y-71860000D01*
%TO.C,REF\u002A\u002A*%
X209760000Y-76200000D02*
G75*
G02*
X204260000Y-76200000I-2750000J0D01*
G01*
X204260000Y-76200000D02*
G75*
G02*
X209760000Y-76200000I2750000J0D01*
G01*
%TO.C,J4*%
X181080000Y-122025000D02*
X181080000Y-125625000D01*
X181080000Y-125625000D02*
X192280000Y-125625000D01*
X192280000Y-122025000D02*
X181080000Y-122025000D01*
X192280000Y-125625000D02*
X192280000Y-122025000D01*
%TO.C,C1*%
X186280000Y-78760000D02*
G75*
G02*
X179480000Y-78760000I-3400000J0D01*
G01*
X179480000Y-78760000D02*
G75*
G02*
X186280000Y-78760000I3400000J0D01*
G01*
%TO.C,SW3*%
X95020000Y-112800000D02*
X95270000Y-112800000D01*
X95020000Y-113050000D02*
X95020000Y-112800000D01*
X95020000Y-120050000D02*
X95020000Y-113050000D01*
X95020000Y-120050000D02*
X95020000Y-120300000D01*
X95020000Y-120300000D02*
X95270000Y-120300000D01*
X95270000Y-112800000D02*
X104270000Y-112800000D01*
X104270000Y-112800000D02*
X104520000Y-112800000D01*
X104270000Y-120300000D02*
X95270000Y-120300000D01*
X104270000Y-120300000D02*
X104520000Y-120300000D01*
X104520000Y-112800000D02*
X104520000Y-113050000D01*
X104520000Y-113050000D02*
X104520000Y-120050000D01*
X104520000Y-120300000D02*
X104520000Y-120050000D01*
%TO.C,U3*%
X141960000Y-85280000D02*
X141960000Y-95080000D01*
X141960000Y-95080000D02*
X150110000Y-95080000D01*
X150110000Y-85280000D02*
X141960000Y-85280000D01*
X150110000Y-95080000D02*
X150110000Y-85280000D01*
%TO.C,SW5*%
X95020000Y-87400000D02*
X95270000Y-87400000D01*
X95020000Y-87650000D02*
X95020000Y-87400000D01*
X95020000Y-94650000D02*
X95020000Y-87650000D01*
X95020000Y-94650000D02*
X95020000Y-94900000D01*
X95020000Y-94900000D02*
X95270000Y-94900000D01*
X95270000Y-87400000D02*
X104270000Y-87400000D01*
X104270000Y-87400000D02*
X104520000Y-87400000D01*
X104270000Y-94900000D02*
X95270000Y-94900000D01*
X104270000Y-94900000D02*
X104520000Y-94900000D01*
X104520000Y-87400000D02*
X104520000Y-87650000D01*
X104520000Y-87650000D02*
X104520000Y-94650000D01*
X104520000Y-94900000D02*
X104520000Y-94650000D01*
%TO.C,REF\u002A\u002A*%
X100540000Y-76200000D02*
G75*
G02*
X95040000Y-76200000I-2750000J0D01*
G01*
X95040000Y-76200000D02*
G75*
G02*
X100540000Y-76200000I2750000J0D01*
G01*
%TO.C,J1*%
X195050000Y-77575000D02*
X195050000Y-81175000D01*
X195050000Y-81175000D02*
X201200000Y-81175000D01*
X201200000Y-77575000D02*
X195050000Y-77575000D01*
X201200000Y-81175000D02*
X201200000Y-77575000D01*
%TO.C,SW2*%
X95020000Y-100100000D02*
X95270000Y-100100000D01*
X95020000Y-100350000D02*
X95020000Y-100100000D01*
X95020000Y-107350000D02*
X95020000Y-100350000D01*
X95020000Y-107350000D02*
X95020000Y-107600000D01*
X95020000Y-107600000D02*
X95270000Y-107600000D01*
X95270000Y-100100000D02*
X104270000Y-100100000D01*
X104270000Y-100100000D02*
X104520000Y-100100000D01*
X104270000Y-107600000D02*
X95270000Y-107600000D01*
X104270000Y-107600000D02*
X104520000Y-107600000D01*
X104520000Y-100100000D02*
X104520000Y-100350000D01*
X104520000Y-100350000D02*
X104520000Y-107350000D01*
X104520000Y-107600000D02*
X104520000Y-107350000D01*
%TO.C,J3*%
X114680000Y-74500000D02*
X114680000Y-78000000D01*
X133480000Y-74500000D02*
X114680000Y-74500000D01*
X133480000Y-78000000D02*
X114680000Y-78000000D01*
X133480000Y-78000000D02*
X133480000Y-74500000D01*
%TO.C,U2*%
X181370000Y-83650000D02*
X181370000Y-94150000D01*
X181370000Y-94150000D02*
X186280000Y-94150000D01*
X186280000Y-83650000D02*
X181370000Y-83650000D01*
X186280000Y-94150000D02*
X186280000Y-83650000D01*
D11*
%TO.C,U1*%
X155610000Y-96950000D02*
X207610000Y-96950000D01*
X155610000Y-118950000D02*
X155610000Y-96950000D01*
X207610000Y-96950000D02*
X207610000Y-118950000D01*
X207610000Y-118950000D02*
X155610000Y-118950000D01*
D10*
%TO.C,J5*%
X144240000Y-80750000D02*
X144240000Y-84350000D01*
X144240000Y-84350000D02*
X150390000Y-84350000D01*
X150390000Y-80750000D02*
X144240000Y-80750000D01*
X150390000Y-84350000D02*
X150390000Y-80750000D01*
%TO.C,REF\u002A\u002A*%
X209760000Y-123190000D02*
G75*
G02*
X204260000Y-123190000I-2750000J0D01*
G01*
X204260000Y-123190000D02*
G75*
G02*
X209760000Y-123190000I2750000J0D01*
G01*
%TO.C,A1*%
X153420000Y-92950000D02*
X153420000Y-77210000D01*
X153420000Y-92950000D02*
X174240000Y-92950000D01*
X174240000Y-77210000D02*
X153420000Y-77210000D01*
X174240000Y-77210000D02*
X174240000Y-92950000D01*
%TO.C,C3*%
X176250000Y-87890000D02*
X176250000Y-92490000D01*
X176250000Y-92490000D02*
X179350000Y-92490000D01*
X179350000Y-87890000D02*
X176250000Y-87890000D01*
X179350000Y-92490000D02*
X179350000Y-87890000D01*
%TD*%
M02*
