%TF.GenerationSoftware,KiCad,Pcbnew,8.0.7*%
%TF.CreationDate,2026-03-12T18:24:39-07:00*%
%TF.ProjectId,macro_rail_kicad,6d616372-6f5f-4726-9169-6c5f6b696361,rev?*%
%TF.SameCoordinates,Original*%
%TF.FileFunction,AssemblyDrawing,Top*%
%FSLAX46Y46*%
G04 Gerber Fmt 4.6, Leading zero omitted, Abs format (unit mm)*
G04 Created by KiCad (PCBNEW 8.0.7) date 2026-03-12 18:24:39*
%MOMM*%
%LPD*%
G01*
G04 APERTURE LIST*
%ADD10C,0.150000*%
%ADD11C,0.114000*%
%ADD12C,0.100000*%
%ADD13C,0.120000*%
G04 APERTURE END LIST*
D10*
X175704819Y-85752857D02*
X175704819Y-86324285D01*
X175704819Y-86038571D02*
X174704819Y-86038571D01*
X174704819Y-86038571D02*
X174847676Y-86133809D01*
X174847676Y-86133809D02*
X174942914Y-86229047D01*
X174942914Y-86229047D02*
X174990533Y-86324285D01*
X174704819Y-85133809D02*
X174704819Y-85038571D01*
X174704819Y-85038571D02*
X174752438Y-84943333D01*
X174752438Y-84943333D02*
X174800057Y-84895714D01*
X174800057Y-84895714D02*
X174895295Y-84848095D01*
X174895295Y-84848095D02*
X175085771Y-84800476D01*
X175085771Y-84800476D02*
X175323866Y-84800476D01*
X175323866Y-84800476D02*
X175514342Y-84848095D01*
X175514342Y-84848095D02*
X175609580Y-84895714D01*
X175609580Y-84895714D02*
X175657200Y-84943333D01*
X175657200Y-84943333D02*
X175704819Y-85038571D01*
X175704819Y-85038571D02*
X175704819Y-85133809D01*
X175704819Y-85133809D02*
X175657200Y-85229047D01*
X175657200Y-85229047D02*
X175609580Y-85276666D01*
X175609580Y-85276666D02*
X175514342Y-85324285D01*
X175514342Y-85324285D02*
X175323866Y-85371904D01*
X175323866Y-85371904D02*
X175085771Y-85371904D01*
X175085771Y-85371904D02*
X174895295Y-85324285D01*
X174895295Y-85324285D02*
X174800057Y-85276666D01*
X174800057Y-85276666D02*
X174752438Y-85229047D01*
X174752438Y-85229047D02*
X174704819Y-85133809D01*
X175038152Y-83943333D02*
X175704819Y-83943333D01*
X175038152Y-84371904D02*
X175561961Y-84371904D01*
X175561961Y-84371904D02*
X175657200Y-84324285D01*
X175657200Y-84324285D02*
X175704819Y-84229047D01*
X175704819Y-84229047D02*
X175704819Y-84086190D01*
X175704819Y-84086190D02*
X175657200Y-83990952D01*
X175657200Y-83990952D02*
X175609580Y-83943333D01*
D11*
X178073281Y-85236666D02*
X178109472Y-85272857D01*
X178109472Y-85272857D02*
X178145662Y-85381428D01*
X178145662Y-85381428D02*
X178145662Y-85453809D01*
X178145662Y-85453809D02*
X178109472Y-85562381D01*
X178109472Y-85562381D02*
X178037091Y-85634762D01*
X178037091Y-85634762D02*
X177964710Y-85670952D01*
X177964710Y-85670952D02*
X177819948Y-85707143D01*
X177819948Y-85707143D02*
X177711376Y-85707143D01*
X177711376Y-85707143D02*
X177566614Y-85670952D01*
X177566614Y-85670952D02*
X177494233Y-85634762D01*
X177494233Y-85634762D02*
X177421852Y-85562381D01*
X177421852Y-85562381D02*
X177385662Y-85453809D01*
X177385662Y-85453809D02*
X177385662Y-85381428D01*
X177385662Y-85381428D02*
X177421852Y-85272857D01*
X177421852Y-85272857D02*
X177458043Y-85236666D01*
X177458043Y-84947143D02*
X177421852Y-84910952D01*
X177421852Y-84910952D02*
X177385662Y-84838571D01*
X177385662Y-84838571D02*
X177385662Y-84657619D01*
X177385662Y-84657619D02*
X177421852Y-84585238D01*
X177421852Y-84585238D02*
X177458043Y-84549047D01*
X177458043Y-84549047D02*
X177530424Y-84512857D01*
X177530424Y-84512857D02*
X177602805Y-84512857D01*
X177602805Y-84512857D02*
X177711376Y-84549047D01*
X177711376Y-84549047D02*
X178145662Y-84983333D01*
X178145662Y-84983333D02*
X178145662Y-84512857D01*
D10*
X146934762Y-121454819D02*
X146934762Y-120454819D01*
X146934762Y-120454819D02*
X147506190Y-121454819D01*
X147506190Y-121454819D02*
X147506190Y-120454819D01*
X147982381Y-120931009D02*
X148315714Y-120931009D01*
X148458571Y-121454819D02*
X147982381Y-121454819D01*
X147982381Y-121454819D02*
X147982381Y-120454819D01*
X147982381Y-120454819D02*
X148458571Y-120454819D01*
X148791905Y-120454819D02*
X149458571Y-121454819D01*
X149458571Y-120454819D02*
X148791905Y-121454819D01*
X149696667Y-120454819D02*
X150268095Y-120454819D01*
X149982381Y-121454819D02*
X149982381Y-120454819D01*
X146696667Y-116957200D02*
X146839524Y-117004819D01*
X146839524Y-117004819D02*
X147077619Y-117004819D01*
X147077619Y-117004819D02*
X147172857Y-116957200D01*
X147172857Y-116957200D02*
X147220476Y-116909580D01*
X147220476Y-116909580D02*
X147268095Y-116814342D01*
X147268095Y-116814342D02*
X147268095Y-116719104D01*
X147268095Y-116719104D02*
X147220476Y-116623866D01*
X147220476Y-116623866D02*
X147172857Y-116576247D01*
X147172857Y-116576247D02*
X147077619Y-116528628D01*
X147077619Y-116528628D02*
X146887143Y-116481009D01*
X146887143Y-116481009D02*
X146791905Y-116433390D01*
X146791905Y-116433390D02*
X146744286Y-116385771D01*
X146744286Y-116385771D02*
X146696667Y-116290533D01*
X146696667Y-116290533D02*
X146696667Y-116195295D01*
X146696667Y-116195295D02*
X146744286Y-116100057D01*
X146744286Y-116100057D02*
X146791905Y-116052438D01*
X146791905Y-116052438D02*
X146887143Y-116004819D01*
X146887143Y-116004819D02*
X147125238Y-116004819D01*
X147125238Y-116004819D02*
X147268095Y-116052438D01*
X147601429Y-116004819D02*
X147839524Y-117004819D01*
X147839524Y-117004819D02*
X148030000Y-116290533D01*
X148030000Y-116290533D02*
X148220476Y-117004819D01*
X148220476Y-117004819D02*
X148458572Y-116004819D01*
X149268095Y-116338152D02*
X149268095Y-117004819D01*
X149030000Y-115957200D02*
X148791905Y-116671485D01*
X148791905Y-116671485D02*
X149410952Y-116671485D01*
X144113333Y-96594819D02*
X143541905Y-96594819D01*
X143827619Y-96594819D02*
X143827619Y-95594819D01*
X143827619Y-95594819D02*
X143732381Y-95737676D01*
X143732381Y-95737676D02*
X143637143Y-95832914D01*
X143637143Y-95832914D02*
X143541905Y-95880533D01*
X144732381Y-95594819D02*
X144827619Y-95594819D01*
X144827619Y-95594819D02*
X144922857Y-95642438D01*
X144922857Y-95642438D02*
X144970476Y-95690057D01*
X144970476Y-95690057D02*
X145018095Y-95785295D01*
X145018095Y-95785295D02*
X145065714Y-95975771D01*
X145065714Y-95975771D02*
X145065714Y-96213866D01*
X145065714Y-96213866D02*
X145018095Y-96404342D01*
X145018095Y-96404342D02*
X144970476Y-96499580D01*
X144970476Y-96499580D02*
X144922857Y-96547200D01*
X144922857Y-96547200D02*
X144827619Y-96594819D01*
X144827619Y-96594819D02*
X144732381Y-96594819D01*
X144732381Y-96594819D02*
X144637143Y-96547200D01*
X144637143Y-96547200D02*
X144589524Y-96499580D01*
X144589524Y-96499580D02*
X144541905Y-96404342D01*
X144541905Y-96404342D02*
X144494286Y-96213866D01*
X144494286Y-96213866D02*
X144494286Y-95975771D01*
X144494286Y-95975771D02*
X144541905Y-95785295D01*
X144541905Y-95785295D02*
X144589524Y-95690057D01*
X144589524Y-95690057D02*
X144637143Y-95642438D01*
X144637143Y-95642438D02*
X144732381Y-95594819D01*
X145684762Y-95594819D02*
X145780000Y-95594819D01*
X145780000Y-95594819D02*
X145875238Y-95642438D01*
X145875238Y-95642438D02*
X145922857Y-95690057D01*
X145922857Y-95690057D02*
X145970476Y-95785295D01*
X145970476Y-95785295D02*
X146018095Y-95975771D01*
X146018095Y-95975771D02*
X146018095Y-96213866D01*
X146018095Y-96213866D02*
X145970476Y-96404342D01*
X145970476Y-96404342D02*
X145922857Y-96499580D01*
X145922857Y-96499580D02*
X145875238Y-96547200D01*
X145875238Y-96547200D02*
X145780000Y-96594819D01*
X145780000Y-96594819D02*
X145684762Y-96594819D01*
X145684762Y-96594819D02*
X145589524Y-96547200D01*
X145589524Y-96547200D02*
X145541905Y-96499580D01*
X145541905Y-96499580D02*
X145494286Y-96404342D01*
X145494286Y-96404342D02*
X145446667Y-96213866D01*
X145446667Y-96213866D02*
X145446667Y-95975771D01*
X145446667Y-95975771D02*
X145494286Y-95785295D01*
X145494286Y-95785295D02*
X145541905Y-95690057D01*
X145541905Y-95690057D02*
X145589524Y-95642438D01*
X145589524Y-95642438D02*
X145684762Y-95594819D01*
X144613333Y-99514819D02*
X144280000Y-99038628D01*
X144041905Y-99514819D02*
X144041905Y-98514819D01*
X144041905Y-98514819D02*
X144422857Y-98514819D01*
X144422857Y-98514819D02*
X144518095Y-98562438D01*
X144518095Y-98562438D02*
X144565714Y-98610057D01*
X144565714Y-98610057D02*
X144613333Y-98705295D01*
X144613333Y-98705295D02*
X144613333Y-98848152D01*
X144613333Y-98848152D02*
X144565714Y-98943390D01*
X144565714Y-98943390D02*
X144518095Y-98991009D01*
X144518095Y-98991009D02*
X144422857Y-99038628D01*
X144422857Y-99038628D02*
X144041905Y-99038628D01*
X145565714Y-99514819D02*
X144994286Y-99514819D01*
X145280000Y-99514819D02*
X145280000Y-98514819D01*
X145280000Y-98514819D02*
X145184762Y-98657676D01*
X145184762Y-98657676D02*
X145089524Y-98752914D01*
X145089524Y-98752914D02*
X144994286Y-98800533D01*
X170424819Y-75493333D02*
X169424819Y-75493333D01*
X169424819Y-75493333D02*
X170139104Y-75160000D01*
X170139104Y-75160000D02*
X169424819Y-74826667D01*
X169424819Y-74826667D02*
X170424819Y-74826667D01*
X170424819Y-74207619D02*
X170377200Y-74302857D01*
X170377200Y-74302857D02*
X170329580Y-74350476D01*
X170329580Y-74350476D02*
X170234342Y-74398095D01*
X170234342Y-74398095D02*
X169948628Y-74398095D01*
X169948628Y-74398095D02*
X169853390Y-74350476D01*
X169853390Y-74350476D02*
X169805771Y-74302857D01*
X169805771Y-74302857D02*
X169758152Y-74207619D01*
X169758152Y-74207619D02*
X169758152Y-74064762D01*
X169758152Y-74064762D02*
X169805771Y-73969524D01*
X169805771Y-73969524D02*
X169853390Y-73921905D01*
X169853390Y-73921905D02*
X169948628Y-73874286D01*
X169948628Y-73874286D02*
X170234342Y-73874286D01*
X170234342Y-73874286D02*
X170329580Y-73921905D01*
X170329580Y-73921905D02*
X170377200Y-73969524D01*
X170377200Y-73969524D02*
X170424819Y-74064762D01*
X170424819Y-74064762D02*
X170424819Y-74207619D01*
X169758152Y-73588571D02*
X169758152Y-73207619D01*
X169424819Y-73445714D02*
X170281961Y-73445714D01*
X170281961Y-73445714D02*
X170377200Y-73398095D01*
X170377200Y-73398095D02*
X170424819Y-73302857D01*
X170424819Y-73302857D02*
X170424819Y-73207619D01*
X170424819Y-72731428D02*
X170377200Y-72826666D01*
X170377200Y-72826666D02*
X170329580Y-72874285D01*
X170329580Y-72874285D02*
X170234342Y-72921904D01*
X170234342Y-72921904D02*
X169948628Y-72921904D01*
X169948628Y-72921904D02*
X169853390Y-72874285D01*
X169853390Y-72874285D02*
X169805771Y-72826666D01*
X169805771Y-72826666D02*
X169758152Y-72731428D01*
X169758152Y-72731428D02*
X169758152Y-72588571D01*
X169758152Y-72588571D02*
X169805771Y-72493333D01*
X169805771Y-72493333D02*
X169853390Y-72445714D01*
X169853390Y-72445714D02*
X169948628Y-72398095D01*
X169948628Y-72398095D02*
X170234342Y-72398095D01*
X170234342Y-72398095D02*
X170329580Y-72445714D01*
X170329580Y-72445714D02*
X170377200Y-72493333D01*
X170377200Y-72493333D02*
X170424819Y-72588571D01*
X170424819Y-72588571D02*
X170424819Y-72731428D01*
X170424819Y-71969523D02*
X169758152Y-71969523D01*
X169948628Y-71969523D02*
X169853390Y-71921904D01*
X169853390Y-71921904D02*
X169805771Y-71874285D01*
X169805771Y-71874285D02*
X169758152Y-71779047D01*
X169758152Y-71779047D02*
X169758152Y-71683809D01*
X163496666Y-73114819D02*
X163496666Y-73829104D01*
X163496666Y-73829104D02*
X163449047Y-73971961D01*
X163449047Y-73971961D02*
X163353809Y-74067200D01*
X163353809Y-74067200D02*
X163210952Y-74114819D01*
X163210952Y-74114819D02*
X163115714Y-74114819D01*
X163925238Y-73210057D02*
X163972857Y-73162438D01*
X163972857Y-73162438D02*
X164068095Y-73114819D01*
X164068095Y-73114819D02*
X164306190Y-73114819D01*
X164306190Y-73114819D02*
X164401428Y-73162438D01*
X164401428Y-73162438D02*
X164449047Y-73210057D01*
X164449047Y-73210057D02*
X164496666Y-73305295D01*
X164496666Y-73305295D02*
X164496666Y-73400533D01*
X164496666Y-73400533D02*
X164449047Y-73543390D01*
X164449047Y-73543390D02*
X163877619Y-74114819D01*
X163877619Y-74114819D02*
X164496666Y-74114819D01*
X205676666Y-76654819D02*
X205343333Y-76178628D01*
X205105238Y-76654819D02*
X205105238Y-75654819D01*
X205105238Y-75654819D02*
X205486190Y-75654819D01*
X205486190Y-75654819D02*
X205581428Y-75702438D01*
X205581428Y-75702438D02*
X205629047Y-75750057D01*
X205629047Y-75750057D02*
X205676666Y-75845295D01*
X205676666Y-75845295D02*
X205676666Y-75988152D01*
X205676666Y-75988152D02*
X205629047Y-76083390D01*
X205629047Y-76083390D02*
X205581428Y-76131009D01*
X205581428Y-76131009D02*
X205486190Y-76178628D01*
X205486190Y-76178628D02*
X205105238Y-76178628D01*
X206105238Y-76131009D02*
X206438571Y-76131009D01*
X206581428Y-76654819D02*
X206105238Y-76654819D01*
X206105238Y-76654819D02*
X206105238Y-75654819D01*
X206105238Y-75654819D02*
X206581428Y-75654819D01*
X207343333Y-76131009D02*
X207010000Y-76131009D01*
X207010000Y-76654819D02*
X207010000Y-75654819D01*
X207010000Y-75654819D02*
X207486190Y-75654819D01*
X208010000Y-75654819D02*
X208010000Y-75892914D01*
X207771905Y-75797676D02*
X208010000Y-75892914D01*
X208010000Y-75892914D02*
X208248095Y-75797676D01*
X207867143Y-76083390D02*
X208010000Y-75892914D01*
X208010000Y-75892914D02*
X208152857Y-76083390D01*
X208771905Y-75654819D02*
X208771905Y-75892914D01*
X208533810Y-75797676D02*
X208771905Y-75892914D01*
X208771905Y-75892914D02*
X209010000Y-75797676D01*
X208629048Y-76083390D02*
X208771905Y-75892914D01*
X208771905Y-75892914D02*
X208914762Y-76083390D01*
X192332438Y-125705952D02*
X192284819Y-125801190D01*
X192284819Y-125801190D02*
X192284819Y-125944047D01*
X192284819Y-125944047D02*
X192332438Y-126086904D01*
X192332438Y-126086904D02*
X192427676Y-126182142D01*
X192427676Y-126182142D02*
X192522914Y-126229761D01*
X192522914Y-126229761D02*
X192713390Y-126277380D01*
X192713390Y-126277380D02*
X192856247Y-126277380D01*
X192856247Y-126277380D02*
X193046723Y-126229761D01*
X193046723Y-126229761D02*
X193141961Y-126182142D01*
X193141961Y-126182142D02*
X193237200Y-126086904D01*
X193237200Y-126086904D02*
X193284819Y-125944047D01*
X193284819Y-125944047D02*
X193284819Y-125848809D01*
X193284819Y-125848809D02*
X193237200Y-125705952D01*
X193237200Y-125705952D02*
X193189580Y-125658333D01*
X193189580Y-125658333D02*
X192856247Y-125658333D01*
X192856247Y-125658333D02*
X192856247Y-125848809D01*
X193284819Y-125229761D02*
X192284819Y-125229761D01*
X193284819Y-124753571D02*
X192284819Y-124753571D01*
X192284819Y-124753571D02*
X192999104Y-124420238D01*
X192999104Y-124420238D02*
X192284819Y-124086905D01*
X192284819Y-124086905D02*
X193284819Y-124086905D01*
X192761009Y-123277381D02*
X192808628Y-123134524D01*
X192808628Y-123134524D02*
X192856247Y-123086905D01*
X192856247Y-123086905D02*
X192951485Y-123039286D01*
X192951485Y-123039286D02*
X193094342Y-123039286D01*
X193094342Y-123039286D02*
X193189580Y-123086905D01*
X193189580Y-123086905D02*
X193237200Y-123134524D01*
X193237200Y-123134524D02*
X193284819Y-123229762D01*
X193284819Y-123229762D02*
X193284819Y-123610714D01*
X193284819Y-123610714D02*
X192284819Y-123610714D01*
X192284819Y-123610714D02*
X192284819Y-123277381D01*
X192284819Y-123277381D02*
X192332438Y-123182143D01*
X192332438Y-123182143D02*
X192380057Y-123134524D01*
X192380057Y-123134524D02*
X192475295Y-123086905D01*
X192475295Y-123086905D02*
X192570533Y-123086905D01*
X192570533Y-123086905D02*
X192665771Y-123134524D01*
X192665771Y-123134524D02*
X192713390Y-123182143D01*
X192713390Y-123182143D02*
X192761009Y-123277381D01*
X192761009Y-123277381D02*
X192761009Y-123610714D01*
X192999104Y-122658333D02*
X192999104Y-122182143D01*
X193284819Y-122753571D02*
X192284819Y-122420238D01*
X192284819Y-122420238D02*
X193284819Y-122086905D01*
X193284819Y-121277381D02*
X193284819Y-121753571D01*
X193284819Y-121753571D02*
X192284819Y-121753571D01*
X186356666Y-123279819D02*
X186356666Y-123994104D01*
X186356666Y-123994104D02*
X186309047Y-124136961D01*
X186309047Y-124136961D02*
X186213809Y-124232200D01*
X186213809Y-124232200D02*
X186070952Y-124279819D01*
X186070952Y-124279819D02*
X185975714Y-124279819D01*
X187261428Y-123613152D02*
X187261428Y-124279819D01*
X187023333Y-123232200D02*
X186785238Y-123946485D01*
X186785238Y-123946485D02*
X187404285Y-123946485D01*
X187068152Y-79974285D02*
X187734819Y-79974285D01*
X186687200Y-80212380D02*
X187401485Y-80450475D01*
X187401485Y-80450475D02*
X187401485Y-79831428D01*
X186734819Y-79545713D02*
X186734819Y-78879047D01*
X186734819Y-78879047D02*
X187734819Y-79307618D01*
X186734819Y-78307618D02*
X186734819Y-78212380D01*
X186734819Y-78212380D02*
X186782438Y-78117142D01*
X186782438Y-78117142D02*
X186830057Y-78069523D01*
X186830057Y-78069523D02*
X186925295Y-78021904D01*
X186925295Y-78021904D02*
X187115771Y-77974285D01*
X187115771Y-77974285D02*
X187353866Y-77974285D01*
X187353866Y-77974285D02*
X187544342Y-78021904D01*
X187544342Y-78021904D02*
X187639580Y-78069523D01*
X187639580Y-78069523D02*
X187687200Y-78117142D01*
X187687200Y-78117142D02*
X187734819Y-78212380D01*
X187734819Y-78212380D02*
X187734819Y-78307618D01*
X187734819Y-78307618D02*
X187687200Y-78402856D01*
X187687200Y-78402856D02*
X187639580Y-78450475D01*
X187639580Y-78450475D02*
X187544342Y-78498094D01*
X187544342Y-78498094D02*
X187353866Y-78545713D01*
X187353866Y-78545713D02*
X187115771Y-78545713D01*
X187115771Y-78545713D02*
X186925295Y-78498094D01*
X186925295Y-78498094D02*
X186830057Y-78450475D01*
X186830057Y-78450475D02*
X186782438Y-78402856D01*
X186782438Y-78402856D02*
X186734819Y-78307618D01*
X187068152Y-77117142D02*
X187734819Y-77117142D01*
X187068152Y-77545713D02*
X187591961Y-77545713D01*
X187591961Y-77545713D02*
X187687200Y-77498094D01*
X187687200Y-77498094D02*
X187734819Y-77402856D01*
X187734819Y-77402856D02*
X187734819Y-77259999D01*
X187734819Y-77259999D02*
X187687200Y-77164761D01*
X187687200Y-77164761D02*
X187639580Y-77117142D01*
X183239580Y-78926666D02*
X183287200Y-78974285D01*
X183287200Y-78974285D02*
X183334819Y-79117142D01*
X183334819Y-79117142D02*
X183334819Y-79212380D01*
X183334819Y-79212380D02*
X183287200Y-79355237D01*
X183287200Y-79355237D02*
X183191961Y-79450475D01*
X183191961Y-79450475D02*
X183096723Y-79498094D01*
X183096723Y-79498094D02*
X182906247Y-79545713D01*
X182906247Y-79545713D02*
X182763390Y-79545713D01*
X182763390Y-79545713D02*
X182572914Y-79498094D01*
X182572914Y-79498094D02*
X182477676Y-79450475D01*
X182477676Y-79450475D02*
X182382438Y-79355237D01*
X182382438Y-79355237D02*
X182334819Y-79212380D01*
X182334819Y-79212380D02*
X182334819Y-79117142D01*
X182334819Y-79117142D02*
X182382438Y-78974285D01*
X182382438Y-78974285D02*
X182430057Y-78926666D01*
X183334819Y-77974285D02*
X183334819Y-78545713D01*
X183334819Y-78259999D02*
X182334819Y-78259999D01*
X182334819Y-78259999D02*
X182477676Y-78355237D01*
X182477676Y-78355237D02*
X182572914Y-78450475D01*
X182572914Y-78450475D02*
X182620533Y-78545713D01*
X96865238Y-121454819D02*
X96865238Y-120454819D01*
X96865238Y-120454819D02*
X97246190Y-120454819D01*
X97246190Y-120454819D02*
X97341428Y-120502438D01*
X97341428Y-120502438D02*
X97389047Y-120550057D01*
X97389047Y-120550057D02*
X97436666Y-120645295D01*
X97436666Y-120645295D02*
X97436666Y-120788152D01*
X97436666Y-120788152D02*
X97389047Y-120883390D01*
X97389047Y-120883390D02*
X97341428Y-120931009D01*
X97341428Y-120931009D02*
X97246190Y-120978628D01*
X97246190Y-120978628D02*
X96865238Y-120978628D01*
X98436666Y-121454819D02*
X98103333Y-120978628D01*
X97865238Y-121454819D02*
X97865238Y-120454819D01*
X97865238Y-120454819D02*
X98246190Y-120454819D01*
X98246190Y-120454819D02*
X98341428Y-120502438D01*
X98341428Y-120502438D02*
X98389047Y-120550057D01*
X98389047Y-120550057D02*
X98436666Y-120645295D01*
X98436666Y-120645295D02*
X98436666Y-120788152D01*
X98436666Y-120788152D02*
X98389047Y-120883390D01*
X98389047Y-120883390D02*
X98341428Y-120931009D01*
X98341428Y-120931009D02*
X98246190Y-120978628D01*
X98246190Y-120978628D02*
X97865238Y-120978628D01*
X98865238Y-120931009D02*
X99198571Y-120931009D01*
X99341428Y-121454819D02*
X98865238Y-121454819D01*
X98865238Y-121454819D02*
X98865238Y-120454819D01*
X98865238Y-120454819D02*
X99341428Y-120454819D01*
X99627143Y-120454819D02*
X99960476Y-121454819D01*
X99960476Y-121454819D02*
X100293809Y-120454819D01*
X100627143Y-121454819D02*
X100627143Y-120454819D01*
X101293809Y-120454819D02*
X101484285Y-120454819D01*
X101484285Y-120454819D02*
X101579523Y-120502438D01*
X101579523Y-120502438D02*
X101674761Y-120597676D01*
X101674761Y-120597676D02*
X101722380Y-120788152D01*
X101722380Y-120788152D02*
X101722380Y-121121485D01*
X101722380Y-121121485D02*
X101674761Y-121311961D01*
X101674761Y-121311961D02*
X101579523Y-121407200D01*
X101579523Y-121407200D02*
X101484285Y-121454819D01*
X101484285Y-121454819D02*
X101293809Y-121454819D01*
X101293809Y-121454819D02*
X101198571Y-121407200D01*
X101198571Y-121407200D02*
X101103333Y-121311961D01*
X101103333Y-121311961D02*
X101055714Y-121121485D01*
X101055714Y-121121485D02*
X101055714Y-120788152D01*
X101055714Y-120788152D02*
X101103333Y-120597676D01*
X101103333Y-120597676D02*
X101198571Y-120502438D01*
X101198571Y-120502438D02*
X101293809Y-120454819D01*
X102150952Y-120454819D02*
X102150952Y-121264342D01*
X102150952Y-121264342D02*
X102198571Y-121359580D01*
X102198571Y-121359580D02*
X102246190Y-121407200D01*
X102246190Y-121407200D02*
X102341428Y-121454819D01*
X102341428Y-121454819D02*
X102531904Y-121454819D01*
X102531904Y-121454819D02*
X102627142Y-121407200D01*
X102627142Y-121407200D02*
X102674761Y-121359580D01*
X102674761Y-121359580D02*
X102722380Y-121264342D01*
X102722380Y-121264342D02*
X102722380Y-120454819D01*
X103150952Y-121407200D02*
X103293809Y-121454819D01*
X103293809Y-121454819D02*
X103531904Y-121454819D01*
X103531904Y-121454819D02*
X103627142Y-121407200D01*
X103627142Y-121407200D02*
X103674761Y-121359580D01*
X103674761Y-121359580D02*
X103722380Y-121264342D01*
X103722380Y-121264342D02*
X103722380Y-121169104D01*
X103722380Y-121169104D02*
X103674761Y-121073866D01*
X103674761Y-121073866D02*
X103627142Y-121026247D01*
X103627142Y-121026247D02*
X103531904Y-120978628D01*
X103531904Y-120978628D02*
X103341428Y-120931009D01*
X103341428Y-120931009D02*
X103246190Y-120883390D01*
X103246190Y-120883390D02*
X103198571Y-120835771D01*
X103198571Y-120835771D02*
X103150952Y-120740533D01*
X103150952Y-120740533D02*
X103150952Y-120645295D01*
X103150952Y-120645295D02*
X103198571Y-120550057D01*
X103198571Y-120550057D02*
X103246190Y-120502438D01*
X103246190Y-120502438D02*
X103341428Y-120454819D01*
X103341428Y-120454819D02*
X103579523Y-120454819D01*
X103579523Y-120454819D02*
X103722380Y-120502438D01*
X98436667Y-116957200D02*
X98579524Y-117004819D01*
X98579524Y-117004819D02*
X98817619Y-117004819D01*
X98817619Y-117004819D02*
X98912857Y-116957200D01*
X98912857Y-116957200D02*
X98960476Y-116909580D01*
X98960476Y-116909580D02*
X99008095Y-116814342D01*
X99008095Y-116814342D02*
X99008095Y-116719104D01*
X99008095Y-116719104D02*
X98960476Y-116623866D01*
X98960476Y-116623866D02*
X98912857Y-116576247D01*
X98912857Y-116576247D02*
X98817619Y-116528628D01*
X98817619Y-116528628D02*
X98627143Y-116481009D01*
X98627143Y-116481009D02*
X98531905Y-116433390D01*
X98531905Y-116433390D02*
X98484286Y-116385771D01*
X98484286Y-116385771D02*
X98436667Y-116290533D01*
X98436667Y-116290533D02*
X98436667Y-116195295D01*
X98436667Y-116195295D02*
X98484286Y-116100057D01*
X98484286Y-116100057D02*
X98531905Y-116052438D01*
X98531905Y-116052438D02*
X98627143Y-116004819D01*
X98627143Y-116004819D02*
X98865238Y-116004819D01*
X98865238Y-116004819D02*
X99008095Y-116052438D01*
X99341429Y-116004819D02*
X99579524Y-117004819D01*
X99579524Y-117004819D02*
X99770000Y-116290533D01*
X99770000Y-116290533D02*
X99960476Y-117004819D01*
X99960476Y-117004819D02*
X100198572Y-116004819D01*
X100484286Y-116004819D02*
X101103333Y-116004819D01*
X101103333Y-116004819D02*
X100770000Y-116385771D01*
X100770000Y-116385771D02*
X100912857Y-116385771D01*
X100912857Y-116385771D02*
X101008095Y-116433390D01*
X101008095Y-116433390D02*
X101055714Y-116481009D01*
X101055714Y-116481009D02*
X101103333Y-116576247D01*
X101103333Y-116576247D02*
X101103333Y-116814342D01*
X101103333Y-116814342D02*
X101055714Y-116909580D01*
X101055714Y-116909580D02*
X101008095Y-116957200D01*
X101008095Y-116957200D02*
X100912857Y-117004819D01*
X100912857Y-117004819D02*
X100627143Y-117004819D01*
X100627143Y-117004819D02*
X100531905Y-116957200D01*
X100531905Y-116957200D02*
X100484286Y-116909580D01*
X150708152Y-91455714D02*
X151374819Y-91455714D01*
X150327200Y-91693809D02*
X151041485Y-91931904D01*
X151041485Y-91931904D02*
X151041485Y-91312857D01*
X151374819Y-90931904D02*
X150374819Y-90931904D01*
X150374819Y-90931904D02*
X151374819Y-90360476D01*
X151374819Y-90360476D02*
X150374819Y-90360476D01*
X150470057Y-89931904D02*
X150422438Y-89884285D01*
X150422438Y-89884285D02*
X150374819Y-89789047D01*
X150374819Y-89789047D02*
X150374819Y-89550952D01*
X150374819Y-89550952D02*
X150422438Y-89455714D01*
X150422438Y-89455714D02*
X150470057Y-89408095D01*
X150470057Y-89408095D02*
X150565295Y-89360476D01*
X150565295Y-89360476D02*
X150660533Y-89360476D01*
X150660533Y-89360476D02*
X150803390Y-89408095D01*
X150803390Y-89408095D02*
X151374819Y-89979523D01*
X151374819Y-89979523D02*
X151374819Y-89360476D01*
X150374819Y-88455714D02*
X150374819Y-88931904D01*
X150374819Y-88931904D02*
X150851009Y-88979523D01*
X150851009Y-88979523D02*
X150803390Y-88931904D01*
X150803390Y-88931904D02*
X150755771Y-88836666D01*
X150755771Y-88836666D02*
X150755771Y-88598571D01*
X150755771Y-88598571D02*
X150803390Y-88503333D01*
X150803390Y-88503333D02*
X150851009Y-88455714D01*
X150851009Y-88455714D02*
X150946247Y-88408095D01*
X150946247Y-88408095D02*
X151184342Y-88408095D01*
X151184342Y-88408095D02*
X151279580Y-88455714D01*
X151279580Y-88455714D02*
X151327200Y-88503333D01*
X151327200Y-88503333D02*
X151374819Y-88598571D01*
X151374819Y-88598571D02*
X151374819Y-88836666D01*
X151374819Y-88836666D02*
X151327200Y-88931904D01*
X151327200Y-88931904D02*
X151279580Y-88979523D01*
X145504819Y-90931904D02*
X146314342Y-90931904D01*
X146314342Y-90931904D02*
X146409580Y-90884285D01*
X146409580Y-90884285D02*
X146457200Y-90836666D01*
X146457200Y-90836666D02*
X146504819Y-90741428D01*
X146504819Y-90741428D02*
X146504819Y-90550952D01*
X146504819Y-90550952D02*
X146457200Y-90455714D01*
X146457200Y-90455714D02*
X146409580Y-90408095D01*
X146409580Y-90408095D02*
X146314342Y-90360476D01*
X146314342Y-90360476D02*
X145504819Y-90360476D01*
X145504819Y-89979523D02*
X145504819Y-89360476D01*
X145504819Y-89360476D02*
X145885771Y-89693809D01*
X145885771Y-89693809D02*
X145885771Y-89550952D01*
X145885771Y-89550952D02*
X145933390Y-89455714D01*
X145933390Y-89455714D02*
X145981009Y-89408095D01*
X145981009Y-89408095D02*
X146076247Y-89360476D01*
X146076247Y-89360476D02*
X146314342Y-89360476D01*
X146314342Y-89360476D02*
X146409580Y-89408095D01*
X146409580Y-89408095D02*
X146457200Y-89455714D01*
X146457200Y-89455714D02*
X146504819Y-89550952D01*
X146504819Y-89550952D02*
X146504819Y-89836666D01*
X146504819Y-89836666D02*
X146457200Y-89931904D01*
X146457200Y-89931904D02*
X146409580Y-89979523D01*
X98817618Y-96054819D02*
X98484285Y-95578628D01*
X98246190Y-96054819D02*
X98246190Y-95054819D01*
X98246190Y-95054819D02*
X98627142Y-95054819D01*
X98627142Y-95054819D02*
X98722380Y-95102438D01*
X98722380Y-95102438D02*
X98769999Y-95150057D01*
X98769999Y-95150057D02*
X98817618Y-95245295D01*
X98817618Y-95245295D02*
X98817618Y-95388152D01*
X98817618Y-95388152D02*
X98769999Y-95483390D01*
X98769999Y-95483390D02*
X98722380Y-95531009D01*
X98722380Y-95531009D02*
X98627142Y-95578628D01*
X98627142Y-95578628D02*
X98246190Y-95578628D01*
X99246190Y-95531009D02*
X99579523Y-95531009D01*
X99722380Y-96054819D02*
X99246190Y-96054819D01*
X99246190Y-96054819D02*
X99246190Y-95054819D01*
X99246190Y-95054819D02*
X99722380Y-95054819D01*
X100103333Y-96007200D02*
X100246190Y-96054819D01*
X100246190Y-96054819D02*
X100484285Y-96054819D01*
X100484285Y-96054819D02*
X100579523Y-96007200D01*
X100579523Y-96007200D02*
X100627142Y-95959580D01*
X100627142Y-95959580D02*
X100674761Y-95864342D01*
X100674761Y-95864342D02*
X100674761Y-95769104D01*
X100674761Y-95769104D02*
X100627142Y-95673866D01*
X100627142Y-95673866D02*
X100579523Y-95626247D01*
X100579523Y-95626247D02*
X100484285Y-95578628D01*
X100484285Y-95578628D02*
X100293809Y-95531009D01*
X100293809Y-95531009D02*
X100198571Y-95483390D01*
X100198571Y-95483390D02*
X100150952Y-95435771D01*
X100150952Y-95435771D02*
X100103333Y-95340533D01*
X100103333Y-95340533D02*
X100103333Y-95245295D01*
X100103333Y-95245295D02*
X100150952Y-95150057D01*
X100150952Y-95150057D02*
X100198571Y-95102438D01*
X100198571Y-95102438D02*
X100293809Y-95054819D01*
X100293809Y-95054819D02*
X100531904Y-95054819D01*
X100531904Y-95054819D02*
X100674761Y-95102438D01*
X101103333Y-95531009D02*
X101436666Y-95531009D01*
X101579523Y-96054819D02*
X101103333Y-96054819D01*
X101103333Y-96054819D02*
X101103333Y-95054819D01*
X101103333Y-95054819D02*
X101579523Y-95054819D01*
X101865238Y-95054819D02*
X102436666Y-95054819D01*
X102150952Y-96054819D02*
X102150952Y-95054819D01*
X98436667Y-91557200D02*
X98579524Y-91604819D01*
X98579524Y-91604819D02*
X98817619Y-91604819D01*
X98817619Y-91604819D02*
X98912857Y-91557200D01*
X98912857Y-91557200D02*
X98960476Y-91509580D01*
X98960476Y-91509580D02*
X99008095Y-91414342D01*
X99008095Y-91414342D02*
X99008095Y-91319104D01*
X99008095Y-91319104D02*
X98960476Y-91223866D01*
X98960476Y-91223866D02*
X98912857Y-91176247D01*
X98912857Y-91176247D02*
X98817619Y-91128628D01*
X98817619Y-91128628D02*
X98627143Y-91081009D01*
X98627143Y-91081009D02*
X98531905Y-91033390D01*
X98531905Y-91033390D02*
X98484286Y-90985771D01*
X98484286Y-90985771D02*
X98436667Y-90890533D01*
X98436667Y-90890533D02*
X98436667Y-90795295D01*
X98436667Y-90795295D02*
X98484286Y-90700057D01*
X98484286Y-90700057D02*
X98531905Y-90652438D01*
X98531905Y-90652438D02*
X98627143Y-90604819D01*
X98627143Y-90604819D02*
X98865238Y-90604819D01*
X98865238Y-90604819D02*
X99008095Y-90652438D01*
X99341429Y-90604819D02*
X99579524Y-91604819D01*
X99579524Y-91604819D02*
X99770000Y-90890533D01*
X99770000Y-90890533D02*
X99960476Y-91604819D01*
X99960476Y-91604819D02*
X100198572Y-90604819D01*
X101055714Y-90604819D02*
X100579524Y-90604819D01*
X100579524Y-90604819D02*
X100531905Y-91081009D01*
X100531905Y-91081009D02*
X100579524Y-91033390D01*
X100579524Y-91033390D02*
X100674762Y-90985771D01*
X100674762Y-90985771D02*
X100912857Y-90985771D01*
X100912857Y-90985771D02*
X101008095Y-91033390D01*
X101008095Y-91033390D02*
X101055714Y-91081009D01*
X101055714Y-91081009D02*
X101103333Y-91176247D01*
X101103333Y-91176247D02*
X101103333Y-91414342D01*
X101103333Y-91414342D02*
X101055714Y-91509580D01*
X101055714Y-91509580D02*
X101008095Y-91557200D01*
X101008095Y-91557200D02*
X100912857Y-91604819D01*
X100912857Y-91604819D02*
X100674762Y-91604819D01*
X100674762Y-91604819D02*
X100579524Y-91557200D01*
X100579524Y-91557200D02*
X100531905Y-91509580D01*
X90099524Y-80154819D02*
X90099524Y-79154819D01*
X90099524Y-79154819D02*
X90432857Y-79869104D01*
X90432857Y-79869104D02*
X90766190Y-79154819D01*
X90766190Y-79154819D02*
X90766190Y-80154819D01*
X91385238Y-80154819D02*
X91290000Y-80107200D01*
X91290000Y-80107200D02*
X91242381Y-80059580D01*
X91242381Y-80059580D02*
X91194762Y-79964342D01*
X91194762Y-79964342D02*
X91194762Y-79678628D01*
X91194762Y-79678628D02*
X91242381Y-79583390D01*
X91242381Y-79583390D02*
X91290000Y-79535771D01*
X91290000Y-79535771D02*
X91385238Y-79488152D01*
X91385238Y-79488152D02*
X91528095Y-79488152D01*
X91528095Y-79488152D02*
X91623333Y-79535771D01*
X91623333Y-79535771D02*
X91670952Y-79583390D01*
X91670952Y-79583390D02*
X91718571Y-79678628D01*
X91718571Y-79678628D02*
X91718571Y-79964342D01*
X91718571Y-79964342D02*
X91670952Y-80059580D01*
X91670952Y-80059580D02*
X91623333Y-80107200D01*
X91623333Y-80107200D02*
X91528095Y-80154819D01*
X91528095Y-80154819D02*
X91385238Y-80154819D01*
X92575714Y-79488152D02*
X92575714Y-80154819D01*
X92147143Y-79488152D02*
X92147143Y-80011961D01*
X92147143Y-80011961D02*
X92194762Y-80107200D01*
X92194762Y-80107200D02*
X92290000Y-80154819D01*
X92290000Y-80154819D02*
X92432857Y-80154819D01*
X92432857Y-80154819D02*
X92528095Y-80107200D01*
X92528095Y-80107200D02*
X92575714Y-80059580D01*
X93051905Y-79488152D02*
X93051905Y-80154819D01*
X93051905Y-79583390D02*
X93099524Y-79535771D01*
X93099524Y-79535771D02*
X93194762Y-79488152D01*
X93194762Y-79488152D02*
X93337619Y-79488152D01*
X93337619Y-79488152D02*
X93432857Y-79535771D01*
X93432857Y-79535771D02*
X93480476Y-79631009D01*
X93480476Y-79631009D02*
X93480476Y-80154819D01*
X93813810Y-79488152D02*
X94194762Y-79488152D01*
X93956667Y-79154819D02*
X93956667Y-80011961D01*
X93956667Y-80011961D02*
X94004286Y-80107200D01*
X94004286Y-80107200D02*
X94099524Y-80154819D01*
X94099524Y-80154819D02*
X94194762Y-80154819D01*
X94528096Y-80154819D02*
X94528096Y-79488152D01*
X94528096Y-79154819D02*
X94480477Y-79202438D01*
X94480477Y-79202438D02*
X94528096Y-79250057D01*
X94528096Y-79250057D02*
X94575715Y-79202438D01*
X94575715Y-79202438D02*
X94528096Y-79154819D01*
X94528096Y-79154819D02*
X94528096Y-79250057D01*
X95004286Y-79488152D02*
X95004286Y-80154819D01*
X95004286Y-79583390D02*
X95051905Y-79535771D01*
X95051905Y-79535771D02*
X95147143Y-79488152D01*
X95147143Y-79488152D02*
X95290000Y-79488152D01*
X95290000Y-79488152D02*
X95385238Y-79535771D01*
X95385238Y-79535771D02*
X95432857Y-79631009D01*
X95432857Y-79631009D02*
X95432857Y-80154819D01*
X96337619Y-79488152D02*
X96337619Y-80297676D01*
X96337619Y-80297676D02*
X96290000Y-80392914D01*
X96290000Y-80392914D02*
X96242381Y-80440533D01*
X96242381Y-80440533D02*
X96147143Y-80488152D01*
X96147143Y-80488152D02*
X96004286Y-80488152D01*
X96004286Y-80488152D02*
X95909048Y-80440533D01*
X96337619Y-80107200D02*
X96242381Y-80154819D01*
X96242381Y-80154819D02*
X96051905Y-80154819D01*
X96051905Y-80154819D02*
X95956667Y-80107200D01*
X95956667Y-80107200D02*
X95909048Y-80059580D01*
X95909048Y-80059580D02*
X95861429Y-79964342D01*
X95861429Y-79964342D02*
X95861429Y-79678628D01*
X95861429Y-79678628D02*
X95909048Y-79583390D01*
X95909048Y-79583390D02*
X95956667Y-79535771D01*
X95956667Y-79535771D02*
X96051905Y-79488152D01*
X96051905Y-79488152D02*
X96242381Y-79488152D01*
X96242381Y-79488152D02*
X96337619Y-79535771D01*
X96813810Y-80154819D02*
X96813810Y-79154819D01*
X96813810Y-79631009D02*
X97385238Y-79631009D01*
X97385238Y-80154819D02*
X97385238Y-79154819D01*
X98004286Y-80154819D02*
X97909048Y-80107200D01*
X97909048Y-80107200D02*
X97861429Y-80059580D01*
X97861429Y-80059580D02*
X97813810Y-79964342D01*
X97813810Y-79964342D02*
X97813810Y-79678628D01*
X97813810Y-79678628D02*
X97861429Y-79583390D01*
X97861429Y-79583390D02*
X97909048Y-79535771D01*
X97909048Y-79535771D02*
X98004286Y-79488152D01*
X98004286Y-79488152D02*
X98147143Y-79488152D01*
X98147143Y-79488152D02*
X98242381Y-79535771D01*
X98242381Y-79535771D02*
X98290000Y-79583390D01*
X98290000Y-79583390D02*
X98337619Y-79678628D01*
X98337619Y-79678628D02*
X98337619Y-79964342D01*
X98337619Y-79964342D02*
X98290000Y-80059580D01*
X98290000Y-80059580D02*
X98242381Y-80107200D01*
X98242381Y-80107200D02*
X98147143Y-80154819D01*
X98147143Y-80154819D02*
X98004286Y-80154819D01*
X98909048Y-80154819D02*
X98813810Y-80107200D01*
X98813810Y-80107200D02*
X98766191Y-80011961D01*
X98766191Y-80011961D02*
X98766191Y-79154819D01*
X99670953Y-80107200D02*
X99575715Y-80154819D01*
X99575715Y-80154819D02*
X99385239Y-80154819D01*
X99385239Y-80154819D02*
X99290001Y-80107200D01*
X99290001Y-80107200D02*
X99242382Y-80011961D01*
X99242382Y-80011961D02*
X99242382Y-79631009D01*
X99242382Y-79631009D02*
X99290001Y-79535771D01*
X99290001Y-79535771D02*
X99385239Y-79488152D01*
X99385239Y-79488152D02*
X99575715Y-79488152D01*
X99575715Y-79488152D02*
X99670953Y-79535771D01*
X99670953Y-79535771D02*
X99718572Y-79631009D01*
X99718572Y-79631009D02*
X99718572Y-79726247D01*
X99718572Y-79726247D02*
X99242382Y-79821485D01*
X99909049Y-80250057D02*
X100670953Y-80250057D01*
X100861430Y-79250057D02*
X100909049Y-79202438D01*
X100909049Y-79202438D02*
X101004287Y-79154819D01*
X101004287Y-79154819D02*
X101242382Y-79154819D01*
X101242382Y-79154819D02*
X101337620Y-79202438D01*
X101337620Y-79202438D02*
X101385239Y-79250057D01*
X101385239Y-79250057D02*
X101432858Y-79345295D01*
X101432858Y-79345295D02*
X101432858Y-79440533D01*
X101432858Y-79440533D02*
X101385239Y-79583390D01*
X101385239Y-79583390D02*
X100813811Y-80154819D01*
X100813811Y-80154819D02*
X101432858Y-80154819D01*
X101861430Y-80059580D02*
X101909049Y-80107200D01*
X101909049Y-80107200D02*
X101861430Y-80154819D01*
X101861430Y-80154819D02*
X101813811Y-80107200D01*
X101813811Y-80107200D02*
X101861430Y-80059580D01*
X101861430Y-80059580D02*
X101861430Y-80154819D01*
X102813810Y-79154819D02*
X102337620Y-79154819D01*
X102337620Y-79154819D02*
X102290001Y-79631009D01*
X102290001Y-79631009D02*
X102337620Y-79583390D01*
X102337620Y-79583390D02*
X102432858Y-79535771D01*
X102432858Y-79535771D02*
X102670953Y-79535771D01*
X102670953Y-79535771D02*
X102766191Y-79583390D01*
X102766191Y-79583390D02*
X102813810Y-79631009D01*
X102813810Y-79631009D02*
X102861429Y-79726247D01*
X102861429Y-79726247D02*
X102861429Y-79964342D01*
X102861429Y-79964342D02*
X102813810Y-80059580D01*
X102813810Y-80059580D02*
X102766191Y-80107200D01*
X102766191Y-80107200D02*
X102670953Y-80154819D01*
X102670953Y-80154819D02*
X102432858Y-80154819D01*
X102432858Y-80154819D02*
X102337620Y-80107200D01*
X102337620Y-80107200D02*
X102290001Y-80059580D01*
X103290001Y-80154819D02*
X103290001Y-79488152D01*
X103290001Y-79583390D02*
X103337620Y-79535771D01*
X103337620Y-79535771D02*
X103432858Y-79488152D01*
X103432858Y-79488152D02*
X103575715Y-79488152D01*
X103575715Y-79488152D02*
X103670953Y-79535771D01*
X103670953Y-79535771D02*
X103718572Y-79631009D01*
X103718572Y-79631009D02*
X103718572Y-80154819D01*
X103718572Y-79631009D02*
X103766191Y-79535771D01*
X103766191Y-79535771D02*
X103861429Y-79488152D01*
X103861429Y-79488152D02*
X104004286Y-79488152D01*
X104004286Y-79488152D02*
X104099525Y-79535771D01*
X104099525Y-79535771D02*
X104147144Y-79631009D01*
X104147144Y-79631009D02*
X104147144Y-80154819D01*
X104623334Y-80154819D02*
X104623334Y-79488152D01*
X104623334Y-79583390D02*
X104670953Y-79535771D01*
X104670953Y-79535771D02*
X104766191Y-79488152D01*
X104766191Y-79488152D02*
X104909048Y-79488152D01*
X104909048Y-79488152D02*
X105004286Y-79535771D01*
X105004286Y-79535771D02*
X105051905Y-79631009D01*
X105051905Y-79631009D02*
X105051905Y-80154819D01*
X105051905Y-79631009D02*
X105099524Y-79535771D01*
X105099524Y-79535771D02*
X105194762Y-79488152D01*
X105194762Y-79488152D02*
X105337619Y-79488152D01*
X105337619Y-79488152D02*
X105432858Y-79535771D01*
X105432858Y-79535771D02*
X105480477Y-79631009D01*
X105480477Y-79631009D02*
X105480477Y-80154819D01*
X96456666Y-76654819D02*
X96123333Y-76178628D01*
X95885238Y-76654819D02*
X95885238Y-75654819D01*
X95885238Y-75654819D02*
X96266190Y-75654819D01*
X96266190Y-75654819D02*
X96361428Y-75702438D01*
X96361428Y-75702438D02*
X96409047Y-75750057D01*
X96409047Y-75750057D02*
X96456666Y-75845295D01*
X96456666Y-75845295D02*
X96456666Y-75988152D01*
X96456666Y-75988152D02*
X96409047Y-76083390D01*
X96409047Y-76083390D02*
X96361428Y-76131009D01*
X96361428Y-76131009D02*
X96266190Y-76178628D01*
X96266190Y-76178628D02*
X95885238Y-76178628D01*
X96885238Y-76131009D02*
X97218571Y-76131009D01*
X97361428Y-76654819D02*
X96885238Y-76654819D01*
X96885238Y-76654819D02*
X96885238Y-75654819D01*
X96885238Y-75654819D02*
X97361428Y-75654819D01*
X98123333Y-76131009D02*
X97790000Y-76131009D01*
X97790000Y-76654819D02*
X97790000Y-75654819D01*
X97790000Y-75654819D02*
X98266190Y-75654819D01*
X98790000Y-75654819D02*
X98790000Y-75892914D01*
X98551905Y-75797676D02*
X98790000Y-75892914D01*
X98790000Y-75892914D02*
X99028095Y-75797676D01*
X98647143Y-76083390D02*
X98790000Y-75892914D01*
X98790000Y-75892914D02*
X98932857Y-76083390D01*
X99551905Y-75654819D02*
X99551905Y-75892914D01*
X99313810Y-75797676D02*
X99551905Y-75892914D01*
X99551905Y-75892914D02*
X99790000Y-75797676D01*
X99409048Y-76083390D02*
X99551905Y-75892914D01*
X99551905Y-75892914D02*
X99694762Y-76083390D01*
X201651009Y-81446429D02*
X201698628Y-81303572D01*
X201698628Y-81303572D02*
X201746247Y-81255953D01*
X201746247Y-81255953D02*
X201841485Y-81208334D01*
X201841485Y-81208334D02*
X201984342Y-81208334D01*
X201984342Y-81208334D02*
X202079580Y-81255953D01*
X202079580Y-81255953D02*
X202127200Y-81303572D01*
X202127200Y-81303572D02*
X202174819Y-81398810D01*
X202174819Y-81398810D02*
X202174819Y-81779762D01*
X202174819Y-81779762D02*
X201174819Y-81779762D01*
X201174819Y-81779762D02*
X201174819Y-81446429D01*
X201174819Y-81446429D02*
X201222438Y-81351191D01*
X201222438Y-81351191D02*
X201270057Y-81303572D01*
X201270057Y-81303572D02*
X201365295Y-81255953D01*
X201365295Y-81255953D02*
X201460533Y-81255953D01*
X201460533Y-81255953D02*
X201555771Y-81303572D01*
X201555771Y-81303572D02*
X201603390Y-81351191D01*
X201603390Y-81351191D02*
X201651009Y-81446429D01*
X201651009Y-81446429D02*
X201651009Y-81779762D01*
X202174819Y-80351191D02*
X201651009Y-80351191D01*
X201651009Y-80351191D02*
X201555771Y-80398810D01*
X201555771Y-80398810D02*
X201508152Y-80494048D01*
X201508152Y-80494048D02*
X201508152Y-80684524D01*
X201508152Y-80684524D02*
X201555771Y-80779762D01*
X202127200Y-80351191D02*
X202174819Y-80446429D01*
X202174819Y-80446429D02*
X202174819Y-80684524D01*
X202174819Y-80684524D02*
X202127200Y-80779762D01*
X202127200Y-80779762D02*
X202031961Y-80827381D01*
X202031961Y-80827381D02*
X201936723Y-80827381D01*
X201936723Y-80827381D02*
X201841485Y-80779762D01*
X201841485Y-80779762D02*
X201793866Y-80684524D01*
X201793866Y-80684524D02*
X201793866Y-80446429D01*
X201793866Y-80446429D02*
X201746247Y-80351191D01*
X201508152Y-80017857D02*
X201508152Y-79636905D01*
X201174819Y-79875000D02*
X202031961Y-79875000D01*
X202031961Y-79875000D02*
X202127200Y-79827381D01*
X202127200Y-79827381D02*
X202174819Y-79732143D01*
X202174819Y-79732143D02*
X202174819Y-79636905D01*
X201508152Y-79446428D02*
X201508152Y-79065476D01*
X201174819Y-79303571D02*
X202031961Y-79303571D01*
X202031961Y-79303571D02*
X202127200Y-79255952D01*
X202127200Y-79255952D02*
X202174819Y-79160714D01*
X202174819Y-79160714D02*
X202174819Y-79065476D01*
X202127200Y-78351190D02*
X202174819Y-78446428D01*
X202174819Y-78446428D02*
X202174819Y-78636904D01*
X202174819Y-78636904D02*
X202127200Y-78732142D01*
X202127200Y-78732142D02*
X202031961Y-78779761D01*
X202031961Y-78779761D02*
X201651009Y-78779761D01*
X201651009Y-78779761D02*
X201555771Y-78732142D01*
X201555771Y-78732142D02*
X201508152Y-78636904D01*
X201508152Y-78636904D02*
X201508152Y-78446428D01*
X201508152Y-78446428D02*
X201555771Y-78351190D01*
X201555771Y-78351190D02*
X201651009Y-78303571D01*
X201651009Y-78303571D02*
X201746247Y-78303571D01*
X201746247Y-78303571D02*
X201841485Y-78779761D01*
X202174819Y-77874999D02*
X201508152Y-77874999D01*
X201698628Y-77874999D02*
X201603390Y-77827380D01*
X201603390Y-77827380D02*
X201555771Y-77779761D01*
X201555771Y-77779761D02*
X201508152Y-77684523D01*
X201508152Y-77684523D02*
X201508152Y-77589285D01*
X201508152Y-77351189D02*
X202174819Y-77113094D01*
X201508152Y-76874999D02*
X202174819Y-77113094D01*
X202174819Y-77113094D02*
X202412914Y-77208332D01*
X202412914Y-77208332D02*
X202460533Y-77255951D01*
X202460533Y-77255951D02*
X202508152Y-77351189D01*
X197786666Y-78829819D02*
X197786666Y-79544104D01*
X197786666Y-79544104D02*
X197739047Y-79686961D01*
X197739047Y-79686961D02*
X197643809Y-79782200D01*
X197643809Y-79782200D02*
X197500952Y-79829819D01*
X197500952Y-79829819D02*
X197405714Y-79829819D01*
X198786666Y-79829819D02*
X198215238Y-79829819D01*
X198500952Y-79829819D02*
X198500952Y-78829819D01*
X198500952Y-78829819D02*
X198405714Y-78972676D01*
X198405714Y-78972676D02*
X198310476Y-79067914D01*
X198310476Y-79067914D02*
X198215238Y-79115533D01*
X97222381Y-108707200D02*
X97365238Y-108754819D01*
X97365238Y-108754819D02*
X97603333Y-108754819D01*
X97603333Y-108754819D02*
X97698571Y-108707200D01*
X97698571Y-108707200D02*
X97746190Y-108659580D01*
X97746190Y-108659580D02*
X97793809Y-108564342D01*
X97793809Y-108564342D02*
X97793809Y-108469104D01*
X97793809Y-108469104D02*
X97746190Y-108373866D01*
X97746190Y-108373866D02*
X97698571Y-108326247D01*
X97698571Y-108326247D02*
X97603333Y-108278628D01*
X97603333Y-108278628D02*
X97412857Y-108231009D01*
X97412857Y-108231009D02*
X97317619Y-108183390D01*
X97317619Y-108183390D02*
X97270000Y-108135771D01*
X97270000Y-108135771D02*
X97222381Y-108040533D01*
X97222381Y-108040533D02*
X97222381Y-107945295D01*
X97222381Y-107945295D02*
X97270000Y-107850057D01*
X97270000Y-107850057D02*
X97317619Y-107802438D01*
X97317619Y-107802438D02*
X97412857Y-107754819D01*
X97412857Y-107754819D02*
X97650952Y-107754819D01*
X97650952Y-107754819D02*
X97793809Y-107802438D01*
X98222381Y-108754819D02*
X98222381Y-107754819D01*
X98222381Y-108231009D02*
X98793809Y-108231009D01*
X98793809Y-108754819D02*
X98793809Y-107754819D01*
X99270000Y-107754819D02*
X99270000Y-108564342D01*
X99270000Y-108564342D02*
X99317619Y-108659580D01*
X99317619Y-108659580D02*
X99365238Y-108707200D01*
X99365238Y-108707200D02*
X99460476Y-108754819D01*
X99460476Y-108754819D02*
X99650952Y-108754819D01*
X99650952Y-108754819D02*
X99746190Y-108707200D01*
X99746190Y-108707200D02*
X99793809Y-108659580D01*
X99793809Y-108659580D02*
X99841428Y-108564342D01*
X99841428Y-108564342D02*
X99841428Y-107754819D01*
X100174762Y-107754819D02*
X100746190Y-107754819D01*
X100460476Y-108754819D02*
X100460476Y-107754819D01*
X100936667Y-107754819D02*
X101508095Y-107754819D01*
X101222381Y-108754819D02*
X101222381Y-107754819D01*
X101841429Y-108231009D02*
X102174762Y-108231009D01*
X102317619Y-108754819D02*
X101841429Y-108754819D01*
X101841429Y-108754819D02*
X101841429Y-107754819D01*
X101841429Y-107754819D02*
X102317619Y-107754819D01*
X103317619Y-108754819D02*
X102984286Y-108278628D01*
X102746191Y-108754819D02*
X102746191Y-107754819D01*
X102746191Y-107754819D02*
X103127143Y-107754819D01*
X103127143Y-107754819D02*
X103222381Y-107802438D01*
X103222381Y-107802438D02*
X103270000Y-107850057D01*
X103270000Y-107850057D02*
X103317619Y-107945295D01*
X103317619Y-107945295D02*
X103317619Y-108088152D01*
X103317619Y-108088152D02*
X103270000Y-108183390D01*
X103270000Y-108183390D02*
X103222381Y-108231009D01*
X103222381Y-108231009D02*
X103127143Y-108278628D01*
X103127143Y-108278628D02*
X102746191Y-108278628D01*
X98436667Y-104257200D02*
X98579524Y-104304819D01*
X98579524Y-104304819D02*
X98817619Y-104304819D01*
X98817619Y-104304819D02*
X98912857Y-104257200D01*
X98912857Y-104257200D02*
X98960476Y-104209580D01*
X98960476Y-104209580D02*
X99008095Y-104114342D01*
X99008095Y-104114342D02*
X99008095Y-104019104D01*
X99008095Y-104019104D02*
X98960476Y-103923866D01*
X98960476Y-103923866D02*
X98912857Y-103876247D01*
X98912857Y-103876247D02*
X98817619Y-103828628D01*
X98817619Y-103828628D02*
X98627143Y-103781009D01*
X98627143Y-103781009D02*
X98531905Y-103733390D01*
X98531905Y-103733390D02*
X98484286Y-103685771D01*
X98484286Y-103685771D02*
X98436667Y-103590533D01*
X98436667Y-103590533D02*
X98436667Y-103495295D01*
X98436667Y-103495295D02*
X98484286Y-103400057D01*
X98484286Y-103400057D02*
X98531905Y-103352438D01*
X98531905Y-103352438D02*
X98627143Y-103304819D01*
X98627143Y-103304819D02*
X98865238Y-103304819D01*
X98865238Y-103304819D02*
X99008095Y-103352438D01*
X99341429Y-103304819D02*
X99579524Y-104304819D01*
X99579524Y-104304819D02*
X99770000Y-103590533D01*
X99770000Y-103590533D02*
X99960476Y-104304819D01*
X99960476Y-104304819D02*
X100198572Y-103304819D01*
X100531905Y-103400057D02*
X100579524Y-103352438D01*
X100579524Y-103352438D02*
X100674762Y-103304819D01*
X100674762Y-103304819D02*
X100912857Y-103304819D01*
X100912857Y-103304819D02*
X101008095Y-103352438D01*
X101008095Y-103352438D02*
X101055714Y-103400057D01*
X101055714Y-103400057D02*
X101103333Y-103495295D01*
X101103333Y-103495295D02*
X101103333Y-103590533D01*
X101103333Y-103590533D02*
X101055714Y-103733390D01*
X101055714Y-103733390D02*
X100484286Y-104304819D01*
X100484286Y-104304819D02*
X101103333Y-104304819D01*
X120582694Y-118006019D02*
X120011266Y-118006019D01*
X120296980Y-118006019D02*
X120296980Y-117006019D01*
X120296980Y-117006019D02*
X120201742Y-117148876D01*
X120201742Y-117148876D02*
X120106504Y-117244114D01*
X120106504Y-117244114D02*
X120011266Y-117291733D01*
X120963647Y-117101257D02*
X121011266Y-117053638D01*
X121011266Y-117053638D02*
X121106504Y-117006019D01*
X121106504Y-117006019D02*
X121344599Y-117006019D01*
X121344599Y-117006019D02*
X121439837Y-117053638D01*
X121439837Y-117053638D02*
X121487456Y-117101257D01*
X121487456Y-117101257D02*
X121535075Y-117196495D01*
X121535075Y-117196495D02*
X121535075Y-117291733D01*
X121535075Y-117291733D02*
X121487456Y-117434590D01*
X121487456Y-117434590D02*
X120916028Y-118006019D01*
X120916028Y-118006019D02*
X121535075Y-118006019D01*
X122106504Y-117434590D02*
X122011266Y-117386971D01*
X122011266Y-117386971D02*
X121963647Y-117339352D01*
X121963647Y-117339352D02*
X121916028Y-117244114D01*
X121916028Y-117244114D02*
X121916028Y-117196495D01*
X121916028Y-117196495D02*
X121963647Y-117101257D01*
X121963647Y-117101257D02*
X122011266Y-117053638D01*
X122011266Y-117053638D02*
X122106504Y-117006019D01*
X122106504Y-117006019D02*
X122296980Y-117006019D01*
X122296980Y-117006019D02*
X122392218Y-117053638D01*
X122392218Y-117053638D02*
X122439837Y-117101257D01*
X122439837Y-117101257D02*
X122487456Y-117196495D01*
X122487456Y-117196495D02*
X122487456Y-117244114D01*
X122487456Y-117244114D02*
X122439837Y-117339352D01*
X122439837Y-117339352D02*
X122392218Y-117386971D01*
X122392218Y-117386971D02*
X122296980Y-117434590D01*
X122296980Y-117434590D02*
X122106504Y-117434590D01*
X122106504Y-117434590D02*
X122011266Y-117482209D01*
X122011266Y-117482209D02*
X121963647Y-117529828D01*
X121963647Y-117529828D02*
X121916028Y-117625066D01*
X121916028Y-117625066D02*
X121916028Y-117815542D01*
X121916028Y-117815542D02*
X121963647Y-117910780D01*
X121963647Y-117910780D02*
X122011266Y-117958400D01*
X122011266Y-117958400D02*
X122106504Y-118006019D01*
X122106504Y-118006019D02*
X122296980Y-118006019D01*
X122296980Y-118006019D02*
X122392218Y-117958400D01*
X122392218Y-117958400D02*
X122439837Y-117910780D01*
X122439837Y-117910780D02*
X122487456Y-117815542D01*
X122487456Y-117815542D02*
X122487456Y-117625066D01*
X122487456Y-117625066D02*
X122439837Y-117529828D01*
X122439837Y-117529828D02*
X122392218Y-117482209D01*
X122392218Y-117482209D02*
X122296980Y-117434590D01*
X122820790Y-118006019D02*
X123344599Y-117339352D01*
X122820790Y-117339352D02*
X123344599Y-118006019D01*
X124249361Y-118006019D02*
X123677933Y-118006019D01*
X123963647Y-118006019D02*
X123963647Y-117006019D01*
X123963647Y-117006019D02*
X123868409Y-117148876D01*
X123868409Y-117148876D02*
X123773171Y-117244114D01*
X123773171Y-117244114D02*
X123677933Y-117291733D01*
X124630314Y-117101257D02*
X124677933Y-117053638D01*
X124677933Y-117053638D02*
X124773171Y-117006019D01*
X124773171Y-117006019D02*
X125011266Y-117006019D01*
X125011266Y-117006019D02*
X125106504Y-117053638D01*
X125106504Y-117053638D02*
X125154123Y-117101257D01*
X125154123Y-117101257D02*
X125201742Y-117196495D01*
X125201742Y-117196495D02*
X125201742Y-117291733D01*
X125201742Y-117291733D02*
X125154123Y-117434590D01*
X125154123Y-117434590D02*
X124582695Y-118006019D01*
X124582695Y-118006019D02*
X125201742Y-118006019D01*
X125773171Y-117434590D02*
X125677933Y-117386971D01*
X125677933Y-117386971D02*
X125630314Y-117339352D01*
X125630314Y-117339352D02*
X125582695Y-117244114D01*
X125582695Y-117244114D02*
X125582695Y-117196495D01*
X125582695Y-117196495D02*
X125630314Y-117101257D01*
X125630314Y-117101257D02*
X125677933Y-117053638D01*
X125677933Y-117053638D02*
X125773171Y-117006019D01*
X125773171Y-117006019D02*
X125963647Y-117006019D01*
X125963647Y-117006019D02*
X126058885Y-117053638D01*
X126058885Y-117053638D02*
X126106504Y-117101257D01*
X126106504Y-117101257D02*
X126154123Y-117196495D01*
X126154123Y-117196495D02*
X126154123Y-117244114D01*
X126154123Y-117244114D02*
X126106504Y-117339352D01*
X126106504Y-117339352D02*
X126058885Y-117386971D01*
X126058885Y-117386971D02*
X125963647Y-117434590D01*
X125963647Y-117434590D02*
X125773171Y-117434590D01*
X125773171Y-117434590D02*
X125677933Y-117482209D01*
X125677933Y-117482209D02*
X125630314Y-117529828D01*
X125630314Y-117529828D02*
X125582695Y-117625066D01*
X125582695Y-117625066D02*
X125582695Y-117815542D01*
X125582695Y-117815542D02*
X125630314Y-117910780D01*
X125630314Y-117910780D02*
X125677933Y-117958400D01*
X125677933Y-117958400D02*
X125773171Y-118006019D01*
X125773171Y-118006019D02*
X125963647Y-118006019D01*
X125963647Y-118006019D02*
X126058885Y-117958400D01*
X126058885Y-117958400D02*
X126106504Y-117910780D01*
X126106504Y-117910780D02*
X126154123Y-117815542D01*
X126154123Y-117815542D02*
X126154123Y-117625066D01*
X126154123Y-117625066D02*
X126106504Y-117529828D01*
X126106504Y-117529828D02*
X126058885Y-117482209D01*
X126058885Y-117482209D02*
X125963647Y-117434590D01*
X127535076Y-117006019D02*
X127725552Y-117006019D01*
X127725552Y-117006019D02*
X127820790Y-117053638D01*
X127820790Y-117053638D02*
X127916028Y-117148876D01*
X127916028Y-117148876D02*
X127963647Y-117339352D01*
X127963647Y-117339352D02*
X127963647Y-117672685D01*
X127963647Y-117672685D02*
X127916028Y-117863161D01*
X127916028Y-117863161D02*
X127820790Y-117958400D01*
X127820790Y-117958400D02*
X127725552Y-118006019D01*
X127725552Y-118006019D02*
X127535076Y-118006019D01*
X127535076Y-118006019D02*
X127439838Y-117958400D01*
X127439838Y-117958400D02*
X127344600Y-117863161D01*
X127344600Y-117863161D02*
X127296981Y-117672685D01*
X127296981Y-117672685D02*
X127296981Y-117339352D01*
X127296981Y-117339352D02*
X127344600Y-117148876D01*
X127344600Y-117148876D02*
X127439838Y-117053638D01*
X127439838Y-117053638D02*
X127535076Y-117006019D01*
X128868409Y-118006019D02*
X128392219Y-118006019D01*
X128392219Y-118006019D02*
X128392219Y-117006019D01*
X129201743Y-117482209D02*
X129535076Y-117482209D01*
X129677933Y-118006019D02*
X129201743Y-118006019D01*
X129201743Y-118006019D02*
X129201743Y-117006019D01*
X129201743Y-117006019D02*
X129677933Y-117006019D01*
X130106505Y-118006019D02*
X130106505Y-117006019D01*
X130106505Y-117006019D02*
X130344600Y-117006019D01*
X130344600Y-117006019D02*
X130487457Y-117053638D01*
X130487457Y-117053638D02*
X130582695Y-117148876D01*
X130582695Y-117148876D02*
X130630314Y-117244114D01*
X130630314Y-117244114D02*
X130677933Y-117434590D01*
X130677933Y-117434590D02*
X130677933Y-117577447D01*
X130677933Y-117577447D02*
X130630314Y-117767923D01*
X130630314Y-117767923D02*
X130582695Y-117863161D01*
X130582695Y-117863161D02*
X130487457Y-117958400D01*
X130487457Y-117958400D02*
X130344600Y-118006019D01*
X130344600Y-118006019D02*
X130106505Y-118006019D01*
X119956666Y-75654819D02*
X119956666Y-76369104D01*
X119956666Y-76369104D02*
X119909047Y-76511961D01*
X119909047Y-76511961D02*
X119813809Y-76607200D01*
X119813809Y-76607200D02*
X119670952Y-76654819D01*
X119670952Y-76654819D02*
X119575714Y-76654819D01*
X120337619Y-75654819D02*
X120956666Y-75654819D01*
X120956666Y-75654819D02*
X120623333Y-76035771D01*
X120623333Y-76035771D02*
X120766190Y-76035771D01*
X120766190Y-76035771D02*
X120861428Y-76083390D01*
X120861428Y-76083390D02*
X120909047Y-76131009D01*
X120909047Y-76131009D02*
X120956666Y-76226247D01*
X120956666Y-76226247D02*
X120956666Y-76464342D01*
X120956666Y-76464342D02*
X120909047Y-76559580D01*
X120909047Y-76559580D02*
X120861428Y-76607200D01*
X120861428Y-76607200D02*
X120766190Y-76654819D01*
X120766190Y-76654819D02*
X120480476Y-76654819D01*
X120480476Y-76654819D02*
X120385238Y-76607200D01*
X120385238Y-76607200D02*
X120337619Y-76559580D01*
X180834819Y-91066666D02*
X180834819Y-91542856D01*
X180834819Y-91542856D02*
X179834819Y-91542856D01*
X180834819Y-90733332D02*
X179834819Y-90733332D01*
X179834819Y-90733332D02*
X180549104Y-90399999D01*
X180549104Y-90399999D02*
X179834819Y-90066666D01*
X179834819Y-90066666D02*
X180834819Y-90066666D01*
X179834819Y-89685713D02*
X179834819Y-89019047D01*
X179834819Y-89019047D02*
X180834819Y-89447618D01*
X180263390Y-88495237D02*
X180215771Y-88590475D01*
X180215771Y-88590475D02*
X180168152Y-88638094D01*
X180168152Y-88638094D02*
X180072914Y-88685713D01*
X180072914Y-88685713D02*
X180025295Y-88685713D01*
X180025295Y-88685713D02*
X179930057Y-88638094D01*
X179930057Y-88638094D02*
X179882438Y-88590475D01*
X179882438Y-88590475D02*
X179834819Y-88495237D01*
X179834819Y-88495237D02*
X179834819Y-88304761D01*
X179834819Y-88304761D02*
X179882438Y-88209523D01*
X179882438Y-88209523D02*
X179930057Y-88161904D01*
X179930057Y-88161904D02*
X180025295Y-88114285D01*
X180025295Y-88114285D02*
X180072914Y-88114285D01*
X180072914Y-88114285D02*
X180168152Y-88161904D01*
X180168152Y-88161904D02*
X180215771Y-88209523D01*
X180215771Y-88209523D02*
X180263390Y-88304761D01*
X180263390Y-88304761D02*
X180263390Y-88495237D01*
X180263390Y-88495237D02*
X180311009Y-88590475D01*
X180311009Y-88590475D02*
X180358628Y-88638094D01*
X180358628Y-88638094D02*
X180453866Y-88685713D01*
X180453866Y-88685713D02*
X180644342Y-88685713D01*
X180644342Y-88685713D02*
X180739580Y-88638094D01*
X180739580Y-88638094D02*
X180787200Y-88590475D01*
X180787200Y-88590475D02*
X180834819Y-88495237D01*
X180834819Y-88495237D02*
X180834819Y-88304761D01*
X180834819Y-88304761D02*
X180787200Y-88209523D01*
X180787200Y-88209523D02*
X180739580Y-88161904D01*
X180739580Y-88161904D02*
X180644342Y-88114285D01*
X180644342Y-88114285D02*
X180453866Y-88114285D01*
X180453866Y-88114285D02*
X180358628Y-88161904D01*
X180358628Y-88161904D02*
X180311009Y-88209523D01*
X180311009Y-88209523D02*
X180263390Y-88304761D01*
X179834819Y-87495237D02*
X179834819Y-87399999D01*
X179834819Y-87399999D02*
X179882438Y-87304761D01*
X179882438Y-87304761D02*
X179930057Y-87257142D01*
X179930057Y-87257142D02*
X180025295Y-87209523D01*
X180025295Y-87209523D02*
X180215771Y-87161904D01*
X180215771Y-87161904D02*
X180453866Y-87161904D01*
X180453866Y-87161904D02*
X180644342Y-87209523D01*
X180644342Y-87209523D02*
X180739580Y-87257142D01*
X180739580Y-87257142D02*
X180787200Y-87304761D01*
X180787200Y-87304761D02*
X180834819Y-87399999D01*
X180834819Y-87399999D02*
X180834819Y-87495237D01*
X180834819Y-87495237D02*
X180787200Y-87590475D01*
X180787200Y-87590475D02*
X180739580Y-87638094D01*
X180739580Y-87638094D02*
X180644342Y-87685713D01*
X180644342Y-87685713D02*
X180453866Y-87733332D01*
X180453866Y-87733332D02*
X180215771Y-87733332D01*
X180215771Y-87733332D02*
X180025295Y-87685713D01*
X180025295Y-87685713D02*
X179930057Y-87638094D01*
X179930057Y-87638094D02*
X179882438Y-87590475D01*
X179882438Y-87590475D02*
X179834819Y-87495237D01*
X179834819Y-86257142D02*
X179834819Y-86733332D01*
X179834819Y-86733332D02*
X180311009Y-86780951D01*
X180311009Y-86780951D02*
X180263390Y-86733332D01*
X180263390Y-86733332D02*
X180215771Y-86638094D01*
X180215771Y-86638094D02*
X180215771Y-86399999D01*
X180215771Y-86399999D02*
X180263390Y-86304761D01*
X180263390Y-86304761D02*
X180311009Y-86257142D01*
X180311009Y-86257142D02*
X180406247Y-86209523D01*
X180406247Y-86209523D02*
X180644342Y-86209523D01*
X180644342Y-86209523D02*
X180739580Y-86257142D01*
X180739580Y-86257142D02*
X180787200Y-86304761D01*
X180787200Y-86304761D02*
X180834819Y-86399999D01*
X180834819Y-86399999D02*
X180834819Y-86638094D01*
X180834819Y-86638094D02*
X180787200Y-86733332D01*
X180787200Y-86733332D02*
X180739580Y-86780951D01*
X186604819Y-89661904D02*
X187414342Y-89661904D01*
X187414342Y-89661904D02*
X187509580Y-89614285D01*
X187509580Y-89614285D02*
X187557200Y-89566666D01*
X187557200Y-89566666D02*
X187604819Y-89471428D01*
X187604819Y-89471428D02*
X187604819Y-89280952D01*
X187604819Y-89280952D02*
X187557200Y-89185714D01*
X187557200Y-89185714D02*
X187509580Y-89138095D01*
X187509580Y-89138095D02*
X187414342Y-89090476D01*
X187414342Y-89090476D02*
X186604819Y-89090476D01*
X186700057Y-88661904D02*
X186652438Y-88614285D01*
X186652438Y-88614285D02*
X186604819Y-88519047D01*
X186604819Y-88519047D02*
X186604819Y-88280952D01*
X186604819Y-88280952D02*
X186652438Y-88185714D01*
X186652438Y-88185714D02*
X186700057Y-88138095D01*
X186700057Y-88138095D02*
X186795295Y-88090476D01*
X186795295Y-88090476D02*
X186890533Y-88090476D01*
X186890533Y-88090476D02*
X187033390Y-88138095D01*
X187033390Y-88138095D02*
X187604819Y-88709523D01*
X187604819Y-88709523D02*
X187604819Y-88090476D01*
X179905819Y-109330951D02*
X178905819Y-109330951D01*
X178905819Y-109330951D02*
X178905819Y-108949999D01*
X178905819Y-108949999D02*
X178953438Y-108854761D01*
X178953438Y-108854761D02*
X179001057Y-108807142D01*
X179001057Y-108807142D02*
X179096295Y-108759523D01*
X179096295Y-108759523D02*
X179239152Y-108759523D01*
X179239152Y-108759523D02*
X179334390Y-108807142D01*
X179334390Y-108807142D02*
X179382009Y-108854761D01*
X179382009Y-108854761D02*
X179429628Y-108949999D01*
X179429628Y-108949999D02*
X179429628Y-109330951D01*
X179905819Y-108330951D02*
X179239152Y-108330951D01*
X178905819Y-108330951D02*
X178953438Y-108378570D01*
X178953438Y-108378570D02*
X179001057Y-108330951D01*
X179001057Y-108330951D02*
X178953438Y-108283332D01*
X178953438Y-108283332D02*
X178905819Y-108330951D01*
X178905819Y-108330951D02*
X179001057Y-108330951D01*
X179858200Y-107426190D02*
X179905819Y-107521428D01*
X179905819Y-107521428D02*
X179905819Y-107711904D01*
X179905819Y-107711904D02*
X179858200Y-107807142D01*
X179858200Y-107807142D02*
X179810580Y-107854761D01*
X179810580Y-107854761D02*
X179715342Y-107902380D01*
X179715342Y-107902380D02*
X179429628Y-107902380D01*
X179429628Y-107902380D02*
X179334390Y-107854761D01*
X179334390Y-107854761D02*
X179286771Y-107807142D01*
X179286771Y-107807142D02*
X179239152Y-107711904D01*
X179239152Y-107711904D02*
X179239152Y-107521428D01*
X179239152Y-107521428D02*
X179286771Y-107426190D01*
X179905819Y-106854761D02*
X179858200Y-106949999D01*
X179858200Y-106949999D02*
X179810580Y-106997618D01*
X179810580Y-106997618D02*
X179715342Y-107045237D01*
X179715342Y-107045237D02*
X179429628Y-107045237D01*
X179429628Y-107045237D02*
X179334390Y-106997618D01*
X179334390Y-106997618D02*
X179286771Y-106949999D01*
X179286771Y-106949999D02*
X179239152Y-106854761D01*
X179239152Y-106854761D02*
X179239152Y-106711904D01*
X179239152Y-106711904D02*
X179286771Y-106616666D01*
X179286771Y-106616666D02*
X179334390Y-106569047D01*
X179334390Y-106569047D02*
X179429628Y-106521428D01*
X179429628Y-106521428D02*
X179715342Y-106521428D01*
X179715342Y-106521428D02*
X179810580Y-106569047D01*
X179810580Y-106569047D02*
X179858200Y-106616666D01*
X179858200Y-106616666D02*
X179905819Y-106711904D01*
X179905819Y-106711904D02*
X179905819Y-106854761D01*
X181064819Y-108711904D02*
X181874342Y-108711904D01*
X181874342Y-108711904D02*
X181969580Y-108664285D01*
X181969580Y-108664285D02*
X182017200Y-108616666D01*
X182017200Y-108616666D02*
X182064819Y-108521428D01*
X182064819Y-108521428D02*
X182064819Y-108330952D01*
X182064819Y-108330952D02*
X182017200Y-108235714D01*
X182017200Y-108235714D02*
X181969580Y-108188095D01*
X181969580Y-108188095D02*
X181874342Y-108140476D01*
X181874342Y-108140476D02*
X181064819Y-108140476D01*
X182064819Y-107140476D02*
X182064819Y-107711904D01*
X182064819Y-107426190D02*
X181064819Y-107426190D01*
X181064819Y-107426190D02*
X181207676Y-107521428D01*
X181207676Y-107521428D02*
X181302914Y-107616666D01*
X181302914Y-107616666D02*
X181350533Y-107711904D01*
X143270057Y-86930951D02*
X143222438Y-86883332D01*
X143222438Y-86883332D02*
X143174819Y-86788094D01*
X143174819Y-86788094D02*
X143174819Y-86549999D01*
X143174819Y-86549999D02*
X143222438Y-86454761D01*
X143222438Y-86454761D02*
X143270057Y-86407142D01*
X143270057Y-86407142D02*
X143365295Y-86359523D01*
X143365295Y-86359523D02*
X143460533Y-86359523D01*
X143460533Y-86359523D02*
X143603390Y-86407142D01*
X143603390Y-86407142D02*
X144174819Y-86978570D01*
X144174819Y-86978570D02*
X144174819Y-86359523D01*
X144079580Y-85930951D02*
X144127200Y-85883332D01*
X144127200Y-85883332D02*
X144174819Y-85930951D01*
X144174819Y-85930951D02*
X144127200Y-85978570D01*
X144127200Y-85978570D02*
X144079580Y-85930951D01*
X144079580Y-85930951D02*
X144174819Y-85930951D01*
X143174819Y-84978571D02*
X143174819Y-85454761D01*
X143174819Y-85454761D02*
X143651009Y-85502380D01*
X143651009Y-85502380D02*
X143603390Y-85454761D01*
X143603390Y-85454761D02*
X143555771Y-85359523D01*
X143555771Y-85359523D02*
X143555771Y-85121428D01*
X143555771Y-85121428D02*
X143603390Y-85026190D01*
X143603390Y-85026190D02*
X143651009Y-84978571D01*
X143651009Y-84978571D02*
X143746247Y-84930952D01*
X143746247Y-84930952D02*
X143984342Y-84930952D01*
X143984342Y-84930952D02*
X144079580Y-84978571D01*
X144079580Y-84978571D02*
X144127200Y-85026190D01*
X144127200Y-85026190D02*
X144174819Y-85121428D01*
X144174819Y-85121428D02*
X144174819Y-85359523D01*
X144174819Y-85359523D02*
X144127200Y-85454761D01*
X144127200Y-85454761D02*
X144079580Y-85502380D01*
X144174819Y-84502380D02*
X143508152Y-84502380D01*
X143603390Y-84502380D02*
X143555771Y-84454761D01*
X143555771Y-84454761D02*
X143508152Y-84359523D01*
X143508152Y-84359523D02*
X143508152Y-84216666D01*
X143508152Y-84216666D02*
X143555771Y-84121428D01*
X143555771Y-84121428D02*
X143651009Y-84073809D01*
X143651009Y-84073809D02*
X144174819Y-84073809D01*
X143651009Y-84073809D02*
X143555771Y-84026190D01*
X143555771Y-84026190D02*
X143508152Y-83930952D01*
X143508152Y-83930952D02*
X143508152Y-83788095D01*
X143508152Y-83788095D02*
X143555771Y-83692856D01*
X143555771Y-83692856D02*
X143651009Y-83645237D01*
X143651009Y-83645237D02*
X144174819Y-83645237D01*
X144174819Y-83169047D02*
X143508152Y-83169047D01*
X143603390Y-83169047D02*
X143555771Y-83121428D01*
X143555771Y-83121428D02*
X143508152Y-83026190D01*
X143508152Y-83026190D02*
X143508152Y-82883333D01*
X143508152Y-82883333D02*
X143555771Y-82788095D01*
X143555771Y-82788095D02*
X143651009Y-82740476D01*
X143651009Y-82740476D02*
X144174819Y-82740476D01*
X143651009Y-82740476D02*
X143555771Y-82692857D01*
X143555771Y-82692857D02*
X143508152Y-82597619D01*
X143508152Y-82597619D02*
X143508152Y-82454762D01*
X143508152Y-82454762D02*
X143555771Y-82359523D01*
X143555771Y-82359523D02*
X143651009Y-82311904D01*
X143651009Y-82311904D02*
X144174819Y-82311904D01*
X144174819Y-81073809D02*
X143174819Y-81073809D01*
X143174819Y-81073809D02*
X143174819Y-80692857D01*
X143174819Y-80692857D02*
X143222438Y-80597619D01*
X143222438Y-80597619D02*
X143270057Y-80550000D01*
X143270057Y-80550000D02*
X143365295Y-80502381D01*
X143365295Y-80502381D02*
X143508152Y-80502381D01*
X143508152Y-80502381D02*
X143603390Y-80550000D01*
X143603390Y-80550000D02*
X143651009Y-80597619D01*
X143651009Y-80597619D02*
X143698628Y-80692857D01*
X143698628Y-80692857D02*
X143698628Y-81073809D01*
X144174819Y-79930952D02*
X144127200Y-80026190D01*
X144127200Y-80026190D02*
X144031961Y-80073809D01*
X144031961Y-80073809D02*
X143174819Y-80073809D01*
X143508152Y-79121428D02*
X144174819Y-79121428D01*
X143508152Y-79549999D02*
X144031961Y-79549999D01*
X144031961Y-79549999D02*
X144127200Y-79502380D01*
X144127200Y-79502380D02*
X144174819Y-79407142D01*
X144174819Y-79407142D02*
X144174819Y-79264285D01*
X144174819Y-79264285D02*
X144127200Y-79169047D01*
X144127200Y-79169047D02*
X144079580Y-79121428D01*
X143508152Y-78216666D02*
X144317676Y-78216666D01*
X144317676Y-78216666D02*
X144412914Y-78264285D01*
X144412914Y-78264285D02*
X144460533Y-78311904D01*
X144460533Y-78311904D02*
X144508152Y-78407142D01*
X144508152Y-78407142D02*
X144508152Y-78549999D01*
X144508152Y-78549999D02*
X144460533Y-78645237D01*
X144127200Y-78216666D02*
X144174819Y-78311904D01*
X144174819Y-78311904D02*
X144174819Y-78502380D01*
X144174819Y-78502380D02*
X144127200Y-78597618D01*
X144127200Y-78597618D02*
X144079580Y-78645237D01*
X144079580Y-78645237D02*
X143984342Y-78692856D01*
X143984342Y-78692856D02*
X143698628Y-78692856D01*
X143698628Y-78692856D02*
X143603390Y-78645237D01*
X143603390Y-78645237D02*
X143555771Y-78597618D01*
X143555771Y-78597618D02*
X143508152Y-78502380D01*
X143508152Y-78502380D02*
X143508152Y-78311904D01*
X143508152Y-78311904D02*
X143555771Y-78216666D01*
X146986666Y-82004819D02*
X146986666Y-82719104D01*
X146986666Y-82719104D02*
X146939047Y-82861961D01*
X146939047Y-82861961D02*
X146843809Y-82957200D01*
X146843809Y-82957200D02*
X146700952Y-83004819D01*
X146700952Y-83004819D02*
X146605714Y-83004819D01*
X147939047Y-82004819D02*
X147462857Y-82004819D01*
X147462857Y-82004819D02*
X147415238Y-82481009D01*
X147415238Y-82481009D02*
X147462857Y-82433390D01*
X147462857Y-82433390D02*
X147558095Y-82385771D01*
X147558095Y-82385771D02*
X147796190Y-82385771D01*
X147796190Y-82385771D02*
X147891428Y-82433390D01*
X147891428Y-82433390D02*
X147939047Y-82481009D01*
X147939047Y-82481009D02*
X147986666Y-82576247D01*
X147986666Y-82576247D02*
X147986666Y-82814342D01*
X147986666Y-82814342D02*
X147939047Y-82909580D01*
X147939047Y-82909580D02*
X147891428Y-82957200D01*
X147891428Y-82957200D02*
X147796190Y-83004819D01*
X147796190Y-83004819D02*
X147558095Y-83004819D01*
X147558095Y-83004819D02*
X147462857Y-82957200D01*
X147462857Y-82957200D02*
X147415238Y-82909580D01*
X153004819Y-93613810D02*
X152004819Y-93613810D01*
X152004819Y-93613810D02*
X152004819Y-93232858D01*
X152004819Y-93232858D02*
X152052438Y-93137620D01*
X152052438Y-93137620D02*
X152100057Y-93090001D01*
X152100057Y-93090001D02*
X152195295Y-93042382D01*
X152195295Y-93042382D02*
X152338152Y-93042382D01*
X152338152Y-93042382D02*
X152433390Y-93090001D01*
X152433390Y-93090001D02*
X152481009Y-93137620D01*
X152481009Y-93137620D02*
X152528628Y-93232858D01*
X152528628Y-93232858D02*
X152528628Y-93613810D01*
X153004819Y-92470953D02*
X152957200Y-92566191D01*
X152957200Y-92566191D02*
X152909580Y-92613810D01*
X152909580Y-92613810D02*
X152814342Y-92661429D01*
X152814342Y-92661429D02*
X152528628Y-92661429D01*
X152528628Y-92661429D02*
X152433390Y-92613810D01*
X152433390Y-92613810D02*
X152385771Y-92566191D01*
X152385771Y-92566191D02*
X152338152Y-92470953D01*
X152338152Y-92470953D02*
X152338152Y-92328096D01*
X152338152Y-92328096D02*
X152385771Y-92232858D01*
X152385771Y-92232858D02*
X152433390Y-92185239D01*
X152433390Y-92185239D02*
X152528628Y-92137620D01*
X152528628Y-92137620D02*
X152814342Y-92137620D01*
X152814342Y-92137620D02*
X152909580Y-92185239D01*
X152909580Y-92185239D02*
X152957200Y-92232858D01*
X152957200Y-92232858D02*
X153004819Y-92328096D01*
X153004819Y-92328096D02*
X153004819Y-92470953D01*
X153004819Y-91566191D02*
X152957200Y-91661429D01*
X152957200Y-91661429D02*
X152861961Y-91709048D01*
X152861961Y-91709048D02*
X152004819Y-91709048D01*
X153004819Y-91042381D02*
X152957200Y-91137619D01*
X152957200Y-91137619D02*
X152909580Y-91185238D01*
X152909580Y-91185238D02*
X152814342Y-91232857D01*
X152814342Y-91232857D02*
X152528628Y-91232857D01*
X152528628Y-91232857D02*
X152433390Y-91185238D01*
X152433390Y-91185238D02*
X152385771Y-91137619D01*
X152385771Y-91137619D02*
X152338152Y-91042381D01*
X152338152Y-91042381D02*
X152338152Y-90899524D01*
X152338152Y-90899524D02*
X152385771Y-90804286D01*
X152385771Y-90804286D02*
X152433390Y-90756667D01*
X152433390Y-90756667D02*
X152528628Y-90709048D01*
X152528628Y-90709048D02*
X152814342Y-90709048D01*
X152814342Y-90709048D02*
X152909580Y-90756667D01*
X152909580Y-90756667D02*
X152957200Y-90804286D01*
X152957200Y-90804286D02*
X153004819Y-90899524D01*
X153004819Y-90899524D02*
X153004819Y-91042381D01*
X153004819Y-90137619D02*
X152957200Y-90232857D01*
X152957200Y-90232857D02*
X152861961Y-90280476D01*
X152861961Y-90280476D02*
X152004819Y-90280476D01*
X152338152Y-89328095D02*
X153004819Y-89328095D01*
X152338152Y-89756666D02*
X152861961Y-89756666D01*
X152861961Y-89756666D02*
X152957200Y-89709047D01*
X152957200Y-89709047D02*
X153004819Y-89613809D01*
X153004819Y-89613809D02*
X153004819Y-89470952D01*
X153004819Y-89470952D02*
X152957200Y-89375714D01*
X152957200Y-89375714D02*
X152909580Y-89328095D01*
X153100057Y-89090000D02*
X153100057Y-88328095D01*
X152481009Y-87756666D02*
X152528628Y-87613809D01*
X152528628Y-87613809D02*
X152576247Y-87566190D01*
X152576247Y-87566190D02*
X152671485Y-87518571D01*
X152671485Y-87518571D02*
X152814342Y-87518571D01*
X152814342Y-87518571D02*
X152909580Y-87566190D01*
X152909580Y-87566190D02*
X152957200Y-87613809D01*
X152957200Y-87613809D02*
X153004819Y-87709047D01*
X153004819Y-87709047D02*
X153004819Y-88089999D01*
X153004819Y-88089999D02*
X152004819Y-88089999D01*
X152004819Y-88089999D02*
X152004819Y-87756666D01*
X152004819Y-87756666D02*
X152052438Y-87661428D01*
X152052438Y-87661428D02*
X152100057Y-87613809D01*
X152100057Y-87613809D02*
X152195295Y-87566190D01*
X152195295Y-87566190D02*
X152290533Y-87566190D01*
X152290533Y-87566190D02*
X152385771Y-87613809D01*
X152385771Y-87613809D02*
X152433390Y-87661428D01*
X152433390Y-87661428D02*
X152481009Y-87756666D01*
X152481009Y-87756666D02*
X152481009Y-88089999D01*
X153004819Y-87089999D02*
X152338152Y-87089999D01*
X152528628Y-87089999D02*
X152433390Y-87042380D01*
X152433390Y-87042380D02*
X152385771Y-86994761D01*
X152385771Y-86994761D02*
X152338152Y-86899523D01*
X152338152Y-86899523D02*
X152338152Y-86804285D01*
X152957200Y-86089999D02*
X153004819Y-86185237D01*
X153004819Y-86185237D02*
X153004819Y-86375713D01*
X153004819Y-86375713D02*
X152957200Y-86470951D01*
X152957200Y-86470951D02*
X152861961Y-86518570D01*
X152861961Y-86518570D02*
X152481009Y-86518570D01*
X152481009Y-86518570D02*
X152385771Y-86470951D01*
X152385771Y-86470951D02*
X152338152Y-86375713D01*
X152338152Y-86375713D02*
X152338152Y-86185237D01*
X152338152Y-86185237D02*
X152385771Y-86089999D01*
X152385771Y-86089999D02*
X152481009Y-86042380D01*
X152481009Y-86042380D02*
X152576247Y-86042380D01*
X152576247Y-86042380D02*
X152671485Y-86518570D01*
X153004819Y-85185237D02*
X152481009Y-85185237D01*
X152481009Y-85185237D02*
X152385771Y-85232856D01*
X152385771Y-85232856D02*
X152338152Y-85328094D01*
X152338152Y-85328094D02*
X152338152Y-85518570D01*
X152338152Y-85518570D02*
X152385771Y-85613808D01*
X152957200Y-85185237D02*
X153004819Y-85280475D01*
X153004819Y-85280475D02*
X153004819Y-85518570D01*
X153004819Y-85518570D02*
X152957200Y-85613808D01*
X152957200Y-85613808D02*
X152861961Y-85661427D01*
X152861961Y-85661427D02*
X152766723Y-85661427D01*
X152766723Y-85661427D02*
X152671485Y-85613808D01*
X152671485Y-85613808D02*
X152623866Y-85518570D01*
X152623866Y-85518570D02*
X152623866Y-85280475D01*
X152623866Y-85280475D02*
X152576247Y-85185237D01*
X153004819Y-84709046D02*
X152004819Y-84709046D01*
X152623866Y-84613808D02*
X153004819Y-84328094D01*
X152338152Y-84328094D02*
X152719104Y-84709046D01*
X153004819Y-83756665D02*
X152957200Y-83851903D01*
X152957200Y-83851903D02*
X152909580Y-83899522D01*
X152909580Y-83899522D02*
X152814342Y-83947141D01*
X152814342Y-83947141D02*
X152528628Y-83947141D01*
X152528628Y-83947141D02*
X152433390Y-83899522D01*
X152433390Y-83899522D02*
X152385771Y-83851903D01*
X152385771Y-83851903D02*
X152338152Y-83756665D01*
X152338152Y-83756665D02*
X152338152Y-83613808D01*
X152338152Y-83613808D02*
X152385771Y-83518570D01*
X152385771Y-83518570D02*
X152433390Y-83470951D01*
X152433390Y-83470951D02*
X152528628Y-83423332D01*
X152528628Y-83423332D02*
X152814342Y-83423332D01*
X152814342Y-83423332D02*
X152909580Y-83470951D01*
X152909580Y-83470951D02*
X152957200Y-83518570D01*
X152957200Y-83518570D02*
X153004819Y-83613808D01*
X153004819Y-83613808D02*
X153004819Y-83756665D01*
X152338152Y-82566189D02*
X153004819Y-82566189D01*
X152338152Y-82994760D02*
X152861961Y-82994760D01*
X152861961Y-82994760D02*
X152957200Y-82947141D01*
X152957200Y-82947141D02*
X153004819Y-82851903D01*
X153004819Y-82851903D02*
X153004819Y-82709046D01*
X153004819Y-82709046D02*
X152957200Y-82613808D01*
X152957200Y-82613808D02*
X152909580Y-82566189D01*
X152338152Y-82232855D02*
X152338152Y-81851903D01*
X152004819Y-82089998D02*
X152861961Y-82089998D01*
X152861961Y-82089998D02*
X152957200Y-82042379D01*
X152957200Y-82042379D02*
X153004819Y-81947141D01*
X153004819Y-81947141D02*
X153004819Y-81851903D01*
X153100057Y-81756665D02*
X153100057Y-80994760D01*
X152719104Y-80804283D02*
X152719104Y-80328093D01*
X153004819Y-80899521D02*
X152004819Y-80566188D01*
X152004819Y-80566188D02*
X153004819Y-80232855D01*
X152338152Y-79470950D02*
X153004819Y-79470950D01*
X151957200Y-79709045D02*
X152671485Y-79947140D01*
X152671485Y-79947140D02*
X152671485Y-79328093D01*
X153004819Y-78899521D02*
X153004819Y-78709045D01*
X153004819Y-78709045D02*
X152957200Y-78613807D01*
X152957200Y-78613807D02*
X152909580Y-78566188D01*
X152909580Y-78566188D02*
X152766723Y-78470950D01*
X152766723Y-78470950D02*
X152576247Y-78423331D01*
X152576247Y-78423331D02*
X152195295Y-78423331D01*
X152195295Y-78423331D02*
X152100057Y-78470950D01*
X152100057Y-78470950D02*
X152052438Y-78518569D01*
X152052438Y-78518569D02*
X152004819Y-78613807D01*
X152004819Y-78613807D02*
X152004819Y-78804283D01*
X152004819Y-78804283D02*
X152052438Y-78899521D01*
X152052438Y-78899521D02*
X152100057Y-78947140D01*
X152100057Y-78947140D02*
X152195295Y-78994759D01*
X152195295Y-78994759D02*
X152433390Y-78994759D01*
X152433390Y-78994759D02*
X152528628Y-78947140D01*
X152528628Y-78947140D02*
X152576247Y-78899521D01*
X152576247Y-78899521D02*
X152623866Y-78804283D01*
X152623866Y-78804283D02*
X152623866Y-78613807D01*
X152623866Y-78613807D02*
X152576247Y-78518569D01*
X152576247Y-78518569D02*
X152528628Y-78470950D01*
X152528628Y-78470950D02*
X152433390Y-78423331D01*
X152433390Y-77851902D02*
X152385771Y-77947140D01*
X152385771Y-77947140D02*
X152338152Y-77994759D01*
X152338152Y-77994759D02*
X152242914Y-78042378D01*
X152242914Y-78042378D02*
X152195295Y-78042378D01*
X152195295Y-78042378D02*
X152100057Y-77994759D01*
X152100057Y-77994759D02*
X152052438Y-77947140D01*
X152052438Y-77947140D02*
X152004819Y-77851902D01*
X152004819Y-77851902D02*
X152004819Y-77661426D01*
X152004819Y-77661426D02*
X152052438Y-77566188D01*
X152052438Y-77566188D02*
X152100057Y-77518569D01*
X152100057Y-77518569D02*
X152195295Y-77470950D01*
X152195295Y-77470950D02*
X152242914Y-77470950D01*
X152242914Y-77470950D02*
X152338152Y-77518569D01*
X152338152Y-77518569D02*
X152385771Y-77566188D01*
X152385771Y-77566188D02*
X152433390Y-77661426D01*
X152433390Y-77661426D02*
X152433390Y-77851902D01*
X152433390Y-77851902D02*
X152481009Y-77947140D01*
X152481009Y-77947140D02*
X152528628Y-77994759D01*
X152528628Y-77994759D02*
X152623866Y-78042378D01*
X152623866Y-78042378D02*
X152814342Y-78042378D01*
X152814342Y-78042378D02*
X152909580Y-77994759D01*
X152909580Y-77994759D02*
X152957200Y-77947140D01*
X152957200Y-77947140D02*
X153004819Y-77851902D01*
X153004819Y-77851902D02*
X153004819Y-77661426D01*
X153004819Y-77661426D02*
X152957200Y-77566188D01*
X152957200Y-77566188D02*
X152909580Y-77518569D01*
X152909580Y-77518569D02*
X152814342Y-77470950D01*
X152814342Y-77470950D02*
X152623866Y-77470950D01*
X152623866Y-77470950D02*
X152528628Y-77518569D01*
X152528628Y-77518569D02*
X152481009Y-77566188D01*
X152481009Y-77566188D02*
X152433390Y-77661426D01*
X152433390Y-76899521D02*
X152385771Y-76994759D01*
X152385771Y-76994759D02*
X152338152Y-77042378D01*
X152338152Y-77042378D02*
X152242914Y-77089997D01*
X152242914Y-77089997D02*
X152195295Y-77089997D01*
X152195295Y-77089997D02*
X152100057Y-77042378D01*
X152100057Y-77042378D02*
X152052438Y-76994759D01*
X152052438Y-76994759D02*
X152004819Y-76899521D01*
X152004819Y-76899521D02*
X152004819Y-76709045D01*
X152004819Y-76709045D02*
X152052438Y-76613807D01*
X152052438Y-76613807D02*
X152100057Y-76566188D01*
X152100057Y-76566188D02*
X152195295Y-76518569D01*
X152195295Y-76518569D02*
X152242914Y-76518569D01*
X152242914Y-76518569D02*
X152338152Y-76566188D01*
X152338152Y-76566188D02*
X152385771Y-76613807D01*
X152385771Y-76613807D02*
X152433390Y-76709045D01*
X152433390Y-76709045D02*
X152433390Y-76899521D01*
X152433390Y-76899521D02*
X152481009Y-76994759D01*
X152481009Y-76994759D02*
X152528628Y-77042378D01*
X152528628Y-77042378D02*
X152623866Y-77089997D01*
X152623866Y-77089997D02*
X152814342Y-77089997D01*
X152814342Y-77089997D02*
X152909580Y-77042378D01*
X152909580Y-77042378D02*
X152957200Y-76994759D01*
X152957200Y-76994759D02*
X153004819Y-76899521D01*
X153004819Y-76899521D02*
X153004819Y-76709045D01*
X153004819Y-76709045D02*
X152957200Y-76613807D01*
X152957200Y-76613807D02*
X152909580Y-76566188D01*
X152909580Y-76566188D02*
X152814342Y-76518569D01*
X152814342Y-76518569D02*
X152623866Y-76518569D01*
X152623866Y-76518569D02*
X152528628Y-76566188D01*
X152528628Y-76566188D02*
X152481009Y-76613807D01*
X152481009Y-76613807D02*
X152433390Y-76709045D01*
X172889104Y-85804285D02*
X172889104Y-85328095D01*
X173174819Y-85899523D02*
X172174819Y-85566190D01*
X172174819Y-85566190D02*
X173174819Y-85232857D01*
X173174819Y-84375714D02*
X173174819Y-84947142D01*
X173174819Y-84661428D02*
X172174819Y-84661428D01*
X172174819Y-84661428D02*
X172317676Y-84756666D01*
X172317676Y-84756666D02*
X172412914Y-84851904D01*
X172412914Y-84851904D02*
X172460533Y-84947142D01*
X180804819Y-90832857D02*
X180804819Y-91404285D01*
X180804819Y-91118571D02*
X179804819Y-91118571D01*
X179804819Y-91118571D02*
X179947676Y-91213809D01*
X179947676Y-91213809D02*
X180042914Y-91309047D01*
X180042914Y-91309047D02*
X180090533Y-91404285D01*
X179804819Y-90213809D02*
X179804819Y-90118571D01*
X179804819Y-90118571D02*
X179852438Y-90023333D01*
X179852438Y-90023333D02*
X179900057Y-89975714D01*
X179900057Y-89975714D02*
X179995295Y-89928095D01*
X179995295Y-89928095D02*
X180185771Y-89880476D01*
X180185771Y-89880476D02*
X180423866Y-89880476D01*
X180423866Y-89880476D02*
X180614342Y-89928095D01*
X180614342Y-89928095D02*
X180709580Y-89975714D01*
X180709580Y-89975714D02*
X180757200Y-90023333D01*
X180757200Y-90023333D02*
X180804819Y-90118571D01*
X180804819Y-90118571D02*
X180804819Y-90213809D01*
X180804819Y-90213809D02*
X180757200Y-90309047D01*
X180757200Y-90309047D02*
X180709580Y-90356666D01*
X180709580Y-90356666D02*
X180614342Y-90404285D01*
X180614342Y-90404285D02*
X180423866Y-90451904D01*
X180423866Y-90451904D02*
X180185771Y-90451904D01*
X180185771Y-90451904D02*
X179995295Y-90404285D01*
X179995295Y-90404285D02*
X179900057Y-90356666D01*
X179900057Y-90356666D02*
X179852438Y-90309047D01*
X179852438Y-90309047D02*
X179804819Y-90213809D01*
X180138152Y-89023333D02*
X180804819Y-89023333D01*
X180138152Y-89451904D02*
X180661961Y-89451904D01*
X180661961Y-89451904D02*
X180757200Y-89404285D01*
X180757200Y-89404285D02*
X180804819Y-89309047D01*
X180804819Y-89309047D02*
X180804819Y-89166190D01*
X180804819Y-89166190D02*
X180757200Y-89070952D01*
X180757200Y-89070952D02*
X180709580Y-89023333D01*
D11*
X178073281Y-90316666D02*
X178109472Y-90352857D01*
X178109472Y-90352857D02*
X178145662Y-90461428D01*
X178145662Y-90461428D02*
X178145662Y-90533809D01*
X178145662Y-90533809D02*
X178109472Y-90642381D01*
X178109472Y-90642381D02*
X178037091Y-90714762D01*
X178037091Y-90714762D02*
X177964710Y-90750952D01*
X177964710Y-90750952D02*
X177819948Y-90787143D01*
X177819948Y-90787143D02*
X177711376Y-90787143D01*
X177711376Y-90787143D02*
X177566614Y-90750952D01*
X177566614Y-90750952D02*
X177494233Y-90714762D01*
X177494233Y-90714762D02*
X177421852Y-90642381D01*
X177421852Y-90642381D02*
X177385662Y-90533809D01*
X177385662Y-90533809D02*
X177385662Y-90461428D01*
X177385662Y-90461428D02*
X177421852Y-90352857D01*
X177421852Y-90352857D02*
X177458043Y-90316666D01*
X177385662Y-90063333D02*
X177385662Y-89592857D01*
X177385662Y-89592857D02*
X177675186Y-89846190D01*
X177675186Y-89846190D02*
X177675186Y-89737619D01*
X177675186Y-89737619D02*
X177711376Y-89665238D01*
X177711376Y-89665238D02*
X177747567Y-89629047D01*
X177747567Y-89629047D02*
X177819948Y-89592857D01*
X177819948Y-89592857D02*
X178000900Y-89592857D01*
X178000900Y-89592857D02*
X178073281Y-89629047D01*
X178073281Y-89629047D02*
X178109472Y-89665238D01*
X178109472Y-89665238D02*
X178145662Y-89737619D01*
X178145662Y-89737619D02*
X178145662Y-89954762D01*
X178145662Y-89954762D02*
X178109472Y-90027143D01*
X178109472Y-90027143D02*
X178073281Y-90063333D01*
D12*
%TO.C,C2*%
X176500000Y-83210000D02*
X176500000Y-87010000D01*
X176500000Y-87010000D02*
X179100000Y-87010000D01*
X179100000Y-83210000D02*
X176500000Y-83210000D01*
X179100000Y-87010000D02*
X179100000Y-83210000D01*
%TO.C,SW4*%
X145030000Y-113550000D02*
X148030000Y-113550000D01*
X145030000Y-119550000D02*
X145030000Y-113550000D01*
X148030000Y-113550000D02*
X151030000Y-113550000D01*
X151030000Y-113550000D02*
X151030000Y-119550000D01*
X151030000Y-119550000D02*
X145030000Y-119550000D01*
X150045564Y-116550000D02*
G75*
G02*
X146014436Y-116550000I-2015564J0D01*
G01*
X146014436Y-116550000D02*
G75*
G02*
X150045564Y-116550000I2015564J0D01*
G01*
%TO.C,R1*%
X138430000Y-99060000D02*
X139830000Y-99060000D01*
X139830000Y-97260000D02*
X139830000Y-100860000D01*
X139830000Y-100860000D02*
X149730000Y-100860000D01*
X149730000Y-97260000D02*
X139830000Y-97260000D01*
X149730000Y-100860000D02*
X149730000Y-97260000D01*
X151130000Y-99060000D02*
X149730000Y-99060000D01*
%TO.C,J2*%
X158750000Y-72390000D02*
X168910000Y-72390000D01*
X158750000Y-74295000D02*
X158750000Y-72390000D01*
X159385000Y-74930000D02*
X158750000Y-74295000D01*
X168910000Y-72390000D02*
X168910000Y-74930000D01*
X168910000Y-74930000D02*
X159385000Y-74930000D01*
%TO.C,J4*%
X181610000Y-122555000D02*
X191770000Y-122555000D01*
X181610000Y-124460000D02*
X181610000Y-122555000D01*
X182245000Y-125095000D02*
X181610000Y-124460000D01*
X191770000Y-122555000D02*
X191770000Y-125095000D01*
X191770000Y-125095000D02*
X182245000Y-125095000D01*
%TO.C,C1*%
X181191500Y-81138972D02*
X181821500Y-81138972D01*
X181506500Y-81453972D02*
X181506500Y-80823972D01*
X186030000Y-78760000D02*
G75*
G02*
X179730000Y-78760000I-3150000J0D01*
G01*
X179730000Y-78760000D02*
G75*
G02*
X186030000Y-78760000I3150000J0D01*
G01*
%TO.C,SW3*%
X96770000Y-113550000D02*
X99770000Y-113550000D01*
X96770000Y-119550000D02*
X96770000Y-113550000D01*
X99770000Y-113550000D02*
X102770000Y-113550000D01*
X102770000Y-113550000D02*
X102770000Y-119550000D01*
X102770000Y-119550000D02*
X96770000Y-119550000D01*
X101785564Y-116550000D02*
G75*
G02*
X97754436Y-116550000I-2015564J0D01*
G01*
X97754436Y-116550000D02*
G75*
G02*
X101785564Y-116550000I2015564J0D01*
G01*
%TO.C,U3*%
X142240000Y-86995000D02*
X149860000Y-86995000D01*
X142240000Y-92345000D02*
X142240000Y-86995000D01*
X143240000Y-93345000D02*
X142240000Y-92345000D01*
X149860000Y-86995000D02*
X149860000Y-93345000D01*
X149860000Y-93345000D02*
X143240000Y-93345000D01*
%TO.C,SW5*%
X96770000Y-88150000D02*
X99770000Y-88150000D01*
X96770000Y-94150000D02*
X96770000Y-88150000D01*
X99770000Y-88150000D02*
X102770000Y-88150000D01*
X102770000Y-88150000D02*
X102770000Y-94150000D01*
X102770000Y-94150000D02*
X96770000Y-94150000D01*
X101785564Y-91150000D02*
G75*
G02*
X97754436Y-91150000I-2015564J0D01*
G01*
X97754436Y-91150000D02*
G75*
G02*
X101785564Y-91150000I2015564J0D01*
G01*
%TO.C,J1*%
X195580000Y-78105000D02*
X200660000Y-78105000D01*
X195580000Y-80010000D02*
X195580000Y-78105000D01*
X196215000Y-80645000D02*
X195580000Y-80010000D01*
X200660000Y-78105000D02*
X200660000Y-80645000D01*
X200660000Y-80645000D02*
X196215000Y-80645000D01*
%TO.C,SW2*%
X96770000Y-100850000D02*
X99770000Y-100850000D01*
X96770000Y-106850000D02*
X96770000Y-100850000D01*
X99770000Y-100850000D02*
X102770000Y-100850000D01*
X102770000Y-100850000D02*
X102770000Y-106850000D01*
X102770000Y-106850000D02*
X96770000Y-106850000D01*
X101785564Y-103850000D02*
G75*
G02*
X97754436Y-103850000I-2015564J0D01*
G01*
X97754436Y-103850000D02*
G75*
G02*
X101785564Y-103850000I2015564J0D01*
G01*
%TO.C,J3*%
X115210000Y-75565000D02*
X115845000Y-74930000D01*
X115210000Y-77470000D02*
X115210000Y-75565000D01*
X115845000Y-74930000D02*
X132990000Y-74930000D01*
X132990000Y-74930000D02*
X132990000Y-77470000D01*
X132990000Y-77470000D02*
X115210000Y-77470000D01*
%TO.C,U2*%
X181630000Y-83900000D02*
X181630000Y-93900000D01*
X181630000Y-93900000D02*
X186030000Y-93900000D01*
X184760000Y-83900000D02*
X184760000Y-93900000D01*
X186030000Y-83900000D02*
X181630000Y-83900000D01*
X186030000Y-87050000D02*
X184760000Y-87050000D01*
X186030000Y-90750000D02*
X184760000Y-90750000D01*
X186030000Y-93900000D02*
X186030000Y-83900000D01*
D13*
%TO.C,U1*%
X156110000Y-97450000D02*
X207110000Y-97450000D01*
X156110000Y-118450000D02*
X156110000Y-97450000D01*
X205810000Y-97450000D02*
X207110000Y-98750000D01*
X207110000Y-97450000D02*
X207110000Y-118450000D01*
X207110000Y-118450000D02*
X156110000Y-118450000D01*
D12*
%TO.C,J5*%
X144780000Y-81280000D02*
X149225000Y-81280000D01*
X144780000Y-83820000D02*
X144780000Y-81280000D01*
X149225000Y-81280000D02*
X149860000Y-81915000D01*
X149860000Y-81915000D02*
X149860000Y-83820000D01*
X149860000Y-83820000D02*
X144780000Y-83820000D01*
%TO.C,A1*%
X153670000Y-77470000D02*
X172720000Y-77470000D01*
X153670000Y-92710000D02*
X153670000Y-77470000D01*
X172720000Y-77470000D02*
X173990000Y-78740000D01*
X173990000Y-78740000D02*
X173990000Y-92710000D01*
X173990000Y-92710000D02*
X153670000Y-92710000D01*
%TO.C,C3*%
X176500000Y-88290000D02*
X176500000Y-92090000D01*
X176500000Y-92090000D02*
X179100000Y-92090000D01*
X179100000Y-88290000D02*
X176500000Y-88290000D01*
X179100000Y-92090000D02*
X179100000Y-88290000D01*
%TD*%
M02*
