%TF.GenerationSoftware,KiCad,Pcbnew,8.0.7*%
%TF.CreationDate,2026-03-12T18:24:38-07:00*%
%TF.ProjectId,macro_rail_kicad,6d616372-6f5f-4726-9169-6c5f6b696361,rev?*%
%TF.SameCoordinates,Original*%
%TF.FileFunction,Legend,Top*%
%TF.FilePolarity,Positive*%
%FSLAX46Y46*%
G04 Gerber Fmt 4.6, Leading zero omitted, Abs format (unit mm)*
G04 Created by KiCad (PCBNEW 8.0.7) date 2026-03-12 18:24:38*
%MOMM*%
%LPD*%
G01*
G04 APERTURE LIST*
%ADD10C,0.150000*%
%ADD11C,0.120000*%
G04 APERTURE END LIST*
D10*
X180709580Y-85276666D02*
X180757200Y-85324285D01*
X180757200Y-85324285D02*
X180804819Y-85467142D01*
X180804819Y-85467142D02*
X180804819Y-85562380D01*
X180804819Y-85562380D02*
X180757200Y-85705237D01*
X180757200Y-85705237D02*
X180661961Y-85800475D01*
X180661961Y-85800475D02*
X180566723Y-85848094D01*
X180566723Y-85848094D02*
X180376247Y-85895713D01*
X180376247Y-85895713D02*
X180233390Y-85895713D01*
X180233390Y-85895713D02*
X180042914Y-85848094D01*
X180042914Y-85848094D02*
X179947676Y-85800475D01*
X179947676Y-85800475D02*
X179852438Y-85705237D01*
X179852438Y-85705237D02*
X179804819Y-85562380D01*
X179804819Y-85562380D02*
X179804819Y-85467142D01*
X179804819Y-85467142D02*
X179852438Y-85324285D01*
X179852438Y-85324285D02*
X179900057Y-85276666D01*
X179900057Y-84895713D02*
X179852438Y-84848094D01*
X179852438Y-84848094D02*
X179804819Y-84752856D01*
X179804819Y-84752856D02*
X179804819Y-84514761D01*
X179804819Y-84514761D02*
X179852438Y-84419523D01*
X179852438Y-84419523D02*
X179900057Y-84371904D01*
X179900057Y-84371904D02*
X179995295Y-84324285D01*
X179995295Y-84324285D02*
X180090533Y-84324285D01*
X180090533Y-84324285D02*
X180233390Y-84371904D01*
X180233390Y-84371904D02*
X180804819Y-84943332D01*
X180804819Y-84943332D02*
X180804819Y-84324285D01*
X146696667Y-112707200D02*
X146839524Y-112754819D01*
X146839524Y-112754819D02*
X147077619Y-112754819D01*
X147077619Y-112754819D02*
X147172857Y-112707200D01*
X147172857Y-112707200D02*
X147220476Y-112659580D01*
X147220476Y-112659580D02*
X147268095Y-112564342D01*
X147268095Y-112564342D02*
X147268095Y-112469104D01*
X147268095Y-112469104D02*
X147220476Y-112373866D01*
X147220476Y-112373866D02*
X147172857Y-112326247D01*
X147172857Y-112326247D02*
X147077619Y-112278628D01*
X147077619Y-112278628D02*
X146887143Y-112231009D01*
X146887143Y-112231009D02*
X146791905Y-112183390D01*
X146791905Y-112183390D02*
X146744286Y-112135771D01*
X146744286Y-112135771D02*
X146696667Y-112040533D01*
X146696667Y-112040533D02*
X146696667Y-111945295D01*
X146696667Y-111945295D02*
X146744286Y-111850057D01*
X146744286Y-111850057D02*
X146791905Y-111802438D01*
X146791905Y-111802438D02*
X146887143Y-111754819D01*
X146887143Y-111754819D02*
X147125238Y-111754819D01*
X147125238Y-111754819D02*
X147268095Y-111802438D01*
X147601429Y-111754819D02*
X147839524Y-112754819D01*
X147839524Y-112754819D02*
X148030000Y-112040533D01*
X148030000Y-112040533D02*
X148220476Y-112754819D01*
X148220476Y-112754819D02*
X148458572Y-111754819D01*
X149268095Y-112088152D02*
X149268095Y-112754819D01*
X149030000Y-111707200D02*
X148791905Y-112421485D01*
X148791905Y-112421485D02*
X149410952Y-112421485D01*
X144613333Y-102434819D02*
X144280000Y-101958628D01*
X144041905Y-102434819D02*
X144041905Y-101434819D01*
X144041905Y-101434819D02*
X144422857Y-101434819D01*
X144422857Y-101434819D02*
X144518095Y-101482438D01*
X144518095Y-101482438D02*
X144565714Y-101530057D01*
X144565714Y-101530057D02*
X144613333Y-101625295D01*
X144613333Y-101625295D02*
X144613333Y-101768152D01*
X144613333Y-101768152D02*
X144565714Y-101863390D01*
X144565714Y-101863390D02*
X144518095Y-101911009D01*
X144518095Y-101911009D02*
X144422857Y-101958628D01*
X144422857Y-101958628D02*
X144041905Y-101958628D01*
X145565714Y-102434819D02*
X144994286Y-102434819D01*
X145280000Y-102434819D02*
X145280000Y-101434819D01*
X145280000Y-101434819D02*
X145184762Y-101577676D01*
X145184762Y-101577676D02*
X145089524Y-101672914D01*
X145089524Y-101672914D02*
X144994286Y-101720533D01*
X157144819Y-73993333D02*
X157859104Y-73993333D01*
X157859104Y-73993333D02*
X158001961Y-74040952D01*
X158001961Y-74040952D02*
X158097200Y-74136190D01*
X158097200Y-74136190D02*
X158144819Y-74279047D01*
X158144819Y-74279047D02*
X158144819Y-74374285D01*
X157240057Y-73564761D02*
X157192438Y-73517142D01*
X157192438Y-73517142D02*
X157144819Y-73421904D01*
X157144819Y-73421904D02*
X157144819Y-73183809D01*
X157144819Y-73183809D02*
X157192438Y-73088571D01*
X157192438Y-73088571D02*
X157240057Y-73040952D01*
X157240057Y-73040952D02*
X157335295Y-72993333D01*
X157335295Y-72993333D02*
X157430533Y-72993333D01*
X157430533Y-72993333D02*
X157573390Y-73040952D01*
X157573390Y-73040952D02*
X158144819Y-73612380D01*
X158144819Y-73612380D02*
X158144819Y-72993333D01*
X180004819Y-124158333D02*
X180719104Y-124158333D01*
X180719104Y-124158333D02*
X180861961Y-124205952D01*
X180861961Y-124205952D02*
X180957200Y-124301190D01*
X180957200Y-124301190D02*
X181004819Y-124444047D01*
X181004819Y-124444047D02*
X181004819Y-124539285D01*
X180338152Y-123253571D02*
X181004819Y-123253571D01*
X179957200Y-123491666D02*
X180671485Y-123729761D01*
X180671485Y-123729761D02*
X180671485Y-123110714D01*
X178839580Y-78926666D02*
X178887200Y-78974285D01*
X178887200Y-78974285D02*
X178934819Y-79117142D01*
X178934819Y-79117142D02*
X178934819Y-79212380D01*
X178934819Y-79212380D02*
X178887200Y-79355237D01*
X178887200Y-79355237D02*
X178791961Y-79450475D01*
X178791961Y-79450475D02*
X178696723Y-79498094D01*
X178696723Y-79498094D02*
X178506247Y-79545713D01*
X178506247Y-79545713D02*
X178363390Y-79545713D01*
X178363390Y-79545713D02*
X178172914Y-79498094D01*
X178172914Y-79498094D02*
X178077676Y-79450475D01*
X178077676Y-79450475D02*
X177982438Y-79355237D01*
X177982438Y-79355237D02*
X177934819Y-79212380D01*
X177934819Y-79212380D02*
X177934819Y-79117142D01*
X177934819Y-79117142D02*
X177982438Y-78974285D01*
X177982438Y-78974285D02*
X178030057Y-78926666D01*
X178934819Y-77974285D02*
X178934819Y-78545713D01*
X178934819Y-78259999D02*
X177934819Y-78259999D01*
X177934819Y-78259999D02*
X178077676Y-78355237D01*
X178077676Y-78355237D02*
X178172914Y-78450475D01*
X178172914Y-78450475D02*
X178220533Y-78545713D01*
X98436667Y-112707200D02*
X98579524Y-112754819D01*
X98579524Y-112754819D02*
X98817619Y-112754819D01*
X98817619Y-112754819D02*
X98912857Y-112707200D01*
X98912857Y-112707200D02*
X98960476Y-112659580D01*
X98960476Y-112659580D02*
X99008095Y-112564342D01*
X99008095Y-112564342D02*
X99008095Y-112469104D01*
X99008095Y-112469104D02*
X98960476Y-112373866D01*
X98960476Y-112373866D02*
X98912857Y-112326247D01*
X98912857Y-112326247D02*
X98817619Y-112278628D01*
X98817619Y-112278628D02*
X98627143Y-112231009D01*
X98627143Y-112231009D02*
X98531905Y-112183390D01*
X98531905Y-112183390D02*
X98484286Y-112135771D01*
X98484286Y-112135771D02*
X98436667Y-112040533D01*
X98436667Y-112040533D02*
X98436667Y-111945295D01*
X98436667Y-111945295D02*
X98484286Y-111850057D01*
X98484286Y-111850057D02*
X98531905Y-111802438D01*
X98531905Y-111802438D02*
X98627143Y-111754819D01*
X98627143Y-111754819D02*
X98865238Y-111754819D01*
X98865238Y-111754819D02*
X99008095Y-111802438D01*
X99341429Y-111754819D02*
X99579524Y-112754819D01*
X99579524Y-112754819D02*
X99770000Y-112040533D01*
X99770000Y-112040533D02*
X99960476Y-112754819D01*
X99960476Y-112754819D02*
X100198572Y-111754819D01*
X100484286Y-111754819D02*
X101103333Y-111754819D01*
X101103333Y-111754819D02*
X100770000Y-112135771D01*
X100770000Y-112135771D02*
X100912857Y-112135771D01*
X100912857Y-112135771D02*
X101008095Y-112183390D01*
X101008095Y-112183390D02*
X101055714Y-112231009D01*
X101055714Y-112231009D02*
X101103333Y-112326247D01*
X101103333Y-112326247D02*
X101103333Y-112564342D01*
X101103333Y-112564342D02*
X101055714Y-112659580D01*
X101055714Y-112659580D02*
X101008095Y-112707200D01*
X101008095Y-112707200D02*
X100912857Y-112754819D01*
X100912857Y-112754819D02*
X100627143Y-112754819D01*
X100627143Y-112754819D02*
X100531905Y-112707200D01*
X100531905Y-112707200D02*
X100484286Y-112659580D01*
X140634819Y-90931904D02*
X141444342Y-90931904D01*
X141444342Y-90931904D02*
X141539580Y-90884285D01*
X141539580Y-90884285D02*
X141587200Y-90836666D01*
X141587200Y-90836666D02*
X141634819Y-90741428D01*
X141634819Y-90741428D02*
X141634819Y-90550952D01*
X141634819Y-90550952D02*
X141587200Y-90455714D01*
X141587200Y-90455714D02*
X141539580Y-90408095D01*
X141539580Y-90408095D02*
X141444342Y-90360476D01*
X141444342Y-90360476D02*
X140634819Y-90360476D01*
X140634819Y-89979523D02*
X140634819Y-89360476D01*
X140634819Y-89360476D02*
X141015771Y-89693809D01*
X141015771Y-89693809D02*
X141015771Y-89550952D01*
X141015771Y-89550952D02*
X141063390Y-89455714D01*
X141063390Y-89455714D02*
X141111009Y-89408095D01*
X141111009Y-89408095D02*
X141206247Y-89360476D01*
X141206247Y-89360476D02*
X141444342Y-89360476D01*
X141444342Y-89360476D02*
X141539580Y-89408095D01*
X141539580Y-89408095D02*
X141587200Y-89455714D01*
X141587200Y-89455714D02*
X141634819Y-89550952D01*
X141634819Y-89550952D02*
X141634819Y-89836666D01*
X141634819Y-89836666D02*
X141587200Y-89931904D01*
X141587200Y-89931904D02*
X141539580Y-89979523D01*
X98436667Y-87307200D02*
X98579524Y-87354819D01*
X98579524Y-87354819D02*
X98817619Y-87354819D01*
X98817619Y-87354819D02*
X98912857Y-87307200D01*
X98912857Y-87307200D02*
X98960476Y-87259580D01*
X98960476Y-87259580D02*
X99008095Y-87164342D01*
X99008095Y-87164342D02*
X99008095Y-87069104D01*
X99008095Y-87069104D02*
X98960476Y-86973866D01*
X98960476Y-86973866D02*
X98912857Y-86926247D01*
X98912857Y-86926247D02*
X98817619Y-86878628D01*
X98817619Y-86878628D02*
X98627143Y-86831009D01*
X98627143Y-86831009D02*
X98531905Y-86783390D01*
X98531905Y-86783390D02*
X98484286Y-86735771D01*
X98484286Y-86735771D02*
X98436667Y-86640533D01*
X98436667Y-86640533D02*
X98436667Y-86545295D01*
X98436667Y-86545295D02*
X98484286Y-86450057D01*
X98484286Y-86450057D02*
X98531905Y-86402438D01*
X98531905Y-86402438D02*
X98627143Y-86354819D01*
X98627143Y-86354819D02*
X98865238Y-86354819D01*
X98865238Y-86354819D02*
X99008095Y-86402438D01*
X99341429Y-86354819D02*
X99579524Y-87354819D01*
X99579524Y-87354819D02*
X99770000Y-86640533D01*
X99770000Y-86640533D02*
X99960476Y-87354819D01*
X99960476Y-87354819D02*
X100198572Y-86354819D01*
X101055714Y-86354819D02*
X100579524Y-86354819D01*
X100579524Y-86354819D02*
X100531905Y-86831009D01*
X100531905Y-86831009D02*
X100579524Y-86783390D01*
X100579524Y-86783390D02*
X100674762Y-86735771D01*
X100674762Y-86735771D02*
X100912857Y-86735771D01*
X100912857Y-86735771D02*
X101008095Y-86783390D01*
X101008095Y-86783390D02*
X101055714Y-86831009D01*
X101055714Y-86831009D02*
X101103333Y-86926247D01*
X101103333Y-86926247D02*
X101103333Y-87164342D01*
X101103333Y-87164342D02*
X101055714Y-87259580D01*
X101055714Y-87259580D02*
X101008095Y-87307200D01*
X101008095Y-87307200D02*
X100912857Y-87354819D01*
X100912857Y-87354819D02*
X100674762Y-87354819D01*
X100674762Y-87354819D02*
X100579524Y-87307200D01*
X100579524Y-87307200D02*
X100531905Y-87259580D01*
X193974819Y-79708333D02*
X194689104Y-79708333D01*
X194689104Y-79708333D02*
X194831961Y-79755952D01*
X194831961Y-79755952D02*
X194927200Y-79851190D01*
X194927200Y-79851190D02*
X194974819Y-79994047D01*
X194974819Y-79994047D02*
X194974819Y-80089285D01*
X194974819Y-78708333D02*
X194974819Y-79279761D01*
X194974819Y-78994047D02*
X193974819Y-78994047D01*
X193974819Y-78994047D02*
X194117676Y-79089285D01*
X194117676Y-79089285D02*
X194212914Y-79184523D01*
X194212914Y-79184523D02*
X194260533Y-79279761D01*
X98436667Y-100007200D02*
X98579524Y-100054819D01*
X98579524Y-100054819D02*
X98817619Y-100054819D01*
X98817619Y-100054819D02*
X98912857Y-100007200D01*
X98912857Y-100007200D02*
X98960476Y-99959580D01*
X98960476Y-99959580D02*
X99008095Y-99864342D01*
X99008095Y-99864342D02*
X99008095Y-99769104D01*
X99008095Y-99769104D02*
X98960476Y-99673866D01*
X98960476Y-99673866D02*
X98912857Y-99626247D01*
X98912857Y-99626247D02*
X98817619Y-99578628D01*
X98817619Y-99578628D02*
X98627143Y-99531009D01*
X98627143Y-99531009D02*
X98531905Y-99483390D01*
X98531905Y-99483390D02*
X98484286Y-99435771D01*
X98484286Y-99435771D02*
X98436667Y-99340533D01*
X98436667Y-99340533D02*
X98436667Y-99245295D01*
X98436667Y-99245295D02*
X98484286Y-99150057D01*
X98484286Y-99150057D02*
X98531905Y-99102438D01*
X98531905Y-99102438D02*
X98627143Y-99054819D01*
X98627143Y-99054819D02*
X98865238Y-99054819D01*
X98865238Y-99054819D02*
X99008095Y-99102438D01*
X99341429Y-99054819D02*
X99579524Y-100054819D01*
X99579524Y-100054819D02*
X99770000Y-99340533D01*
X99770000Y-99340533D02*
X99960476Y-100054819D01*
X99960476Y-100054819D02*
X100198572Y-99054819D01*
X100531905Y-99150057D02*
X100579524Y-99102438D01*
X100579524Y-99102438D02*
X100674762Y-99054819D01*
X100674762Y-99054819D02*
X100912857Y-99054819D01*
X100912857Y-99054819D02*
X101008095Y-99102438D01*
X101008095Y-99102438D02*
X101055714Y-99150057D01*
X101055714Y-99150057D02*
X101103333Y-99245295D01*
X101103333Y-99245295D02*
X101103333Y-99340533D01*
X101103333Y-99340533D02*
X101055714Y-99483390D01*
X101055714Y-99483390D02*
X100484286Y-100054819D01*
X100484286Y-100054819D02*
X101103333Y-100054819D01*
X116146666Y-72581419D02*
X116146666Y-73295704D01*
X116146666Y-73295704D02*
X116099047Y-73438561D01*
X116099047Y-73438561D02*
X116003809Y-73533800D01*
X116003809Y-73533800D02*
X115860952Y-73581419D01*
X115860952Y-73581419D02*
X115765714Y-73581419D01*
X116527619Y-72581419D02*
X117146666Y-72581419D01*
X117146666Y-72581419D02*
X116813333Y-72962371D01*
X116813333Y-72962371D02*
X116956190Y-72962371D01*
X116956190Y-72962371D02*
X117051428Y-73009990D01*
X117051428Y-73009990D02*
X117099047Y-73057609D01*
X117099047Y-73057609D02*
X117146666Y-73152847D01*
X117146666Y-73152847D02*
X117146666Y-73390942D01*
X117146666Y-73390942D02*
X117099047Y-73486180D01*
X117099047Y-73486180D02*
X117051428Y-73533800D01*
X117051428Y-73533800D02*
X116956190Y-73581419D01*
X116956190Y-73581419D02*
X116670476Y-73581419D01*
X116670476Y-73581419D02*
X116575238Y-73533800D01*
X116575238Y-73533800D02*
X116527619Y-73486180D01*
X186604819Y-89661904D02*
X187414342Y-89661904D01*
X187414342Y-89661904D02*
X187509580Y-89614285D01*
X187509580Y-89614285D02*
X187557200Y-89566666D01*
X187557200Y-89566666D02*
X187604819Y-89471428D01*
X187604819Y-89471428D02*
X187604819Y-89280952D01*
X187604819Y-89280952D02*
X187557200Y-89185714D01*
X187557200Y-89185714D02*
X187509580Y-89138095D01*
X187509580Y-89138095D02*
X187414342Y-89090476D01*
X187414342Y-89090476D02*
X186604819Y-89090476D01*
X186700057Y-88661904D02*
X186652438Y-88614285D01*
X186652438Y-88614285D02*
X186604819Y-88519047D01*
X186604819Y-88519047D02*
X186604819Y-88280952D01*
X186604819Y-88280952D02*
X186652438Y-88185714D01*
X186652438Y-88185714D02*
X186700057Y-88138095D01*
X186700057Y-88138095D02*
X186795295Y-88090476D01*
X186795295Y-88090476D02*
X186890533Y-88090476D01*
X186890533Y-88090476D02*
X187033390Y-88138095D01*
X187033390Y-88138095D02*
X187604819Y-88709523D01*
X187604819Y-88709523D02*
X187604819Y-88090476D01*
X181064819Y-108711904D02*
X181874342Y-108711904D01*
X181874342Y-108711904D02*
X181969580Y-108664285D01*
X181969580Y-108664285D02*
X182017200Y-108616666D01*
X182017200Y-108616666D02*
X182064819Y-108521428D01*
X182064819Y-108521428D02*
X182064819Y-108330952D01*
X182064819Y-108330952D02*
X182017200Y-108235714D01*
X182017200Y-108235714D02*
X181969580Y-108188095D01*
X181969580Y-108188095D02*
X181874342Y-108140476D01*
X181874342Y-108140476D02*
X181064819Y-108140476D01*
X182064819Y-107140476D02*
X182064819Y-107711904D01*
X182064819Y-107426190D02*
X181064819Y-107426190D01*
X181064819Y-107426190D02*
X181207676Y-107521428D01*
X181207676Y-107521428D02*
X181302914Y-107616666D01*
X181302914Y-107616666D02*
X181350533Y-107711904D01*
X182788505Y-94563372D02*
X182761568Y-94482560D01*
X182761568Y-94482560D02*
X182680756Y-94401748D01*
X182680756Y-94401748D02*
X182573006Y-94347873D01*
X182573006Y-94347873D02*
X182465257Y-94347873D01*
X182465257Y-94347873D02*
X182384444Y-94374810D01*
X182384444Y-94374810D02*
X182249757Y-94455623D01*
X182249757Y-94455623D02*
X182168945Y-94536435D01*
X182168945Y-94536435D02*
X182088133Y-94671122D01*
X182088133Y-94671122D02*
X182061196Y-94751934D01*
X182061196Y-94751934D02*
X182061196Y-94859684D01*
X182061196Y-94859684D02*
X182115070Y-94967433D01*
X182115070Y-94967433D02*
X182168945Y-95021308D01*
X182168945Y-95021308D02*
X182276695Y-95075183D01*
X182276695Y-95075183D02*
X182330570Y-95075183D01*
X182330570Y-95075183D02*
X182519131Y-94886621D01*
X182519131Y-94886621D02*
X182411382Y-94778871D01*
X182519131Y-95371494D02*
X183084817Y-94805809D01*
X183084817Y-94805809D02*
X183300316Y-95021308D01*
X183300316Y-95021308D02*
X183327253Y-95102120D01*
X183327253Y-95102120D02*
X183327253Y-95155995D01*
X183327253Y-95155995D02*
X183300316Y-95236807D01*
X183300316Y-95236807D02*
X183219504Y-95317619D01*
X183219504Y-95317619D02*
X183138692Y-95344557D01*
X183138692Y-95344557D02*
X183084817Y-95344557D01*
X183084817Y-95344557D02*
X183004005Y-95317619D01*
X183004005Y-95317619D02*
X182788505Y-95102120D01*
X183596627Y-95317619D02*
X183973751Y-95694743D01*
X183973751Y-95694743D02*
X183165629Y-96017992D01*
X195119131Y-119840123D02*
X195469317Y-120190309D01*
X195469317Y-120190309D02*
X195065256Y-120217247D01*
X195065256Y-120217247D02*
X195146068Y-120298059D01*
X195146068Y-120298059D02*
X195173006Y-120378871D01*
X195173006Y-120378871D02*
X195173006Y-120432746D01*
X195173006Y-120432746D02*
X195146068Y-120513558D01*
X195146068Y-120513558D02*
X195011381Y-120648245D01*
X195011381Y-120648245D02*
X194930569Y-120675182D01*
X194930569Y-120675182D02*
X194876694Y-120675182D01*
X194876694Y-120675182D02*
X194795882Y-120648245D01*
X194795882Y-120648245D02*
X194634258Y-120486621D01*
X194634258Y-120486621D02*
X194607320Y-120405808D01*
X194607320Y-120405808D02*
X194607320Y-120351934D01*
X195630942Y-120351934D02*
X195253818Y-121106181D01*
X195253818Y-121106181D02*
X196008065Y-120729057D01*
X196142752Y-120863744D02*
X196492938Y-121213930D01*
X196492938Y-121213930D02*
X196088877Y-121240868D01*
X196088877Y-121240868D02*
X196169690Y-121321680D01*
X196169690Y-121321680D02*
X196196627Y-121402492D01*
X196196627Y-121402492D02*
X196196627Y-121456367D01*
X196196627Y-121456367D02*
X196169690Y-121537179D01*
X196169690Y-121537179D02*
X196035003Y-121671866D01*
X196035003Y-121671866D02*
X195954190Y-121698804D01*
X195954190Y-121698804D02*
X195900316Y-121698804D01*
X195900316Y-121698804D02*
X195819503Y-121671866D01*
X195819503Y-121671866D02*
X195657879Y-121510242D01*
X195657879Y-121510242D02*
X195630942Y-121429430D01*
X195630942Y-121429430D02*
X195630942Y-121375555D01*
X175111568Y-120036435D02*
X175084631Y-119955623D01*
X175084631Y-119955623D02*
X175003819Y-119874811D01*
X175003819Y-119874811D02*
X174896069Y-119820936D01*
X174896069Y-119820936D02*
X174788319Y-119820936D01*
X174788319Y-119820936D02*
X174707507Y-119847873D01*
X174707507Y-119847873D02*
X174572820Y-119928685D01*
X174572820Y-119928685D02*
X174492008Y-120009498D01*
X174492008Y-120009498D02*
X174411196Y-120144185D01*
X174411196Y-120144185D02*
X174384258Y-120224997D01*
X174384258Y-120224997D02*
X174384258Y-120332746D01*
X174384258Y-120332746D02*
X174438133Y-120440496D01*
X174438133Y-120440496D02*
X174492008Y-120494371D01*
X174492008Y-120494371D02*
X174599758Y-120548246D01*
X174599758Y-120548246D02*
X174653632Y-120548246D01*
X174653632Y-120548246D02*
X174842194Y-120359684D01*
X174842194Y-120359684D02*
X174734445Y-120251934D01*
X174842194Y-120844557D02*
X175407880Y-120278872D01*
X175407880Y-120278872D02*
X175165443Y-121167806D01*
X175165443Y-121167806D02*
X175731128Y-120602120D01*
X175434817Y-121437180D02*
X176000502Y-120871494D01*
X176000502Y-120871494D02*
X176135189Y-121006181D01*
X176135189Y-121006181D02*
X176189064Y-121113931D01*
X176189064Y-121113931D02*
X176189064Y-121221680D01*
X176189064Y-121221680D02*
X176162127Y-121302493D01*
X176162127Y-121302493D02*
X176081314Y-121437180D01*
X176081314Y-121437180D02*
X176000502Y-121517992D01*
X176000502Y-121517992D02*
X175865815Y-121598804D01*
X175865815Y-121598804D02*
X175785003Y-121625741D01*
X175785003Y-121625741D02*
X175677253Y-121625741D01*
X175677253Y-121625741D02*
X175569504Y-121571867D01*
X175569504Y-121571867D02*
X175434817Y-121437180D01*
X190363131Y-120047998D02*
X190336194Y-119967185D01*
X190336194Y-119967185D02*
X190255381Y-119886373D01*
X190255381Y-119886373D02*
X190147632Y-119832498D01*
X190147632Y-119832498D02*
X190039882Y-119832498D01*
X190039882Y-119832498D02*
X189959070Y-119859436D01*
X189959070Y-119859436D02*
X189824383Y-119940248D01*
X189824383Y-119940248D02*
X189743571Y-120021060D01*
X189743571Y-120021060D02*
X189662758Y-120155747D01*
X189662758Y-120155747D02*
X189635821Y-120236560D01*
X189635821Y-120236560D02*
X189635821Y-120344309D01*
X189635821Y-120344309D02*
X189689696Y-120452059D01*
X189689696Y-120452059D02*
X189743571Y-120505934D01*
X189743571Y-120505934D02*
X189851320Y-120559808D01*
X189851320Y-120559808D02*
X189905195Y-120559808D01*
X189905195Y-120559808D02*
X190093757Y-120371247D01*
X190093757Y-120371247D02*
X189986007Y-120263497D01*
X190093757Y-120856120D02*
X190659442Y-120290434D01*
X190659442Y-120290434D02*
X190874942Y-120505934D01*
X190874942Y-120505934D02*
X190901879Y-120586746D01*
X190901879Y-120586746D02*
X190901879Y-120640621D01*
X190901879Y-120640621D02*
X190874942Y-120721433D01*
X190874942Y-120721433D02*
X190794129Y-120802245D01*
X190794129Y-120802245D02*
X190713317Y-120829182D01*
X190713317Y-120829182D02*
X190659442Y-120829182D01*
X190659442Y-120829182D02*
X190578630Y-120802245D01*
X190578630Y-120802245D02*
X190363131Y-120586746D01*
X191144316Y-120883057D02*
X191198190Y-120883057D01*
X191198190Y-120883057D02*
X191279003Y-120909995D01*
X191279003Y-120909995D02*
X191413690Y-121044682D01*
X191413690Y-121044682D02*
X191440627Y-121125494D01*
X191440627Y-121125494D02*
X191440627Y-121179369D01*
X191440627Y-121179369D02*
X191413690Y-121260181D01*
X191413690Y-121260181D02*
X191359815Y-121314056D01*
X191359815Y-121314056D02*
X191252065Y-121367930D01*
X191252065Y-121367930D02*
X190605568Y-121367930D01*
X190605568Y-121367930D02*
X190955754Y-121718117D01*
X191602252Y-121718117D02*
X191575314Y-121637305D01*
X191575314Y-121637305D02*
X191575314Y-121583430D01*
X191575314Y-121583430D02*
X191602252Y-121502618D01*
X191602252Y-121502618D02*
X191629189Y-121475680D01*
X191629189Y-121475680D02*
X191710001Y-121448743D01*
X191710001Y-121448743D02*
X191763876Y-121448743D01*
X191763876Y-121448743D02*
X191844688Y-121475680D01*
X191844688Y-121475680D02*
X191952438Y-121583430D01*
X191952438Y-121583430D02*
X191979375Y-121664242D01*
X191979375Y-121664242D02*
X191979375Y-121718117D01*
X191979375Y-121718117D02*
X191952438Y-121798929D01*
X191952438Y-121798929D02*
X191925500Y-121825866D01*
X191925500Y-121825866D02*
X191844688Y-121852804D01*
X191844688Y-121852804D02*
X191790813Y-121852804D01*
X191790813Y-121852804D02*
X191710001Y-121825866D01*
X191710001Y-121825866D02*
X191602252Y-121718117D01*
X191602252Y-121718117D02*
X191521439Y-121691179D01*
X191521439Y-121691179D02*
X191467565Y-121691179D01*
X191467565Y-121691179D02*
X191386752Y-121718117D01*
X191386752Y-121718117D02*
X191279003Y-121825866D01*
X191279003Y-121825866D02*
X191252065Y-121906679D01*
X191252065Y-121906679D02*
X191252065Y-121960553D01*
X191252065Y-121960553D02*
X191279003Y-122041366D01*
X191279003Y-122041366D02*
X191386752Y-122149115D01*
X191386752Y-122149115D02*
X191467565Y-122176053D01*
X191467565Y-122176053D02*
X191521439Y-122176053D01*
X191521439Y-122176053D02*
X191602252Y-122149115D01*
X191602252Y-122149115D02*
X191710001Y-122041366D01*
X191710001Y-122041366D02*
X191736939Y-121960553D01*
X191736939Y-121960553D02*
X191736939Y-121906679D01*
X191736939Y-121906679D02*
X191710001Y-121825866D01*
X164709131Y-93939998D02*
X164682194Y-93859185D01*
X164682194Y-93859185D02*
X164601381Y-93778373D01*
X164601381Y-93778373D02*
X164493632Y-93724498D01*
X164493632Y-93724498D02*
X164385882Y-93724498D01*
X164385882Y-93724498D02*
X164305070Y-93751436D01*
X164305070Y-93751436D02*
X164170383Y-93832248D01*
X164170383Y-93832248D02*
X164089571Y-93913060D01*
X164089571Y-93913060D02*
X164008758Y-94047747D01*
X164008758Y-94047747D02*
X163981821Y-94128560D01*
X163981821Y-94128560D02*
X163981821Y-94236309D01*
X163981821Y-94236309D02*
X164035696Y-94344059D01*
X164035696Y-94344059D02*
X164089571Y-94397934D01*
X164089571Y-94397934D02*
X164197320Y-94451808D01*
X164197320Y-94451808D02*
X164251195Y-94451808D01*
X164251195Y-94451808D02*
X164439757Y-94263247D01*
X164439757Y-94263247D02*
X164332007Y-94155497D01*
X164439757Y-94748120D02*
X165005442Y-94182434D01*
X165005442Y-94182434D02*
X165220942Y-94397934D01*
X165220942Y-94397934D02*
X165247879Y-94478746D01*
X165247879Y-94478746D02*
X165247879Y-94532621D01*
X165247879Y-94532621D02*
X165220942Y-94613433D01*
X165220942Y-94613433D02*
X165140129Y-94694245D01*
X165140129Y-94694245D02*
X165059317Y-94721182D01*
X165059317Y-94721182D02*
X165005442Y-94721182D01*
X165005442Y-94721182D02*
X164924630Y-94694245D01*
X164924630Y-94694245D02*
X164709131Y-94478746D01*
X165301754Y-95610117D02*
X164978505Y-95286868D01*
X165140129Y-95448492D02*
X165705815Y-94882807D01*
X165705815Y-94882807D02*
X165571128Y-94909744D01*
X165571128Y-94909744D02*
X165463378Y-94909744D01*
X165463378Y-94909744D02*
X165382566Y-94882807D01*
X166056001Y-95232993D02*
X166406187Y-95583179D01*
X166406187Y-95583179D02*
X166002126Y-95610117D01*
X166002126Y-95610117D02*
X166082939Y-95690929D01*
X166082939Y-95690929D02*
X166109876Y-95771741D01*
X166109876Y-95771741D02*
X166109876Y-95825616D01*
X166109876Y-95825616D02*
X166082939Y-95906428D01*
X166082939Y-95906428D02*
X165948252Y-96041115D01*
X165948252Y-96041115D02*
X165867439Y-96068053D01*
X165867439Y-96068053D02*
X165813565Y-96068053D01*
X165813565Y-96068053D02*
X165732752Y-96041115D01*
X165732752Y-96041115D02*
X165571128Y-95879491D01*
X165571128Y-95879491D02*
X165544191Y-95798679D01*
X165544191Y-95798679D02*
X165544191Y-95744804D01*
X157089131Y-120047998D02*
X157062194Y-119967185D01*
X157062194Y-119967185D02*
X156981381Y-119886373D01*
X156981381Y-119886373D02*
X156873632Y-119832498D01*
X156873632Y-119832498D02*
X156765882Y-119832498D01*
X156765882Y-119832498D02*
X156685070Y-119859436D01*
X156685070Y-119859436D02*
X156550383Y-119940248D01*
X156550383Y-119940248D02*
X156469571Y-120021060D01*
X156469571Y-120021060D02*
X156388758Y-120155747D01*
X156388758Y-120155747D02*
X156361821Y-120236560D01*
X156361821Y-120236560D02*
X156361821Y-120344309D01*
X156361821Y-120344309D02*
X156415696Y-120452059D01*
X156415696Y-120452059D02*
X156469571Y-120505934D01*
X156469571Y-120505934D02*
X156577320Y-120559808D01*
X156577320Y-120559808D02*
X156631195Y-120559808D01*
X156631195Y-120559808D02*
X156819757Y-120371247D01*
X156819757Y-120371247D02*
X156712007Y-120263497D01*
X156819757Y-120856120D02*
X157385442Y-120290434D01*
X157385442Y-120290434D02*
X157600942Y-120505934D01*
X157600942Y-120505934D02*
X157627879Y-120586746D01*
X157627879Y-120586746D02*
X157627879Y-120640621D01*
X157627879Y-120640621D02*
X157600942Y-120721433D01*
X157600942Y-120721433D02*
X157520129Y-120802245D01*
X157520129Y-120802245D02*
X157439317Y-120829182D01*
X157439317Y-120829182D02*
X157385442Y-120829182D01*
X157385442Y-120829182D02*
X157304630Y-120802245D01*
X157304630Y-120802245D02*
X157089131Y-120586746D01*
X157681754Y-121718117D02*
X157358505Y-121394868D01*
X157520129Y-121556492D02*
X158085815Y-120990807D01*
X158085815Y-120990807D02*
X157951128Y-121017744D01*
X157951128Y-121017744D02*
X157843378Y-121017744D01*
X157843378Y-121017744D02*
X157762566Y-120990807D01*
X158732313Y-121637305D02*
X158624563Y-121529555D01*
X158624563Y-121529555D02*
X158543751Y-121502618D01*
X158543751Y-121502618D02*
X158489876Y-121502618D01*
X158489876Y-121502618D02*
X158355189Y-121529555D01*
X158355189Y-121529555D02*
X158220502Y-121610367D01*
X158220502Y-121610367D02*
X158005003Y-121825866D01*
X158005003Y-121825866D02*
X157978065Y-121906679D01*
X157978065Y-121906679D02*
X157978065Y-121960553D01*
X157978065Y-121960553D02*
X158005003Y-122041366D01*
X158005003Y-122041366D02*
X158112752Y-122149115D01*
X158112752Y-122149115D02*
X158193565Y-122176053D01*
X158193565Y-122176053D02*
X158247439Y-122176053D01*
X158247439Y-122176053D02*
X158328252Y-122149115D01*
X158328252Y-122149115D02*
X158462939Y-122014428D01*
X158462939Y-122014428D02*
X158489876Y-121933616D01*
X158489876Y-121933616D02*
X158489876Y-121879741D01*
X158489876Y-121879741D02*
X158462939Y-121798929D01*
X158462939Y-121798929D02*
X158355189Y-121691179D01*
X158355189Y-121691179D02*
X158274377Y-121664242D01*
X158274377Y-121664242D02*
X158220502Y-121664242D01*
X158220502Y-121664242D02*
X158139690Y-121691179D01*
X192918505Y-94463372D02*
X192891568Y-94382560D01*
X192891568Y-94382560D02*
X192810756Y-94301748D01*
X192810756Y-94301748D02*
X192703006Y-94247873D01*
X192703006Y-94247873D02*
X192595257Y-94247873D01*
X192595257Y-94247873D02*
X192514444Y-94274810D01*
X192514444Y-94274810D02*
X192379757Y-94355623D01*
X192379757Y-94355623D02*
X192298945Y-94436435D01*
X192298945Y-94436435D02*
X192218133Y-94571122D01*
X192218133Y-94571122D02*
X192191196Y-94651934D01*
X192191196Y-94651934D02*
X192191196Y-94759684D01*
X192191196Y-94759684D02*
X192245070Y-94867433D01*
X192245070Y-94867433D02*
X192298945Y-94921308D01*
X192298945Y-94921308D02*
X192406695Y-94975183D01*
X192406695Y-94975183D02*
X192460570Y-94975183D01*
X192460570Y-94975183D02*
X192649131Y-94786621D01*
X192649131Y-94786621D02*
X192541382Y-94678871D01*
X192649131Y-95271494D02*
X193214817Y-94705809D01*
X193214817Y-94705809D02*
X193430316Y-94921308D01*
X193430316Y-94921308D02*
X193457253Y-95002120D01*
X193457253Y-95002120D02*
X193457253Y-95055995D01*
X193457253Y-95055995D02*
X193430316Y-95136807D01*
X193430316Y-95136807D02*
X193349504Y-95217619D01*
X193349504Y-95217619D02*
X193268692Y-95244557D01*
X193268692Y-95244557D02*
X193214817Y-95244557D01*
X193214817Y-95244557D02*
X193134005Y-95217619D01*
X193134005Y-95217619D02*
X192918505Y-95002120D01*
X193834377Y-95702493D02*
X193457253Y-96079616D01*
X193915189Y-95352306D02*
X193376441Y-95621680D01*
X193376441Y-95621680D02*
X193726627Y-95971867D01*
X157089131Y-93939998D02*
X157062194Y-93859185D01*
X157062194Y-93859185D02*
X156981381Y-93778373D01*
X156981381Y-93778373D02*
X156873632Y-93724498D01*
X156873632Y-93724498D02*
X156765882Y-93724498D01*
X156765882Y-93724498D02*
X156685070Y-93751436D01*
X156685070Y-93751436D02*
X156550383Y-93832248D01*
X156550383Y-93832248D02*
X156469571Y-93913060D01*
X156469571Y-93913060D02*
X156388758Y-94047747D01*
X156388758Y-94047747D02*
X156361821Y-94128560D01*
X156361821Y-94128560D02*
X156361821Y-94236309D01*
X156361821Y-94236309D02*
X156415696Y-94344059D01*
X156415696Y-94344059D02*
X156469571Y-94397934D01*
X156469571Y-94397934D02*
X156577320Y-94451808D01*
X156577320Y-94451808D02*
X156631195Y-94451808D01*
X156631195Y-94451808D02*
X156819757Y-94263247D01*
X156819757Y-94263247D02*
X156712007Y-94155497D01*
X156819757Y-94748120D02*
X157385442Y-94182434D01*
X157385442Y-94182434D02*
X157600942Y-94397934D01*
X157600942Y-94397934D02*
X157627879Y-94478746D01*
X157627879Y-94478746D02*
X157627879Y-94532621D01*
X157627879Y-94532621D02*
X157600942Y-94613433D01*
X157600942Y-94613433D02*
X157520129Y-94694245D01*
X157520129Y-94694245D02*
X157439317Y-94721182D01*
X157439317Y-94721182D02*
X157385442Y-94721182D01*
X157385442Y-94721182D02*
X157304630Y-94694245D01*
X157304630Y-94694245D02*
X157089131Y-94478746D01*
X157681754Y-95610117D02*
X157358505Y-95286868D01*
X157520129Y-95448492D02*
X158085815Y-94882807D01*
X158085815Y-94882807D02*
X157951128Y-94909744D01*
X157951128Y-94909744D02*
X157843378Y-94909744D01*
X157843378Y-94909744D02*
X157762566Y-94882807D01*
X158759250Y-95556242D02*
X158489876Y-95286868D01*
X158489876Y-95286868D02*
X158193565Y-95529305D01*
X158193565Y-95529305D02*
X158247439Y-95529305D01*
X158247439Y-95529305D02*
X158328252Y-95556242D01*
X158328252Y-95556242D02*
X158462939Y-95690929D01*
X158462939Y-95690929D02*
X158489876Y-95771741D01*
X158489876Y-95771741D02*
X158489876Y-95825616D01*
X158489876Y-95825616D02*
X158462939Y-95906428D01*
X158462939Y-95906428D02*
X158328252Y-96041115D01*
X158328252Y-96041115D02*
X158247439Y-96068053D01*
X158247439Y-96068053D02*
X158193565Y-96068053D01*
X158193565Y-96068053D02*
X158112752Y-96041115D01*
X158112752Y-96041115D02*
X157978065Y-95906428D01*
X157978065Y-95906428D02*
X157951128Y-95825616D01*
X157951128Y-95825616D02*
X157951128Y-95771741D01*
X177678505Y-94463372D02*
X177651568Y-94382560D01*
X177651568Y-94382560D02*
X177570756Y-94301748D01*
X177570756Y-94301748D02*
X177463006Y-94247873D01*
X177463006Y-94247873D02*
X177355257Y-94247873D01*
X177355257Y-94247873D02*
X177274444Y-94274810D01*
X177274444Y-94274810D02*
X177139757Y-94355623D01*
X177139757Y-94355623D02*
X177058945Y-94436435D01*
X177058945Y-94436435D02*
X176978133Y-94571122D01*
X176978133Y-94571122D02*
X176951196Y-94651934D01*
X176951196Y-94651934D02*
X176951196Y-94759684D01*
X176951196Y-94759684D02*
X177005070Y-94867433D01*
X177005070Y-94867433D02*
X177058945Y-94921308D01*
X177058945Y-94921308D02*
X177166695Y-94975183D01*
X177166695Y-94975183D02*
X177220570Y-94975183D01*
X177220570Y-94975183D02*
X177409131Y-94786621D01*
X177409131Y-94786621D02*
X177301382Y-94678871D01*
X177409131Y-95271494D02*
X177974817Y-94705809D01*
X177974817Y-94705809D02*
X178190316Y-94921308D01*
X178190316Y-94921308D02*
X178217253Y-95002120D01*
X178217253Y-95002120D02*
X178217253Y-95055995D01*
X178217253Y-95055995D02*
X178190316Y-95136807D01*
X178190316Y-95136807D02*
X178109504Y-95217619D01*
X178109504Y-95217619D02*
X178028692Y-95244557D01*
X178028692Y-95244557D02*
X177974817Y-95244557D01*
X177974817Y-95244557D02*
X177894005Y-95217619D01*
X177894005Y-95217619D02*
X177678505Y-95002120D01*
X178001754Y-95864117D02*
X178109504Y-95971867D01*
X178109504Y-95971867D02*
X178190316Y-95998804D01*
X178190316Y-95998804D02*
X178244191Y-95998804D01*
X178244191Y-95998804D02*
X178378878Y-95971867D01*
X178378878Y-95971867D02*
X178513565Y-95891054D01*
X178513565Y-95891054D02*
X178729064Y-95675555D01*
X178729064Y-95675555D02*
X178756001Y-95594743D01*
X178756001Y-95594743D02*
X178756001Y-95540868D01*
X178756001Y-95540868D02*
X178729064Y-95460056D01*
X178729064Y-95460056D02*
X178621314Y-95352306D01*
X178621314Y-95352306D02*
X178540502Y-95325369D01*
X178540502Y-95325369D02*
X178486627Y-95325369D01*
X178486627Y-95325369D02*
X178405815Y-95352306D01*
X178405815Y-95352306D02*
X178271128Y-95486993D01*
X178271128Y-95486993D02*
X178244191Y-95567806D01*
X178244191Y-95567806D02*
X178244191Y-95621680D01*
X178244191Y-95621680D02*
X178271128Y-95702493D01*
X178271128Y-95702493D02*
X178378878Y-95810242D01*
X178378878Y-95810242D02*
X178459690Y-95837180D01*
X178459690Y-95837180D02*
X178513565Y-95837180D01*
X178513565Y-95837180D02*
X178594377Y-95810242D01*
X164709131Y-120047998D02*
X164682194Y-119967185D01*
X164682194Y-119967185D02*
X164601381Y-119886373D01*
X164601381Y-119886373D02*
X164493632Y-119832498D01*
X164493632Y-119832498D02*
X164385882Y-119832498D01*
X164385882Y-119832498D02*
X164305070Y-119859436D01*
X164305070Y-119859436D02*
X164170383Y-119940248D01*
X164170383Y-119940248D02*
X164089571Y-120021060D01*
X164089571Y-120021060D02*
X164008758Y-120155747D01*
X164008758Y-120155747D02*
X163981821Y-120236560D01*
X163981821Y-120236560D02*
X163981821Y-120344309D01*
X163981821Y-120344309D02*
X164035696Y-120452059D01*
X164035696Y-120452059D02*
X164089571Y-120505934D01*
X164089571Y-120505934D02*
X164197320Y-120559808D01*
X164197320Y-120559808D02*
X164251195Y-120559808D01*
X164251195Y-120559808D02*
X164439757Y-120371247D01*
X164439757Y-120371247D02*
X164332007Y-120263497D01*
X164439757Y-120856120D02*
X165005442Y-120290434D01*
X165005442Y-120290434D02*
X165220942Y-120505934D01*
X165220942Y-120505934D02*
X165247879Y-120586746D01*
X165247879Y-120586746D02*
X165247879Y-120640621D01*
X165247879Y-120640621D02*
X165220942Y-120721433D01*
X165220942Y-120721433D02*
X165140129Y-120802245D01*
X165140129Y-120802245D02*
X165059317Y-120829182D01*
X165059317Y-120829182D02*
X165005442Y-120829182D01*
X165005442Y-120829182D02*
X164924630Y-120802245D01*
X164924630Y-120802245D02*
X164709131Y-120586746D01*
X165301754Y-121718117D02*
X164978505Y-121394868D01*
X165140129Y-121556492D02*
X165705815Y-120990807D01*
X165705815Y-120990807D02*
X165571128Y-121017744D01*
X165571128Y-121017744D02*
X165463378Y-121017744D01*
X165463378Y-121017744D02*
X165382566Y-120990807D01*
X165948252Y-121718117D02*
X165921314Y-121637305D01*
X165921314Y-121637305D02*
X165921314Y-121583430D01*
X165921314Y-121583430D02*
X165948252Y-121502618D01*
X165948252Y-121502618D02*
X165975189Y-121475680D01*
X165975189Y-121475680D02*
X166056001Y-121448743D01*
X166056001Y-121448743D02*
X166109876Y-121448743D01*
X166109876Y-121448743D02*
X166190688Y-121475680D01*
X166190688Y-121475680D02*
X166298438Y-121583430D01*
X166298438Y-121583430D02*
X166325375Y-121664242D01*
X166325375Y-121664242D02*
X166325375Y-121718117D01*
X166325375Y-121718117D02*
X166298438Y-121798929D01*
X166298438Y-121798929D02*
X166271500Y-121825866D01*
X166271500Y-121825866D02*
X166190688Y-121852804D01*
X166190688Y-121852804D02*
X166136813Y-121852804D01*
X166136813Y-121852804D02*
X166056001Y-121825866D01*
X166056001Y-121825866D02*
X165948252Y-121718117D01*
X165948252Y-121718117D02*
X165867439Y-121691179D01*
X165867439Y-121691179D02*
X165813565Y-121691179D01*
X165813565Y-121691179D02*
X165732752Y-121718117D01*
X165732752Y-121718117D02*
X165625003Y-121825866D01*
X165625003Y-121825866D02*
X165598065Y-121906679D01*
X165598065Y-121906679D02*
X165598065Y-121960553D01*
X165598065Y-121960553D02*
X165625003Y-122041366D01*
X165625003Y-122041366D02*
X165732752Y-122149115D01*
X165732752Y-122149115D02*
X165813565Y-122176053D01*
X165813565Y-122176053D02*
X165867439Y-122176053D01*
X165867439Y-122176053D02*
X165948252Y-122149115D01*
X165948252Y-122149115D02*
X166056001Y-122041366D01*
X166056001Y-122041366D02*
X166082939Y-121960553D01*
X166082939Y-121960553D02*
X166082939Y-121906679D01*
X166082939Y-121906679D02*
X166056001Y-121825866D01*
X186868759Y-120101873D02*
X187138133Y-120371247D01*
X186653260Y-120209623D02*
X187407507Y-119832499D01*
X187407507Y-119832499D02*
X187030384Y-120586746D01*
X188054005Y-120532871D02*
X188027067Y-120452059D01*
X188027067Y-120452059D02*
X187946255Y-120371247D01*
X187946255Y-120371247D02*
X187838505Y-120317372D01*
X187838505Y-120317372D02*
X187730756Y-120317372D01*
X187730756Y-120317372D02*
X187649944Y-120344310D01*
X187649944Y-120344310D02*
X187515257Y-120425122D01*
X187515257Y-120425122D02*
X187434444Y-120505934D01*
X187434444Y-120505934D02*
X187353632Y-120640621D01*
X187353632Y-120640621D02*
X187326695Y-120721433D01*
X187326695Y-120721433D02*
X187326695Y-120829183D01*
X187326695Y-120829183D02*
X187380570Y-120936932D01*
X187380570Y-120936932D02*
X187434444Y-120990807D01*
X187434444Y-120990807D02*
X187542194Y-121044682D01*
X187542194Y-121044682D02*
X187596069Y-121044682D01*
X187596069Y-121044682D02*
X187784631Y-120856120D01*
X187784631Y-120856120D02*
X187676881Y-120748371D01*
X187784631Y-121340993D02*
X188350316Y-120775308D01*
X188350316Y-120775308D02*
X188107879Y-121664242D01*
X188107879Y-121664242D02*
X188673565Y-121098557D01*
X188377253Y-121933616D02*
X188942939Y-121367931D01*
X188942939Y-121367931D02*
X189077626Y-121502618D01*
X189077626Y-121502618D02*
X189131501Y-121610367D01*
X189131501Y-121610367D02*
X189131501Y-121718117D01*
X189131501Y-121718117D02*
X189104563Y-121798929D01*
X189104563Y-121798929D02*
X189023751Y-121933616D01*
X189023751Y-121933616D02*
X188942939Y-122014428D01*
X188942939Y-122014428D02*
X188808252Y-122095241D01*
X188808252Y-122095241D02*
X188727439Y-122122178D01*
X188727439Y-122122178D02*
X188619690Y-122122178D01*
X188619690Y-122122178D02*
X188511940Y-122068303D01*
X188511940Y-122068303D02*
X188377253Y-121933616D01*
X197651415Y-119872407D02*
X198001601Y-120222593D01*
X198001601Y-120222593D02*
X197597540Y-120249531D01*
X197597540Y-120249531D02*
X197678353Y-120330343D01*
X197678353Y-120330343D02*
X197705290Y-120411155D01*
X197705290Y-120411155D02*
X197705290Y-120465030D01*
X197705290Y-120465030D02*
X197678353Y-120545842D01*
X197678353Y-120545842D02*
X197543666Y-120680529D01*
X197543666Y-120680529D02*
X197462853Y-120707467D01*
X197462853Y-120707467D02*
X197408979Y-120707467D01*
X197408979Y-120707467D02*
X197328166Y-120680529D01*
X197328166Y-120680529D02*
X197166542Y-120518905D01*
X197166542Y-120518905D02*
X197139605Y-120438093D01*
X197139605Y-120438093D02*
X197139605Y-120384218D01*
X198163226Y-120384218D02*
X197786102Y-121138465D01*
X197786102Y-121138465D02*
X198540350Y-120761342D01*
X198675036Y-120896028D02*
X199025223Y-121246215D01*
X199025223Y-121246215D02*
X198621162Y-121273152D01*
X198621162Y-121273152D02*
X198701974Y-121353964D01*
X198701974Y-121353964D02*
X198728911Y-121434776D01*
X198728911Y-121434776D02*
X198728911Y-121488651D01*
X198728911Y-121488651D02*
X198701974Y-121569464D01*
X198701974Y-121569464D02*
X198567287Y-121704151D01*
X198567287Y-121704151D02*
X198486475Y-121731088D01*
X198486475Y-121731088D02*
X198432600Y-121731088D01*
X198432600Y-121731088D02*
X198351788Y-121704151D01*
X198351788Y-121704151D02*
X198190163Y-121542526D01*
X198190163Y-121542526D02*
X198163226Y-121461714D01*
X198163226Y-121461714D02*
X198163226Y-121407839D01*
X198513412Y-121973525D02*
X198944411Y-122404523D01*
X199429284Y-122189024D02*
X199617846Y-122377586D01*
X199402347Y-122754709D02*
X199132973Y-122485335D01*
X199132973Y-122485335D02*
X199698658Y-121919650D01*
X199698658Y-121919650D02*
X199968032Y-122189024D01*
X199644784Y-122997146D02*
X200210469Y-122431461D01*
X200210469Y-122431461D02*
X199968032Y-123320395D01*
X199968032Y-123320395D02*
X200533718Y-122754710D01*
X205618505Y-94463372D02*
X205591568Y-94382560D01*
X205591568Y-94382560D02*
X205510756Y-94301748D01*
X205510756Y-94301748D02*
X205403006Y-94247873D01*
X205403006Y-94247873D02*
X205295257Y-94247873D01*
X205295257Y-94247873D02*
X205214444Y-94274810D01*
X205214444Y-94274810D02*
X205079757Y-94355623D01*
X205079757Y-94355623D02*
X204998945Y-94436435D01*
X204998945Y-94436435D02*
X204918133Y-94571122D01*
X204918133Y-94571122D02*
X204891196Y-94651934D01*
X204891196Y-94651934D02*
X204891196Y-94759684D01*
X204891196Y-94759684D02*
X204945070Y-94867433D01*
X204945070Y-94867433D02*
X204998945Y-94921308D01*
X204998945Y-94921308D02*
X205106695Y-94975183D01*
X205106695Y-94975183D02*
X205160570Y-94975183D01*
X205160570Y-94975183D02*
X205349131Y-94786621D01*
X205349131Y-94786621D02*
X205241382Y-94678871D01*
X205349131Y-95271494D02*
X205914817Y-94705809D01*
X205914817Y-94705809D02*
X206130316Y-94921308D01*
X206130316Y-94921308D02*
X206157253Y-95002120D01*
X206157253Y-95002120D02*
X206157253Y-95055995D01*
X206157253Y-95055995D02*
X206130316Y-95136807D01*
X206130316Y-95136807D02*
X206049504Y-95217619D01*
X206049504Y-95217619D02*
X205968692Y-95244557D01*
X205968692Y-95244557D02*
X205914817Y-95244557D01*
X205914817Y-95244557D02*
X205834005Y-95217619D01*
X205834005Y-95217619D02*
X205618505Y-95002120D01*
X206588252Y-95379244D02*
X206642127Y-95433119D01*
X206642127Y-95433119D02*
X206669064Y-95513931D01*
X206669064Y-95513931D02*
X206669064Y-95567806D01*
X206669064Y-95567806D02*
X206642127Y-95648618D01*
X206642127Y-95648618D02*
X206561314Y-95783305D01*
X206561314Y-95783305D02*
X206426627Y-95917992D01*
X206426627Y-95917992D02*
X206291940Y-95998804D01*
X206291940Y-95998804D02*
X206211128Y-96025741D01*
X206211128Y-96025741D02*
X206157253Y-96025741D01*
X206157253Y-96025741D02*
X206076441Y-95998804D01*
X206076441Y-95998804D02*
X206022566Y-95944929D01*
X206022566Y-95944929D02*
X205995629Y-95864117D01*
X205995629Y-95864117D02*
X205995629Y-95810242D01*
X205995629Y-95810242D02*
X206022566Y-95729430D01*
X206022566Y-95729430D02*
X206103379Y-95594743D01*
X206103379Y-95594743D02*
X206238066Y-95460056D01*
X206238066Y-95460056D02*
X206372753Y-95379244D01*
X206372753Y-95379244D02*
X206453565Y-95352306D01*
X206453565Y-95352306D02*
X206507440Y-95352306D01*
X206507440Y-95352306D02*
X206588252Y-95379244D01*
X187811568Y-94436435D02*
X187784631Y-94355623D01*
X187784631Y-94355623D02*
X187703819Y-94274811D01*
X187703819Y-94274811D02*
X187596069Y-94220936D01*
X187596069Y-94220936D02*
X187488319Y-94220936D01*
X187488319Y-94220936D02*
X187407507Y-94247873D01*
X187407507Y-94247873D02*
X187272820Y-94328685D01*
X187272820Y-94328685D02*
X187192008Y-94409498D01*
X187192008Y-94409498D02*
X187111196Y-94544185D01*
X187111196Y-94544185D02*
X187084258Y-94624997D01*
X187084258Y-94624997D02*
X187084258Y-94732746D01*
X187084258Y-94732746D02*
X187138133Y-94840496D01*
X187138133Y-94840496D02*
X187192008Y-94894371D01*
X187192008Y-94894371D02*
X187299758Y-94948246D01*
X187299758Y-94948246D02*
X187353632Y-94948246D01*
X187353632Y-94948246D02*
X187542194Y-94759684D01*
X187542194Y-94759684D02*
X187434445Y-94651934D01*
X187542194Y-95244557D02*
X188107880Y-94678872D01*
X188107880Y-94678872D02*
X187865443Y-95567806D01*
X187865443Y-95567806D02*
X188431128Y-95002120D01*
X188134817Y-95837180D02*
X188700502Y-95271494D01*
X188700502Y-95271494D02*
X188835189Y-95406181D01*
X188835189Y-95406181D02*
X188889064Y-95513931D01*
X188889064Y-95513931D02*
X188889064Y-95621680D01*
X188889064Y-95621680D02*
X188862127Y-95702493D01*
X188862127Y-95702493D02*
X188781314Y-95837180D01*
X188781314Y-95837180D02*
X188700502Y-95917992D01*
X188700502Y-95917992D02*
X188565815Y-95998804D01*
X188565815Y-95998804D02*
X188485003Y-96025741D01*
X188485003Y-96025741D02*
X188377253Y-96025741D01*
X188377253Y-96025741D02*
X188269504Y-95971867D01*
X188269504Y-95971867D02*
X188134817Y-95837180D01*
X155734200Y-115245238D02*
X155772295Y-115130952D01*
X155772295Y-115130952D02*
X155772295Y-114940476D01*
X155772295Y-114940476D02*
X155734200Y-114864285D01*
X155734200Y-114864285D02*
X155696104Y-114826190D01*
X155696104Y-114826190D02*
X155619914Y-114788095D01*
X155619914Y-114788095D02*
X155543723Y-114788095D01*
X155543723Y-114788095D02*
X155467533Y-114826190D01*
X155467533Y-114826190D02*
X155429438Y-114864285D01*
X155429438Y-114864285D02*
X155391342Y-114940476D01*
X155391342Y-114940476D02*
X155353247Y-115092857D01*
X155353247Y-115092857D02*
X155315152Y-115169047D01*
X155315152Y-115169047D02*
X155277057Y-115207142D01*
X155277057Y-115207142D02*
X155200866Y-115245238D01*
X155200866Y-115245238D02*
X155124676Y-115245238D01*
X155124676Y-115245238D02*
X155048485Y-115207142D01*
X155048485Y-115207142D02*
X155010390Y-115169047D01*
X155010390Y-115169047D02*
X154972295Y-115092857D01*
X154972295Y-115092857D02*
X154972295Y-114902380D01*
X154972295Y-114902380D02*
X155010390Y-114788095D01*
X154972295Y-114521428D02*
X155772295Y-114330952D01*
X155772295Y-114330952D02*
X155200866Y-114178571D01*
X155200866Y-114178571D02*
X155772295Y-114026190D01*
X155772295Y-114026190D02*
X154972295Y-113835714D01*
X155772295Y-113530951D02*
X154972295Y-113530951D01*
X154972295Y-113530951D02*
X154972295Y-113340475D01*
X154972295Y-113340475D02*
X155010390Y-113226189D01*
X155010390Y-113226189D02*
X155086580Y-113149999D01*
X155086580Y-113149999D02*
X155162771Y-113111904D01*
X155162771Y-113111904D02*
X155315152Y-113073808D01*
X155315152Y-113073808D02*
X155429438Y-113073808D01*
X155429438Y-113073808D02*
X155581819Y-113111904D01*
X155581819Y-113111904D02*
X155658009Y-113149999D01*
X155658009Y-113149999D02*
X155734200Y-113226189D01*
X155734200Y-113226189D02*
X155772295Y-113340475D01*
X155772295Y-113340475D02*
X155772295Y-113530951D01*
X155772295Y-112730951D02*
X154972295Y-112730951D01*
X154972295Y-112197618D02*
X154972295Y-112045237D01*
X154972295Y-112045237D02*
X155010390Y-111969047D01*
X155010390Y-111969047D02*
X155086580Y-111892856D01*
X155086580Y-111892856D02*
X155238961Y-111854761D01*
X155238961Y-111854761D02*
X155505628Y-111854761D01*
X155505628Y-111854761D02*
X155658009Y-111892856D01*
X155658009Y-111892856D02*
X155734200Y-111969047D01*
X155734200Y-111969047D02*
X155772295Y-112045237D01*
X155772295Y-112045237D02*
X155772295Y-112197618D01*
X155772295Y-112197618D02*
X155734200Y-112273809D01*
X155734200Y-112273809D02*
X155658009Y-112349999D01*
X155658009Y-112349999D02*
X155505628Y-112388095D01*
X155505628Y-112388095D02*
X155238961Y-112388095D01*
X155238961Y-112388095D02*
X155086580Y-112349999D01*
X155086580Y-112349999D02*
X155010390Y-112273809D01*
X155010390Y-112273809D02*
X154972295Y-112197618D01*
X175111568Y-94436435D02*
X175084631Y-94355623D01*
X175084631Y-94355623D02*
X175003819Y-94274811D01*
X175003819Y-94274811D02*
X174896069Y-94220936D01*
X174896069Y-94220936D02*
X174788319Y-94220936D01*
X174788319Y-94220936D02*
X174707507Y-94247873D01*
X174707507Y-94247873D02*
X174572820Y-94328685D01*
X174572820Y-94328685D02*
X174492008Y-94409498D01*
X174492008Y-94409498D02*
X174411196Y-94544185D01*
X174411196Y-94544185D02*
X174384258Y-94624997D01*
X174384258Y-94624997D02*
X174384258Y-94732746D01*
X174384258Y-94732746D02*
X174438133Y-94840496D01*
X174438133Y-94840496D02*
X174492008Y-94894371D01*
X174492008Y-94894371D02*
X174599758Y-94948246D01*
X174599758Y-94948246D02*
X174653632Y-94948246D01*
X174653632Y-94948246D02*
X174842194Y-94759684D01*
X174842194Y-94759684D02*
X174734445Y-94651934D01*
X174842194Y-95244557D02*
X175407880Y-94678872D01*
X175407880Y-94678872D02*
X175165443Y-95567806D01*
X175165443Y-95567806D02*
X175731128Y-95002120D01*
X175434817Y-95837180D02*
X176000502Y-95271494D01*
X176000502Y-95271494D02*
X176135189Y-95406181D01*
X176135189Y-95406181D02*
X176189064Y-95513931D01*
X176189064Y-95513931D02*
X176189064Y-95621680D01*
X176189064Y-95621680D02*
X176162127Y-95702493D01*
X176162127Y-95702493D02*
X176081314Y-95837180D01*
X176081314Y-95837180D02*
X176000502Y-95917992D01*
X176000502Y-95917992D02*
X175865815Y-95998804D01*
X175865815Y-95998804D02*
X175785003Y-96025741D01*
X175785003Y-96025741D02*
X175677253Y-96025741D01*
X175677253Y-96025741D02*
X175569504Y-95971867D01*
X175569504Y-95971867D02*
X175434817Y-95837180D01*
X169789131Y-93793998D02*
X169762194Y-93713185D01*
X169762194Y-93713185D02*
X169681381Y-93632373D01*
X169681381Y-93632373D02*
X169573632Y-93578498D01*
X169573632Y-93578498D02*
X169465882Y-93578498D01*
X169465882Y-93578498D02*
X169385070Y-93605436D01*
X169385070Y-93605436D02*
X169250383Y-93686248D01*
X169250383Y-93686248D02*
X169169571Y-93767060D01*
X169169571Y-93767060D02*
X169088758Y-93901747D01*
X169088758Y-93901747D02*
X169061821Y-93982560D01*
X169061821Y-93982560D02*
X169061821Y-94090309D01*
X169061821Y-94090309D02*
X169115696Y-94198059D01*
X169115696Y-94198059D02*
X169169571Y-94251934D01*
X169169571Y-94251934D02*
X169277320Y-94305808D01*
X169277320Y-94305808D02*
X169331195Y-94305808D01*
X169331195Y-94305808D02*
X169519757Y-94117247D01*
X169519757Y-94117247D02*
X169412007Y-94009497D01*
X169519757Y-94602120D02*
X170085442Y-94036434D01*
X170085442Y-94036434D02*
X170300942Y-94251934D01*
X170300942Y-94251934D02*
X170327879Y-94332746D01*
X170327879Y-94332746D02*
X170327879Y-94386621D01*
X170327879Y-94386621D02*
X170300942Y-94467433D01*
X170300942Y-94467433D02*
X170220129Y-94548245D01*
X170220129Y-94548245D02*
X170139317Y-94575182D01*
X170139317Y-94575182D02*
X170085442Y-94575182D01*
X170085442Y-94575182D02*
X170004630Y-94548245D01*
X170004630Y-94548245D02*
X169789131Y-94332746D01*
X170381754Y-95464117D02*
X170058505Y-95140868D01*
X170220129Y-95302492D02*
X170785815Y-94736807D01*
X170785815Y-94736807D02*
X170651128Y-94763744D01*
X170651128Y-94763744D02*
X170543378Y-94763744D01*
X170543378Y-94763744D02*
X170462566Y-94736807D01*
X170920502Y-96002865D02*
X170597253Y-95679616D01*
X170758878Y-95841240D02*
X171324563Y-95275555D01*
X171324563Y-95275555D02*
X171189876Y-95302492D01*
X171189876Y-95302492D02*
X171082126Y-95302492D01*
X171082126Y-95302492D02*
X171001314Y-95275555D01*
X169789131Y-120047998D02*
X169762194Y-119967185D01*
X169762194Y-119967185D02*
X169681381Y-119886373D01*
X169681381Y-119886373D02*
X169573632Y-119832498D01*
X169573632Y-119832498D02*
X169465882Y-119832498D01*
X169465882Y-119832498D02*
X169385070Y-119859436D01*
X169385070Y-119859436D02*
X169250383Y-119940248D01*
X169250383Y-119940248D02*
X169169571Y-120021060D01*
X169169571Y-120021060D02*
X169088758Y-120155747D01*
X169088758Y-120155747D02*
X169061821Y-120236560D01*
X169061821Y-120236560D02*
X169061821Y-120344309D01*
X169061821Y-120344309D02*
X169115696Y-120452059D01*
X169115696Y-120452059D02*
X169169571Y-120505934D01*
X169169571Y-120505934D02*
X169277320Y-120559808D01*
X169277320Y-120559808D02*
X169331195Y-120559808D01*
X169331195Y-120559808D02*
X169519757Y-120371247D01*
X169519757Y-120371247D02*
X169412007Y-120263497D01*
X169519757Y-120856120D02*
X170085442Y-120290434D01*
X170085442Y-120290434D02*
X170300942Y-120505934D01*
X170300942Y-120505934D02*
X170327879Y-120586746D01*
X170327879Y-120586746D02*
X170327879Y-120640621D01*
X170327879Y-120640621D02*
X170300942Y-120721433D01*
X170300942Y-120721433D02*
X170220129Y-120802245D01*
X170220129Y-120802245D02*
X170139317Y-120829182D01*
X170139317Y-120829182D02*
X170085442Y-120829182D01*
X170085442Y-120829182D02*
X170004630Y-120802245D01*
X170004630Y-120802245D02*
X169789131Y-120586746D01*
X170570316Y-120883057D02*
X170624190Y-120883057D01*
X170624190Y-120883057D02*
X170705003Y-120909995D01*
X170705003Y-120909995D02*
X170839690Y-121044682D01*
X170839690Y-121044682D02*
X170866627Y-121125494D01*
X170866627Y-121125494D02*
X170866627Y-121179369D01*
X170866627Y-121179369D02*
X170839690Y-121260181D01*
X170839690Y-121260181D02*
X170785815Y-121314056D01*
X170785815Y-121314056D02*
X170678065Y-121367930D01*
X170678065Y-121367930D02*
X170031568Y-121367930D01*
X170031568Y-121367930D02*
X170381754Y-121718117D01*
X171297626Y-121502618D02*
X171351500Y-121556492D01*
X171351500Y-121556492D02*
X171378438Y-121637305D01*
X171378438Y-121637305D02*
X171378438Y-121691179D01*
X171378438Y-121691179D02*
X171351500Y-121771992D01*
X171351500Y-121771992D02*
X171270688Y-121906679D01*
X171270688Y-121906679D02*
X171136001Y-122041366D01*
X171136001Y-122041366D02*
X171001314Y-122122178D01*
X171001314Y-122122178D02*
X170920502Y-122149115D01*
X170920502Y-122149115D02*
X170866627Y-122149115D01*
X170866627Y-122149115D02*
X170785815Y-122122178D01*
X170785815Y-122122178D02*
X170731940Y-122068303D01*
X170731940Y-122068303D02*
X170705003Y-121987491D01*
X170705003Y-121987491D02*
X170705003Y-121933616D01*
X170705003Y-121933616D02*
X170731940Y-121852804D01*
X170731940Y-121852804D02*
X170812752Y-121718117D01*
X170812752Y-121718117D02*
X170947439Y-121583430D01*
X170947439Y-121583430D02*
X171082126Y-121502618D01*
X171082126Y-121502618D02*
X171162939Y-121475680D01*
X171162939Y-121475680D02*
X171216813Y-121475680D01*
X171216813Y-121475680D02*
X171297626Y-121502618D01*
X162411568Y-94436435D02*
X162384631Y-94355623D01*
X162384631Y-94355623D02*
X162303819Y-94274811D01*
X162303819Y-94274811D02*
X162196069Y-94220936D01*
X162196069Y-94220936D02*
X162088319Y-94220936D01*
X162088319Y-94220936D02*
X162007507Y-94247873D01*
X162007507Y-94247873D02*
X161872820Y-94328685D01*
X161872820Y-94328685D02*
X161792008Y-94409498D01*
X161792008Y-94409498D02*
X161711196Y-94544185D01*
X161711196Y-94544185D02*
X161684258Y-94624997D01*
X161684258Y-94624997D02*
X161684258Y-94732746D01*
X161684258Y-94732746D02*
X161738133Y-94840496D01*
X161738133Y-94840496D02*
X161792008Y-94894371D01*
X161792008Y-94894371D02*
X161899758Y-94948246D01*
X161899758Y-94948246D02*
X161953632Y-94948246D01*
X161953632Y-94948246D02*
X162142194Y-94759684D01*
X162142194Y-94759684D02*
X162034445Y-94651934D01*
X162142194Y-95244557D02*
X162707880Y-94678872D01*
X162707880Y-94678872D02*
X162465443Y-95567806D01*
X162465443Y-95567806D02*
X163031128Y-95002120D01*
X162734817Y-95837180D02*
X163300502Y-95271494D01*
X163300502Y-95271494D02*
X163435189Y-95406181D01*
X163435189Y-95406181D02*
X163489064Y-95513931D01*
X163489064Y-95513931D02*
X163489064Y-95621680D01*
X163489064Y-95621680D02*
X163462127Y-95702493D01*
X163462127Y-95702493D02*
X163381314Y-95837180D01*
X163381314Y-95837180D02*
X163300502Y-95917992D01*
X163300502Y-95917992D02*
X163165815Y-95998804D01*
X163165815Y-95998804D02*
X163085003Y-96025741D01*
X163085003Y-96025741D02*
X162977253Y-96025741D01*
X162977253Y-96025741D02*
X162869504Y-95971867D01*
X162869504Y-95971867D02*
X162734817Y-95837180D01*
X200511568Y-94436435D02*
X200484631Y-94355623D01*
X200484631Y-94355623D02*
X200403819Y-94274811D01*
X200403819Y-94274811D02*
X200296069Y-94220936D01*
X200296069Y-94220936D02*
X200188319Y-94220936D01*
X200188319Y-94220936D02*
X200107507Y-94247873D01*
X200107507Y-94247873D02*
X199972820Y-94328685D01*
X199972820Y-94328685D02*
X199892008Y-94409498D01*
X199892008Y-94409498D02*
X199811196Y-94544185D01*
X199811196Y-94544185D02*
X199784258Y-94624997D01*
X199784258Y-94624997D02*
X199784258Y-94732746D01*
X199784258Y-94732746D02*
X199838133Y-94840496D01*
X199838133Y-94840496D02*
X199892008Y-94894371D01*
X199892008Y-94894371D02*
X199999758Y-94948246D01*
X199999758Y-94948246D02*
X200053632Y-94948246D01*
X200053632Y-94948246D02*
X200242194Y-94759684D01*
X200242194Y-94759684D02*
X200134445Y-94651934D01*
X200242194Y-95244557D02*
X200807880Y-94678872D01*
X200807880Y-94678872D02*
X200565443Y-95567806D01*
X200565443Y-95567806D02*
X201131128Y-95002120D01*
X200834817Y-95837180D02*
X201400502Y-95271494D01*
X201400502Y-95271494D02*
X201535189Y-95406181D01*
X201535189Y-95406181D02*
X201589064Y-95513931D01*
X201589064Y-95513931D02*
X201589064Y-95621680D01*
X201589064Y-95621680D02*
X201562127Y-95702493D01*
X201562127Y-95702493D02*
X201481314Y-95837180D01*
X201481314Y-95837180D02*
X201400502Y-95917992D01*
X201400502Y-95917992D02*
X201265815Y-95998804D01*
X201265815Y-95998804D02*
X201185003Y-96025741D01*
X201185003Y-96025741D02*
X201077253Y-96025741D01*
X201077253Y-96025741D02*
X200969504Y-95971867D01*
X200969504Y-95971867D02*
X200834817Y-95837180D01*
X159629131Y-120047998D02*
X159602194Y-119967185D01*
X159602194Y-119967185D02*
X159521381Y-119886373D01*
X159521381Y-119886373D02*
X159413632Y-119832498D01*
X159413632Y-119832498D02*
X159305882Y-119832498D01*
X159305882Y-119832498D02*
X159225070Y-119859436D01*
X159225070Y-119859436D02*
X159090383Y-119940248D01*
X159090383Y-119940248D02*
X159009571Y-120021060D01*
X159009571Y-120021060D02*
X158928758Y-120155747D01*
X158928758Y-120155747D02*
X158901821Y-120236560D01*
X158901821Y-120236560D02*
X158901821Y-120344309D01*
X158901821Y-120344309D02*
X158955696Y-120452059D01*
X158955696Y-120452059D02*
X159009571Y-120505934D01*
X159009571Y-120505934D02*
X159117320Y-120559808D01*
X159117320Y-120559808D02*
X159171195Y-120559808D01*
X159171195Y-120559808D02*
X159359757Y-120371247D01*
X159359757Y-120371247D02*
X159252007Y-120263497D01*
X159359757Y-120856120D02*
X159925442Y-120290434D01*
X159925442Y-120290434D02*
X160140942Y-120505934D01*
X160140942Y-120505934D02*
X160167879Y-120586746D01*
X160167879Y-120586746D02*
X160167879Y-120640621D01*
X160167879Y-120640621D02*
X160140942Y-120721433D01*
X160140942Y-120721433D02*
X160060129Y-120802245D01*
X160060129Y-120802245D02*
X159979317Y-120829182D01*
X159979317Y-120829182D02*
X159925442Y-120829182D01*
X159925442Y-120829182D02*
X159844630Y-120802245D01*
X159844630Y-120802245D02*
X159629131Y-120586746D01*
X160221754Y-121718117D02*
X159898505Y-121394868D01*
X160060129Y-121556492D02*
X160625815Y-120990807D01*
X160625815Y-120990807D02*
X160491128Y-121017744D01*
X160491128Y-121017744D02*
X160383378Y-121017744D01*
X160383378Y-121017744D02*
X160302566Y-120990807D01*
X160976001Y-121340993D02*
X161353125Y-121718117D01*
X161353125Y-121718117D02*
X160545003Y-122041366D01*
X203088505Y-94363372D02*
X203061568Y-94282560D01*
X203061568Y-94282560D02*
X202980756Y-94201748D01*
X202980756Y-94201748D02*
X202873006Y-94147873D01*
X202873006Y-94147873D02*
X202765257Y-94147873D01*
X202765257Y-94147873D02*
X202684444Y-94174810D01*
X202684444Y-94174810D02*
X202549757Y-94255623D01*
X202549757Y-94255623D02*
X202468945Y-94336435D01*
X202468945Y-94336435D02*
X202388133Y-94471122D01*
X202388133Y-94471122D02*
X202361196Y-94551934D01*
X202361196Y-94551934D02*
X202361196Y-94659684D01*
X202361196Y-94659684D02*
X202415070Y-94767433D01*
X202415070Y-94767433D02*
X202468945Y-94821308D01*
X202468945Y-94821308D02*
X202576695Y-94875183D01*
X202576695Y-94875183D02*
X202630570Y-94875183D01*
X202630570Y-94875183D02*
X202819131Y-94686621D01*
X202819131Y-94686621D02*
X202711382Y-94578871D01*
X202819131Y-95171494D02*
X203384817Y-94605809D01*
X203384817Y-94605809D02*
X203600316Y-94821308D01*
X203600316Y-94821308D02*
X203627253Y-94902120D01*
X203627253Y-94902120D02*
X203627253Y-94955995D01*
X203627253Y-94955995D02*
X203600316Y-95036807D01*
X203600316Y-95036807D02*
X203519504Y-95117619D01*
X203519504Y-95117619D02*
X203438692Y-95144557D01*
X203438692Y-95144557D02*
X203384817Y-95144557D01*
X203384817Y-95144557D02*
X203304005Y-95117619D01*
X203304005Y-95117619D02*
X203088505Y-94902120D01*
X203681128Y-96033491D02*
X203357879Y-95710242D01*
X203519504Y-95871867D02*
X204085189Y-95306181D01*
X204085189Y-95306181D02*
X203950502Y-95333119D01*
X203950502Y-95333119D02*
X203842753Y-95333119D01*
X203842753Y-95333119D02*
X203761940Y-95306181D01*
X185298505Y-94463372D02*
X185271568Y-94382560D01*
X185271568Y-94382560D02*
X185190756Y-94301748D01*
X185190756Y-94301748D02*
X185083006Y-94247873D01*
X185083006Y-94247873D02*
X184975257Y-94247873D01*
X184975257Y-94247873D02*
X184894444Y-94274810D01*
X184894444Y-94274810D02*
X184759757Y-94355623D01*
X184759757Y-94355623D02*
X184678945Y-94436435D01*
X184678945Y-94436435D02*
X184598133Y-94571122D01*
X184598133Y-94571122D02*
X184571196Y-94651934D01*
X184571196Y-94651934D02*
X184571196Y-94759684D01*
X184571196Y-94759684D02*
X184625070Y-94867433D01*
X184625070Y-94867433D02*
X184678945Y-94921308D01*
X184678945Y-94921308D02*
X184786695Y-94975183D01*
X184786695Y-94975183D02*
X184840570Y-94975183D01*
X184840570Y-94975183D02*
X185029131Y-94786621D01*
X185029131Y-94786621D02*
X184921382Y-94678871D01*
X185029131Y-95271494D02*
X185594817Y-94705809D01*
X185594817Y-94705809D02*
X185810316Y-94921308D01*
X185810316Y-94921308D02*
X185837253Y-95002120D01*
X185837253Y-95002120D02*
X185837253Y-95055995D01*
X185837253Y-95055995D02*
X185810316Y-95136807D01*
X185810316Y-95136807D02*
X185729504Y-95217619D01*
X185729504Y-95217619D02*
X185648692Y-95244557D01*
X185648692Y-95244557D02*
X185594817Y-95244557D01*
X185594817Y-95244557D02*
X185514005Y-95217619D01*
X185514005Y-95217619D02*
X185298505Y-95002120D01*
X186402939Y-95513931D02*
X186295189Y-95406181D01*
X186295189Y-95406181D02*
X186214377Y-95379244D01*
X186214377Y-95379244D02*
X186160502Y-95379244D01*
X186160502Y-95379244D02*
X186025815Y-95406181D01*
X186025815Y-95406181D02*
X185891128Y-95486993D01*
X185891128Y-95486993D02*
X185675629Y-95702493D01*
X185675629Y-95702493D02*
X185648692Y-95783305D01*
X185648692Y-95783305D02*
X185648692Y-95837180D01*
X185648692Y-95837180D02*
X185675629Y-95917992D01*
X185675629Y-95917992D02*
X185783379Y-96025741D01*
X185783379Y-96025741D02*
X185864191Y-96052679D01*
X185864191Y-96052679D02*
X185918066Y-96052679D01*
X185918066Y-96052679D02*
X185998878Y-96025741D01*
X185998878Y-96025741D02*
X186133565Y-95891054D01*
X186133565Y-95891054D02*
X186160502Y-95810242D01*
X186160502Y-95810242D02*
X186160502Y-95756367D01*
X186160502Y-95756367D02*
X186133565Y-95675555D01*
X186133565Y-95675555D02*
X186025815Y-95567806D01*
X186025815Y-95567806D02*
X185945003Y-95540868D01*
X185945003Y-95540868D02*
X185891128Y-95540868D01*
X185891128Y-95540868D02*
X185810316Y-95567806D01*
X167249131Y-93793998D02*
X167222194Y-93713185D01*
X167222194Y-93713185D02*
X167141381Y-93632373D01*
X167141381Y-93632373D02*
X167033632Y-93578498D01*
X167033632Y-93578498D02*
X166925882Y-93578498D01*
X166925882Y-93578498D02*
X166845070Y-93605436D01*
X166845070Y-93605436D02*
X166710383Y-93686248D01*
X166710383Y-93686248D02*
X166629571Y-93767060D01*
X166629571Y-93767060D02*
X166548758Y-93901747D01*
X166548758Y-93901747D02*
X166521821Y-93982560D01*
X166521821Y-93982560D02*
X166521821Y-94090309D01*
X166521821Y-94090309D02*
X166575696Y-94198059D01*
X166575696Y-94198059D02*
X166629571Y-94251934D01*
X166629571Y-94251934D02*
X166737320Y-94305808D01*
X166737320Y-94305808D02*
X166791195Y-94305808D01*
X166791195Y-94305808D02*
X166979757Y-94117247D01*
X166979757Y-94117247D02*
X166872007Y-94009497D01*
X166979757Y-94602120D02*
X167545442Y-94036434D01*
X167545442Y-94036434D02*
X167760942Y-94251934D01*
X167760942Y-94251934D02*
X167787879Y-94332746D01*
X167787879Y-94332746D02*
X167787879Y-94386621D01*
X167787879Y-94386621D02*
X167760942Y-94467433D01*
X167760942Y-94467433D02*
X167680129Y-94548245D01*
X167680129Y-94548245D02*
X167599317Y-94575182D01*
X167599317Y-94575182D02*
X167545442Y-94575182D01*
X167545442Y-94575182D02*
X167464630Y-94548245D01*
X167464630Y-94548245D02*
X167249131Y-94332746D01*
X167841754Y-95464117D02*
X167518505Y-95140868D01*
X167680129Y-95302492D02*
X168245815Y-94736807D01*
X168245815Y-94736807D02*
X168111128Y-94763744D01*
X168111128Y-94763744D02*
X168003378Y-94763744D01*
X168003378Y-94763744D02*
X167922566Y-94736807D01*
X168569064Y-95167805D02*
X168622939Y-95167805D01*
X168622939Y-95167805D02*
X168703751Y-95194743D01*
X168703751Y-95194743D02*
X168838438Y-95329430D01*
X168838438Y-95329430D02*
X168865375Y-95410242D01*
X168865375Y-95410242D02*
X168865375Y-95464117D01*
X168865375Y-95464117D02*
X168838438Y-95544929D01*
X168838438Y-95544929D02*
X168784563Y-95598804D01*
X168784563Y-95598804D02*
X168676813Y-95652679D01*
X168676813Y-95652679D02*
X168030316Y-95652679D01*
X168030316Y-95652679D02*
X168380502Y-96002865D01*
X192075950Y-120105064D02*
X192345324Y-120374438D01*
X191860450Y-120212813D02*
X192614698Y-119835690D01*
X192614698Y-119835690D02*
X192237574Y-120589937D01*
X192426136Y-120778499D02*
X192991821Y-120212813D01*
X192991821Y-120212813D02*
X193126508Y-120347500D01*
X193126508Y-120347500D02*
X193180383Y-120455250D01*
X193180383Y-120455250D02*
X193180383Y-120562999D01*
X193180383Y-120562999D02*
X193153446Y-120643812D01*
X193153446Y-120643812D02*
X193072633Y-120778499D01*
X193072633Y-120778499D02*
X192991821Y-120859311D01*
X192991821Y-120859311D02*
X192857134Y-120940123D01*
X192857134Y-120940123D02*
X192776322Y-120967060D01*
X192776322Y-120967060D02*
X192668572Y-120967060D01*
X192668572Y-120967060D02*
X192560823Y-120913186D01*
X192560823Y-120913186D02*
X192426136Y-120778499D01*
X193368945Y-121613558D02*
X193315070Y-121613558D01*
X193315070Y-121613558D02*
X193207320Y-121559683D01*
X193207320Y-121559683D02*
X193153446Y-121505808D01*
X193153446Y-121505808D02*
X193099571Y-121398059D01*
X193099571Y-121398059D02*
X193099571Y-121290309D01*
X193099571Y-121290309D02*
X193126508Y-121209497D01*
X193126508Y-121209497D02*
X193207320Y-121074810D01*
X193207320Y-121074810D02*
X193288133Y-120993998D01*
X193288133Y-120993998D02*
X193422820Y-120913186D01*
X193422820Y-120913186D02*
X193503632Y-120886248D01*
X193503632Y-120886248D02*
X193611381Y-120886248D01*
X193611381Y-120886248D02*
X193719131Y-120940123D01*
X193719131Y-120940123D02*
X193773006Y-120993998D01*
X193773006Y-120993998D02*
X193826881Y-121101747D01*
X193826881Y-121101747D02*
X193826881Y-121155622D01*
X193368945Y-121829057D02*
X193799943Y-122260056D01*
X194473378Y-121694370D02*
X194096255Y-122448618D01*
X194096255Y-122448618D02*
X194850502Y-122071494D01*
X194796627Y-123148990D02*
X194877439Y-122691054D01*
X194473378Y-122825741D02*
X195039064Y-122260056D01*
X195039064Y-122260056D02*
X195254563Y-122475555D01*
X195254563Y-122475555D02*
X195281500Y-122556367D01*
X195281500Y-122556367D02*
X195281500Y-122610242D01*
X195281500Y-122610242D02*
X195254563Y-122691054D01*
X195254563Y-122691054D02*
X195173751Y-122771866D01*
X195173751Y-122771866D02*
X195092938Y-122798804D01*
X195092938Y-122798804D02*
X195039064Y-122798804D01*
X195039064Y-122798804D02*
X194958251Y-122771866D01*
X194958251Y-122771866D02*
X194742752Y-122556367D01*
X195335375Y-123095115D02*
X195523937Y-123283677D01*
X195308438Y-123660800D02*
X195039064Y-123391426D01*
X195039064Y-123391426D02*
X195604749Y-122825741D01*
X195604749Y-122825741D02*
X195874123Y-123095115D01*
X196035748Y-123795488D02*
X195847186Y-123606926D01*
X195550874Y-123903237D02*
X196116560Y-123337552D01*
X196116560Y-123337552D02*
X196385934Y-123606926D01*
X179666289Y-120788651D02*
X179747101Y-120330716D01*
X179343040Y-120465403D02*
X179908725Y-119899717D01*
X179908725Y-119899717D02*
X180124224Y-120115216D01*
X180124224Y-120115216D02*
X180151162Y-120196029D01*
X180151162Y-120196029D02*
X180151162Y-120249903D01*
X180151162Y-120249903D02*
X180124224Y-120330716D01*
X180124224Y-120330716D02*
X180043412Y-120411528D01*
X180043412Y-120411528D02*
X179962600Y-120438465D01*
X179962600Y-120438465D02*
X179908725Y-120438465D01*
X179908725Y-120438465D02*
X179827913Y-120411528D01*
X179827913Y-120411528D02*
X179612414Y-120196029D01*
X180474411Y-120465403D02*
X180016475Y-120923338D01*
X180016475Y-120923338D02*
X179989537Y-121004151D01*
X179989537Y-121004151D02*
X179989537Y-121058025D01*
X179989537Y-121058025D02*
X180016475Y-121138838D01*
X180016475Y-121138838D02*
X180124224Y-121246587D01*
X180124224Y-121246587D02*
X180205037Y-121273525D01*
X180205037Y-121273525D02*
X180258911Y-121273525D01*
X180258911Y-121273525D02*
X180339724Y-121246587D01*
X180339724Y-121246587D02*
X180797659Y-120788651D01*
X180501348Y-121623711D02*
X181067033Y-121058025D01*
X181067033Y-121058025D02*
X180824597Y-121946959D01*
X180824597Y-121946959D02*
X181390282Y-121381274D01*
X177409131Y-120047998D02*
X177382194Y-119967185D01*
X177382194Y-119967185D02*
X177301381Y-119886373D01*
X177301381Y-119886373D02*
X177193632Y-119832498D01*
X177193632Y-119832498D02*
X177085882Y-119832498D01*
X177085882Y-119832498D02*
X177005070Y-119859436D01*
X177005070Y-119859436D02*
X176870383Y-119940248D01*
X176870383Y-119940248D02*
X176789571Y-120021060D01*
X176789571Y-120021060D02*
X176708758Y-120155747D01*
X176708758Y-120155747D02*
X176681821Y-120236560D01*
X176681821Y-120236560D02*
X176681821Y-120344309D01*
X176681821Y-120344309D02*
X176735696Y-120452059D01*
X176735696Y-120452059D02*
X176789571Y-120505934D01*
X176789571Y-120505934D02*
X176897320Y-120559808D01*
X176897320Y-120559808D02*
X176951195Y-120559808D01*
X176951195Y-120559808D02*
X177139757Y-120371247D01*
X177139757Y-120371247D02*
X177032007Y-120263497D01*
X177139757Y-120856120D02*
X177705442Y-120290434D01*
X177705442Y-120290434D02*
X177920942Y-120505934D01*
X177920942Y-120505934D02*
X177947879Y-120586746D01*
X177947879Y-120586746D02*
X177947879Y-120640621D01*
X177947879Y-120640621D02*
X177920942Y-120721433D01*
X177920942Y-120721433D02*
X177840129Y-120802245D01*
X177840129Y-120802245D02*
X177759317Y-120829182D01*
X177759317Y-120829182D02*
X177705442Y-120829182D01*
X177705442Y-120829182D02*
X177624630Y-120802245D01*
X177624630Y-120802245D02*
X177409131Y-120586746D01*
X178190316Y-120883057D02*
X178244190Y-120883057D01*
X178244190Y-120883057D02*
X178325003Y-120909995D01*
X178325003Y-120909995D02*
X178459690Y-121044682D01*
X178459690Y-121044682D02*
X178486627Y-121125494D01*
X178486627Y-121125494D02*
X178486627Y-121179369D01*
X178486627Y-121179369D02*
X178459690Y-121260181D01*
X178459690Y-121260181D02*
X178405815Y-121314056D01*
X178405815Y-121314056D02*
X178298065Y-121367930D01*
X178298065Y-121367930D02*
X177651568Y-121367930D01*
X177651568Y-121367930D02*
X178001754Y-121718117D01*
X178729064Y-121421805D02*
X178782939Y-121421805D01*
X178782939Y-121421805D02*
X178863751Y-121448743D01*
X178863751Y-121448743D02*
X178998438Y-121583430D01*
X178998438Y-121583430D02*
X179025375Y-121664242D01*
X179025375Y-121664242D02*
X179025375Y-121718117D01*
X179025375Y-121718117D02*
X178998438Y-121798929D01*
X178998438Y-121798929D02*
X178944563Y-121852804D01*
X178944563Y-121852804D02*
X178836813Y-121906679D01*
X178836813Y-121906679D02*
X178190316Y-121906679D01*
X178190316Y-121906679D02*
X178540502Y-122256865D01*
X162411568Y-120036435D02*
X162384631Y-119955623D01*
X162384631Y-119955623D02*
X162303819Y-119874811D01*
X162303819Y-119874811D02*
X162196069Y-119820936D01*
X162196069Y-119820936D02*
X162088319Y-119820936D01*
X162088319Y-119820936D02*
X162007507Y-119847873D01*
X162007507Y-119847873D02*
X161872820Y-119928685D01*
X161872820Y-119928685D02*
X161792008Y-120009498D01*
X161792008Y-120009498D02*
X161711196Y-120144185D01*
X161711196Y-120144185D02*
X161684258Y-120224997D01*
X161684258Y-120224997D02*
X161684258Y-120332746D01*
X161684258Y-120332746D02*
X161738133Y-120440496D01*
X161738133Y-120440496D02*
X161792008Y-120494371D01*
X161792008Y-120494371D02*
X161899758Y-120548246D01*
X161899758Y-120548246D02*
X161953632Y-120548246D01*
X161953632Y-120548246D02*
X162142194Y-120359684D01*
X162142194Y-120359684D02*
X162034445Y-120251934D01*
X162142194Y-120844557D02*
X162707880Y-120278872D01*
X162707880Y-120278872D02*
X162465443Y-121167806D01*
X162465443Y-121167806D02*
X163031128Y-120602120D01*
X162734817Y-121437180D02*
X163300502Y-120871494D01*
X163300502Y-120871494D02*
X163435189Y-121006181D01*
X163435189Y-121006181D02*
X163489064Y-121113931D01*
X163489064Y-121113931D02*
X163489064Y-121221680D01*
X163489064Y-121221680D02*
X163462127Y-121302493D01*
X163462127Y-121302493D02*
X163381314Y-121437180D01*
X163381314Y-121437180D02*
X163300502Y-121517992D01*
X163300502Y-121517992D02*
X163165815Y-121598804D01*
X163165815Y-121598804D02*
X163085003Y-121625741D01*
X163085003Y-121625741D02*
X162977253Y-121625741D01*
X162977253Y-121625741D02*
X162869504Y-121571867D01*
X162869504Y-121571867D02*
X162734817Y-121437180D01*
X203742414Y-112953406D02*
X203365290Y-113707653D01*
X203365290Y-113707653D02*
X204119537Y-113330529D01*
X204227287Y-113977027D02*
X204281161Y-114084776D01*
X204281161Y-114084776D02*
X204281161Y-114138651D01*
X204281161Y-114138651D02*
X204254224Y-114219463D01*
X204254224Y-114219463D02*
X204173412Y-114300276D01*
X204173412Y-114300276D02*
X204092600Y-114327213D01*
X204092600Y-114327213D02*
X204038725Y-114327213D01*
X204038725Y-114327213D02*
X203957913Y-114300276D01*
X203957913Y-114300276D02*
X203742413Y-114084776D01*
X203742413Y-114084776D02*
X204308099Y-113519091D01*
X204308099Y-113519091D02*
X204496661Y-113707653D01*
X204496661Y-113707653D02*
X204523598Y-113788465D01*
X204523598Y-113788465D02*
X204523598Y-113842340D01*
X204523598Y-113842340D02*
X204496661Y-113923152D01*
X204496661Y-113923152D02*
X204442786Y-113977027D01*
X204442786Y-113977027D02*
X204361974Y-114003964D01*
X204361974Y-114003964D02*
X204308099Y-114003964D01*
X204308099Y-114003964D02*
X204227287Y-113977027D01*
X204227287Y-113977027D02*
X204038725Y-113788465D01*
X204873784Y-114084776D02*
X204415848Y-114542712D01*
X204415848Y-114542712D02*
X204388911Y-114623524D01*
X204388911Y-114623524D02*
X204388911Y-114677399D01*
X204388911Y-114677399D02*
X204415848Y-114758211D01*
X204415848Y-114758211D02*
X204523598Y-114865961D01*
X204523598Y-114865961D02*
X204604410Y-114892898D01*
X204604410Y-114892898D02*
X204658285Y-114892898D01*
X204658285Y-114892898D02*
X204739097Y-114865961D01*
X204739097Y-114865961D02*
X205197033Y-114408025D01*
X204900722Y-115189210D02*
X204954596Y-115296959D01*
X204954596Y-115296959D02*
X205089283Y-115431646D01*
X205089283Y-115431646D02*
X205170096Y-115458584D01*
X205170096Y-115458584D02*
X205223970Y-115458584D01*
X205223970Y-115458584D02*
X205304783Y-115431646D01*
X205304783Y-115431646D02*
X205358657Y-115377771D01*
X205358657Y-115377771D02*
X205385595Y-115296959D01*
X205385595Y-115296959D02*
X205385595Y-115243084D01*
X205385595Y-115243084D02*
X205358657Y-115162272D01*
X205358657Y-115162272D02*
X205277845Y-115027585D01*
X205277845Y-115027585D02*
X205250908Y-114946773D01*
X205250908Y-114946773D02*
X205250908Y-114892898D01*
X205250908Y-114892898D02*
X205277845Y-114812086D01*
X205277845Y-114812086D02*
X205331720Y-114758211D01*
X205331720Y-114758211D02*
X205412532Y-114731274D01*
X205412532Y-114731274D02*
X205466407Y-114731274D01*
X205466407Y-114731274D02*
X205547219Y-114758211D01*
X205547219Y-114758211D02*
X205681906Y-114892898D01*
X205681906Y-114892898D02*
X205735781Y-115000648D01*
X182489131Y-120047998D02*
X182462194Y-119967185D01*
X182462194Y-119967185D02*
X182381381Y-119886373D01*
X182381381Y-119886373D02*
X182273632Y-119832498D01*
X182273632Y-119832498D02*
X182165882Y-119832498D01*
X182165882Y-119832498D02*
X182085070Y-119859436D01*
X182085070Y-119859436D02*
X181950383Y-119940248D01*
X181950383Y-119940248D02*
X181869571Y-120021060D01*
X181869571Y-120021060D02*
X181788758Y-120155747D01*
X181788758Y-120155747D02*
X181761821Y-120236560D01*
X181761821Y-120236560D02*
X181761821Y-120344309D01*
X181761821Y-120344309D02*
X181815696Y-120452059D01*
X181815696Y-120452059D02*
X181869571Y-120505934D01*
X181869571Y-120505934D02*
X181977320Y-120559808D01*
X181977320Y-120559808D02*
X182031195Y-120559808D01*
X182031195Y-120559808D02*
X182219757Y-120371247D01*
X182219757Y-120371247D02*
X182112007Y-120263497D01*
X182219757Y-120856120D02*
X182785442Y-120290434D01*
X182785442Y-120290434D02*
X183000942Y-120505934D01*
X183000942Y-120505934D02*
X183027879Y-120586746D01*
X183027879Y-120586746D02*
X183027879Y-120640621D01*
X183027879Y-120640621D02*
X183000942Y-120721433D01*
X183000942Y-120721433D02*
X182920129Y-120802245D01*
X182920129Y-120802245D02*
X182839317Y-120829182D01*
X182839317Y-120829182D02*
X182785442Y-120829182D01*
X182785442Y-120829182D02*
X182704630Y-120802245D01*
X182704630Y-120802245D02*
X182489131Y-120586746D01*
X183270316Y-120883057D02*
X183324190Y-120883057D01*
X183324190Y-120883057D02*
X183405003Y-120909995D01*
X183405003Y-120909995D02*
X183539690Y-121044682D01*
X183539690Y-121044682D02*
X183566627Y-121125494D01*
X183566627Y-121125494D02*
X183566627Y-121179369D01*
X183566627Y-121179369D02*
X183539690Y-121260181D01*
X183539690Y-121260181D02*
X183485815Y-121314056D01*
X183485815Y-121314056D02*
X183378065Y-121367930D01*
X183378065Y-121367930D02*
X182731568Y-121367930D01*
X182731568Y-121367930D02*
X183081754Y-121718117D01*
X184132313Y-121637305D02*
X184024563Y-121529555D01*
X184024563Y-121529555D02*
X183943751Y-121502618D01*
X183943751Y-121502618D02*
X183889876Y-121502618D01*
X183889876Y-121502618D02*
X183755189Y-121529555D01*
X183755189Y-121529555D02*
X183620502Y-121610367D01*
X183620502Y-121610367D02*
X183405003Y-121825866D01*
X183405003Y-121825866D02*
X183378065Y-121906679D01*
X183378065Y-121906679D02*
X183378065Y-121960553D01*
X183378065Y-121960553D02*
X183405003Y-122041366D01*
X183405003Y-122041366D02*
X183512752Y-122149115D01*
X183512752Y-122149115D02*
X183593565Y-122176053D01*
X183593565Y-122176053D02*
X183647439Y-122176053D01*
X183647439Y-122176053D02*
X183728252Y-122149115D01*
X183728252Y-122149115D02*
X183862939Y-122014428D01*
X183862939Y-122014428D02*
X183889876Y-121933616D01*
X183889876Y-121933616D02*
X183889876Y-121879741D01*
X183889876Y-121879741D02*
X183862939Y-121798929D01*
X183862939Y-121798929D02*
X183755189Y-121691179D01*
X183755189Y-121691179D02*
X183674377Y-121664242D01*
X183674377Y-121664242D02*
X183620502Y-121664242D01*
X183620502Y-121664242D02*
X183539690Y-121691179D01*
X159629131Y-93893998D02*
X159602194Y-93813185D01*
X159602194Y-93813185D02*
X159521381Y-93732373D01*
X159521381Y-93732373D02*
X159413632Y-93678498D01*
X159413632Y-93678498D02*
X159305882Y-93678498D01*
X159305882Y-93678498D02*
X159225070Y-93705436D01*
X159225070Y-93705436D02*
X159090383Y-93786248D01*
X159090383Y-93786248D02*
X159009571Y-93867060D01*
X159009571Y-93867060D02*
X158928758Y-94001747D01*
X158928758Y-94001747D02*
X158901821Y-94082560D01*
X158901821Y-94082560D02*
X158901821Y-94190309D01*
X158901821Y-94190309D02*
X158955696Y-94298059D01*
X158955696Y-94298059D02*
X159009571Y-94351934D01*
X159009571Y-94351934D02*
X159117320Y-94405808D01*
X159117320Y-94405808D02*
X159171195Y-94405808D01*
X159171195Y-94405808D02*
X159359757Y-94217247D01*
X159359757Y-94217247D02*
X159252007Y-94109497D01*
X159359757Y-94702120D02*
X159925442Y-94136434D01*
X159925442Y-94136434D02*
X160140942Y-94351934D01*
X160140942Y-94351934D02*
X160167879Y-94432746D01*
X160167879Y-94432746D02*
X160167879Y-94486621D01*
X160167879Y-94486621D02*
X160140942Y-94567433D01*
X160140942Y-94567433D02*
X160060129Y-94648245D01*
X160060129Y-94648245D02*
X159979317Y-94675182D01*
X159979317Y-94675182D02*
X159925442Y-94675182D01*
X159925442Y-94675182D02*
X159844630Y-94648245D01*
X159844630Y-94648245D02*
X159629131Y-94432746D01*
X160221754Y-95564117D02*
X159898505Y-95240868D01*
X160060129Y-95402492D02*
X160625815Y-94836807D01*
X160625815Y-94836807D02*
X160491128Y-94863744D01*
X160491128Y-94863744D02*
X160383378Y-94863744D01*
X160383378Y-94863744D02*
X160302566Y-94836807D01*
X161083751Y-95671866D02*
X160706627Y-96048990D01*
X161164563Y-95321680D02*
X160625815Y-95591054D01*
X160625815Y-95591054D02*
X160976001Y-95941240D01*
X167249131Y-120047998D02*
X167222194Y-119967185D01*
X167222194Y-119967185D02*
X167141381Y-119886373D01*
X167141381Y-119886373D02*
X167033632Y-119832498D01*
X167033632Y-119832498D02*
X166925882Y-119832498D01*
X166925882Y-119832498D02*
X166845070Y-119859436D01*
X166845070Y-119859436D02*
X166710383Y-119940248D01*
X166710383Y-119940248D02*
X166629571Y-120021060D01*
X166629571Y-120021060D02*
X166548758Y-120155747D01*
X166548758Y-120155747D02*
X166521821Y-120236560D01*
X166521821Y-120236560D02*
X166521821Y-120344309D01*
X166521821Y-120344309D02*
X166575696Y-120452059D01*
X166575696Y-120452059D02*
X166629571Y-120505934D01*
X166629571Y-120505934D02*
X166737320Y-120559808D01*
X166737320Y-120559808D02*
X166791195Y-120559808D01*
X166791195Y-120559808D02*
X166979757Y-120371247D01*
X166979757Y-120371247D02*
X166872007Y-120263497D01*
X166979757Y-120856120D02*
X167545442Y-120290434D01*
X167545442Y-120290434D02*
X167760942Y-120505934D01*
X167760942Y-120505934D02*
X167787879Y-120586746D01*
X167787879Y-120586746D02*
X167787879Y-120640621D01*
X167787879Y-120640621D02*
X167760942Y-120721433D01*
X167760942Y-120721433D02*
X167680129Y-120802245D01*
X167680129Y-120802245D02*
X167599317Y-120829182D01*
X167599317Y-120829182D02*
X167545442Y-120829182D01*
X167545442Y-120829182D02*
X167464630Y-120802245D01*
X167464630Y-120802245D02*
X167249131Y-120586746D01*
X167841754Y-121718117D02*
X167518505Y-121394868D01*
X167680129Y-121556492D02*
X168245815Y-120990807D01*
X168245815Y-120990807D02*
X168111128Y-121017744D01*
X168111128Y-121017744D02*
X168003378Y-121017744D01*
X168003378Y-121017744D02*
X167922566Y-120990807D01*
X168111128Y-121987491D02*
X168218878Y-122095240D01*
X168218878Y-122095240D02*
X168299690Y-122122178D01*
X168299690Y-122122178D02*
X168353565Y-122122178D01*
X168353565Y-122122178D02*
X168488252Y-122095240D01*
X168488252Y-122095240D02*
X168622939Y-122014428D01*
X168622939Y-122014428D02*
X168838438Y-121798929D01*
X168838438Y-121798929D02*
X168865375Y-121718117D01*
X168865375Y-121718117D02*
X168865375Y-121664242D01*
X168865375Y-121664242D02*
X168838438Y-121583430D01*
X168838438Y-121583430D02*
X168730688Y-121475680D01*
X168730688Y-121475680D02*
X168649876Y-121448743D01*
X168649876Y-121448743D02*
X168596001Y-121448743D01*
X168596001Y-121448743D02*
X168515189Y-121475680D01*
X168515189Y-121475680D02*
X168380502Y-121610367D01*
X168380502Y-121610367D02*
X168353565Y-121691179D01*
X168353565Y-121691179D02*
X168353565Y-121745054D01*
X168353565Y-121745054D02*
X168380502Y-121825866D01*
X168380502Y-121825866D02*
X168488252Y-121933616D01*
X168488252Y-121933616D02*
X168569064Y-121960553D01*
X168569064Y-121960553D02*
X168622939Y-121960553D01*
X168622939Y-121960553D02*
X168703751Y-121933616D01*
X172319131Y-120047998D02*
X172292194Y-119967185D01*
X172292194Y-119967185D02*
X172211381Y-119886373D01*
X172211381Y-119886373D02*
X172103632Y-119832498D01*
X172103632Y-119832498D02*
X171995882Y-119832498D01*
X171995882Y-119832498D02*
X171915070Y-119859436D01*
X171915070Y-119859436D02*
X171780383Y-119940248D01*
X171780383Y-119940248D02*
X171699571Y-120021060D01*
X171699571Y-120021060D02*
X171618758Y-120155747D01*
X171618758Y-120155747D02*
X171591821Y-120236560D01*
X171591821Y-120236560D02*
X171591821Y-120344309D01*
X171591821Y-120344309D02*
X171645696Y-120452059D01*
X171645696Y-120452059D02*
X171699571Y-120505934D01*
X171699571Y-120505934D02*
X171807320Y-120559808D01*
X171807320Y-120559808D02*
X171861195Y-120559808D01*
X171861195Y-120559808D02*
X172049757Y-120371247D01*
X172049757Y-120371247D02*
X171942007Y-120263497D01*
X172049757Y-120856120D02*
X172615442Y-120290434D01*
X172615442Y-120290434D02*
X172830942Y-120505934D01*
X172830942Y-120505934D02*
X172857879Y-120586746D01*
X172857879Y-120586746D02*
X172857879Y-120640621D01*
X172857879Y-120640621D02*
X172830942Y-120721433D01*
X172830942Y-120721433D02*
X172750129Y-120802245D01*
X172750129Y-120802245D02*
X172669317Y-120829182D01*
X172669317Y-120829182D02*
X172615442Y-120829182D01*
X172615442Y-120829182D02*
X172534630Y-120802245D01*
X172534630Y-120802245D02*
X172319131Y-120586746D01*
X173100316Y-120883057D02*
X173154190Y-120883057D01*
X173154190Y-120883057D02*
X173235003Y-120909995D01*
X173235003Y-120909995D02*
X173369690Y-121044682D01*
X173369690Y-121044682D02*
X173396627Y-121125494D01*
X173396627Y-121125494D02*
X173396627Y-121179369D01*
X173396627Y-121179369D02*
X173369690Y-121260181D01*
X173369690Y-121260181D02*
X173315815Y-121314056D01*
X173315815Y-121314056D02*
X173208065Y-121367930D01*
X173208065Y-121367930D02*
X172561568Y-121367930D01*
X172561568Y-121367930D02*
X172911754Y-121718117D01*
X173450502Y-122256865D02*
X173127253Y-121933616D01*
X173288878Y-122095240D02*
X173854563Y-121529555D01*
X173854563Y-121529555D02*
X173719876Y-121556492D01*
X173719876Y-121556492D02*
X173612126Y-121556492D01*
X173612126Y-121556492D02*
X173531314Y-121529555D01*
X190378505Y-94463372D02*
X190351568Y-94382560D01*
X190351568Y-94382560D02*
X190270756Y-94301748D01*
X190270756Y-94301748D02*
X190163006Y-94247873D01*
X190163006Y-94247873D02*
X190055257Y-94247873D01*
X190055257Y-94247873D02*
X189974444Y-94274810D01*
X189974444Y-94274810D02*
X189839757Y-94355623D01*
X189839757Y-94355623D02*
X189758945Y-94436435D01*
X189758945Y-94436435D02*
X189678133Y-94571122D01*
X189678133Y-94571122D02*
X189651196Y-94651934D01*
X189651196Y-94651934D02*
X189651196Y-94759684D01*
X189651196Y-94759684D02*
X189705070Y-94867433D01*
X189705070Y-94867433D02*
X189758945Y-94921308D01*
X189758945Y-94921308D02*
X189866695Y-94975183D01*
X189866695Y-94975183D02*
X189920570Y-94975183D01*
X189920570Y-94975183D02*
X190109131Y-94786621D01*
X190109131Y-94786621D02*
X190001382Y-94678871D01*
X190109131Y-95271494D02*
X190674817Y-94705809D01*
X190674817Y-94705809D02*
X190890316Y-94921308D01*
X190890316Y-94921308D02*
X190917253Y-95002120D01*
X190917253Y-95002120D02*
X190917253Y-95055995D01*
X190917253Y-95055995D02*
X190890316Y-95136807D01*
X190890316Y-95136807D02*
X190809504Y-95217619D01*
X190809504Y-95217619D02*
X190728692Y-95244557D01*
X190728692Y-95244557D02*
X190674817Y-95244557D01*
X190674817Y-95244557D02*
X190594005Y-95217619D01*
X190594005Y-95217619D02*
X190378505Y-95002120D01*
X191509876Y-95540868D02*
X191240502Y-95271494D01*
X191240502Y-95271494D02*
X190944191Y-95513931D01*
X190944191Y-95513931D02*
X190998066Y-95513931D01*
X190998066Y-95513931D02*
X191078878Y-95540868D01*
X191078878Y-95540868D02*
X191213565Y-95675555D01*
X191213565Y-95675555D02*
X191240502Y-95756367D01*
X191240502Y-95756367D02*
X191240502Y-95810242D01*
X191240502Y-95810242D02*
X191213565Y-95891054D01*
X191213565Y-95891054D02*
X191078878Y-96025741D01*
X191078878Y-96025741D02*
X190998066Y-96052679D01*
X190998066Y-96052679D02*
X190944191Y-96052679D01*
X190944191Y-96052679D02*
X190863379Y-96025741D01*
X190863379Y-96025741D02*
X190728692Y-95891054D01*
X190728692Y-95891054D02*
X190701754Y-95810242D01*
X190701754Y-95810242D02*
X190701754Y-95756367D01*
X202539757Y-119870749D02*
X202162633Y-120624996D01*
X202162633Y-120624996D02*
X202916881Y-120247873D01*
X202539757Y-120948245D02*
X202593632Y-121055995D01*
X202593632Y-121055995D02*
X202728319Y-121190682D01*
X202728319Y-121190682D02*
X202809131Y-121217619D01*
X202809131Y-121217619D02*
X202863006Y-121217619D01*
X202863006Y-121217619D02*
X202943818Y-121190682D01*
X202943818Y-121190682D02*
X202997693Y-121136807D01*
X202997693Y-121136807D02*
X203024630Y-121055995D01*
X203024630Y-121055995D02*
X203024630Y-121002120D01*
X203024630Y-121002120D02*
X202997693Y-120921308D01*
X202997693Y-120921308D02*
X202916881Y-120786621D01*
X202916881Y-120786621D02*
X202889943Y-120705808D01*
X202889943Y-120705808D02*
X202889943Y-120651934D01*
X202889943Y-120651934D02*
X202916881Y-120571121D01*
X202916881Y-120571121D02*
X202970755Y-120517247D01*
X202970755Y-120517247D02*
X203051568Y-120490309D01*
X203051568Y-120490309D02*
X203105442Y-120490309D01*
X203105442Y-120490309D02*
X203186255Y-120517247D01*
X203186255Y-120517247D02*
X203320942Y-120651934D01*
X203320942Y-120651934D02*
X203374816Y-120759683D01*
X203455629Y-121379244D02*
X203186255Y-121648618D01*
X203563378Y-120894370D02*
X203455629Y-121379244D01*
X203455629Y-121379244D02*
X203940502Y-121271494D01*
X203563378Y-121971866D02*
X203617253Y-122079616D01*
X203617253Y-122079616D02*
X203751940Y-122214303D01*
X203751940Y-122214303D02*
X203832752Y-122241240D01*
X203832752Y-122241240D02*
X203886627Y-122241240D01*
X203886627Y-122241240D02*
X203967439Y-122214303D01*
X203967439Y-122214303D02*
X204021314Y-122160428D01*
X204021314Y-122160428D02*
X204048251Y-122079616D01*
X204048251Y-122079616D02*
X204048251Y-122025741D01*
X204048251Y-122025741D02*
X204021314Y-121944929D01*
X204021314Y-121944929D02*
X203940502Y-121810242D01*
X203940502Y-121810242D02*
X203913564Y-121729430D01*
X203913564Y-121729430D02*
X203913564Y-121675555D01*
X203913564Y-121675555D02*
X203940502Y-121594743D01*
X203940502Y-121594743D02*
X203994377Y-121540868D01*
X203994377Y-121540868D02*
X204075189Y-121513930D01*
X204075189Y-121513930D02*
X204129064Y-121513930D01*
X204129064Y-121513930D02*
X204209876Y-121540868D01*
X204209876Y-121540868D02*
X204344563Y-121675555D01*
X204344563Y-121675555D02*
X204398438Y-121783304D01*
X197998505Y-94363372D02*
X197971568Y-94282560D01*
X197971568Y-94282560D02*
X197890756Y-94201748D01*
X197890756Y-94201748D02*
X197783006Y-94147873D01*
X197783006Y-94147873D02*
X197675257Y-94147873D01*
X197675257Y-94147873D02*
X197594444Y-94174810D01*
X197594444Y-94174810D02*
X197459757Y-94255623D01*
X197459757Y-94255623D02*
X197378945Y-94336435D01*
X197378945Y-94336435D02*
X197298133Y-94471122D01*
X197298133Y-94471122D02*
X197271196Y-94551934D01*
X197271196Y-94551934D02*
X197271196Y-94659684D01*
X197271196Y-94659684D02*
X197325070Y-94767433D01*
X197325070Y-94767433D02*
X197378945Y-94821308D01*
X197378945Y-94821308D02*
X197486695Y-94875183D01*
X197486695Y-94875183D02*
X197540570Y-94875183D01*
X197540570Y-94875183D02*
X197729131Y-94686621D01*
X197729131Y-94686621D02*
X197621382Y-94578871D01*
X197729131Y-95171494D02*
X198294817Y-94605809D01*
X198294817Y-94605809D02*
X198510316Y-94821308D01*
X198510316Y-94821308D02*
X198537253Y-94902120D01*
X198537253Y-94902120D02*
X198537253Y-94955995D01*
X198537253Y-94955995D02*
X198510316Y-95036807D01*
X198510316Y-95036807D02*
X198429504Y-95117619D01*
X198429504Y-95117619D02*
X198348692Y-95144557D01*
X198348692Y-95144557D02*
X198294817Y-95144557D01*
X198294817Y-95144557D02*
X198214005Y-95117619D01*
X198214005Y-95117619D02*
X197998505Y-94902120D01*
X198779690Y-95198432D02*
X198833565Y-95198432D01*
X198833565Y-95198432D02*
X198914377Y-95225369D01*
X198914377Y-95225369D02*
X199049064Y-95360056D01*
X199049064Y-95360056D02*
X199076001Y-95440868D01*
X199076001Y-95440868D02*
X199076001Y-95494743D01*
X199076001Y-95494743D02*
X199049064Y-95575555D01*
X199049064Y-95575555D02*
X198995189Y-95629430D01*
X198995189Y-95629430D02*
X198887440Y-95683305D01*
X198887440Y-95683305D02*
X198240942Y-95683305D01*
X198240942Y-95683305D02*
X198591128Y-96033491D01*
X155734200Y-104059524D02*
X155772295Y-103945238D01*
X155772295Y-103945238D02*
X155772295Y-103754762D01*
X155772295Y-103754762D02*
X155734200Y-103678571D01*
X155734200Y-103678571D02*
X155696104Y-103640476D01*
X155696104Y-103640476D02*
X155619914Y-103602381D01*
X155619914Y-103602381D02*
X155543723Y-103602381D01*
X155543723Y-103602381D02*
X155467533Y-103640476D01*
X155467533Y-103640476D02*
X155429438Y-103678571D01*
X155429438Y-103678571D02*
X155391342Y-103754762D01*
X155391342Y-103754762D02*
X155353247Y-103907143D01*
X155353247Y-103907143D02*
X155315152Y-103983333D01*
X155315152Y-103983333D02*
X155277057Y-104021428D01*
X155277057Y-104021428D02*
X155200866Y-104059524D01*
X155200866Y-104059524D02*
X155124676Y-104059524D01*
X155124676Y-104059524D02*
X155048485Y-104021428D01*
X155048485Y-104021428D02*
X155010390Y-103983333D01*
X155010390Y-103983333D02*
X154972295Y-103907143D01*
X154972295Y-103907143D02*
X154972295Y-103716666D01*
X154972295Y-103716666D02*
X155010390Y-103602381D01*
X154972295Y-103335714D02*
X155772295Y-103145238D01*
X155772295Y-103145238D02*
X155200866Y-102992857D01*
X155200866Y-102992857D02*
X155772295Y-102840476D01*
X155772295Y-102840476D02*
X154972295Y-102650000D01*
X155696104Y-101888094D02*
X155734200Y-101926190D01*
X155734200Y-101926190D02*
X155772295Y-102040475D01*
X155772295Y-102040475D02*
X155772295Y-102116666D01*
X155772295Y-102116666D02*
X155734200Y-102230952D01*
X155734200Y-102230952D02*
X155658009Y-102307142D01*
X155658009Y-102307142D02*
X155581819Y-102345237D01*
X155581819Y-102345237D02*
X155429438Y-102383333D01*
X155429438Y-102383333D02*
X155315152Y-102383333D01*
X155315152Y-102383333D02*
X155162771Y-102345237D01*
X155162771Y-102345237D02*
X155086580Y-102307142D01*
X155086580Y-102307142D02*
X155010390Y-102230952D01*
X155010390Y-102230952D02*
X154972295Y-102116666D01*
X154972295Y-102116666D02*
X154972295Y-102040475D01*
X154972295Y-102040475D02*
X155010390Y-101926190D01*
X155010390Y-101926190D02*
X155048485Y-101888094D01*
X155772295Y-101164285D02*
X155772295Y-101545237D01*
X155772295Y-101545237D02*
X154972295Y-101545237D01*
X155772295Y-100897618D02*
X154972295Y-100897618D01*
X155772295Y-100440475D02*
X155315152Y-100783333D01*
X154972295Y-100440475D02*
X155429438Y-100897618D01*
X172329131Y-93939998D02*
X172302194Y-93859185D01*
X172302194Y-93859185D02*
X172221381Y-93778373D01*
X172221381Y-93778373D02*
X172113632Y-93724498D01*
X172113632Y-93724498D02*
X172005882Y-93724498D01*
X172005882Y-93724498D02*
X171925070Y-93751436D01*
X171925070Y-93751436D02*
X171790383Y-93832248D01*
X171790383Y-93832248D02*
X171709571Y-93913060D01*
X171709571Y-93913060D02*
X171628758Y-94047747D01*
X171628758Y-94047747D02*
X171601821Y-94128560D01*
X171601821Y-94128560D02*
X171601821Y-94236309D01*
X171601821Y-94236309D02*
X171655696Y-94344059D01*
X171655696Y-94344059D02*
X171709571Y-94397934D01*
X171709571Y-94397934D02*
X171817320Y-94451808D01*
X171817320Y-94451808D02*
X171871195Y-94451808D01*
X171871195Y-94451808D02*
X172059757Y-94263247D01*
X172059757Y-94263247D02*
X171952007Y-94155497D01*
X172059757Y-94748120D02*
X172625442Y-94182434D01*
X172625442Y-94182434D02*
X172840942Y-94397934D01*
X172840942Y-94397934D02*
X172867879Y-94478746D01*
X172867879Y-94478746D02*
X172867879Y-94532621D01*
X172867879Y-94532621D02*
X172840942Y-94613433D01*
X172840942Y-94613433D02*
X172760129Y-94694245D01*
X172760129Y-94694245D02*
X172679317Y-94721182D01*
X172679317Y-94721182D02*
X172625442Y-94721182D01*
X172625442Y-94721182D02*
X172544630Y-94694245D01*
X172544630Y-94694245D02*
X172329131Y-94478746D01*
X172921754Y-95610117D02*
X172598505Y-95286868D01*
X172760129Y-95448492D02*
X173325815Y-94882807D01*
X173325815Y-94882807D02*
X173191128Y-94909744D01*
X173191128Y-94909744D02*
X173083378Y-94909744D01*
X173083378Y-94909744D02*
X173002566Y-94882807D01*
X173837626Y-95394618D02*
X173891500Y-95448492D01*
X173891500Y-95448492D02*
X173918438Y-95529305D01*
X173918438Y-95529305D02*
X173918438Y-95583179D01*
X173918438Y-95583179D02*
X173891500Y-95663992D01*
X173891500Y-95663992D02*
X173810688Y-95798679D01*
X173810688Y-95798679D02*
X173676001Y-95933366D01*
X173676001Y-95933366D02*
X173541314Y-96014178D01*
X173541314Y-96014178D02*
X173460502Y-96041115D01*
X173460502Y-96041115D02*
X173406627Y-96041115D01*
X173406627Y-96041115D02*
X173325815Y-96014178D01*
X173325815Y-96014178D02*
X173271940Y-95960303D01*
X173271940Y-95960303D02*
X173245003Y-95879491D01*
X173245003Y-95879491D02*
X173245003Y-95825616D01*
X173245003Y-95825616D02*
X173271940Y-95744804D01*
X173271940Y-95744804D02*
X173352752Y-95610117D01*
X173352752Y-95610117D02*
X173487439Y-95475430D01*
X173487439Y-95475430D02*
X173622126Y-95394618D01*
X173622126Y-95394618D02*
X173702939Y-95367680D01*
X173702939Y-95367680D02*
X173756813Y-95367680D01*
X173756813Y-95367680D02*
X173837626Y-95394618D01*
X200511568Y-120036435D02*
X200484631Y-119955623D01*
X200484631Y-119955623D02*
X200403819Y-119874811D01*
X200403819Y-119874811D02*
X200296069Y-119820936D01*
X200296069Y-119820936D02*
X200188319Y-119820936D01*
X200188319Y-119820936D02*
X200107507Y-119847873D01*
X200107507Y-119847873D02*
X199972820Y-119928685D01*
X199972820Y-119928685D02*
X199892008Y-120009498D01*
X199892008Y-120009498D02*
X199811196Y-120144185D01*
X199811196Y-120144185D02*
X199784258Y-120224997D01*
X199784258Y-120224997D02*
X199784258Y-120332746D01*
X199784258Y-120332746D02*
X199838133Y-120440496D01*
X199838133Y-120440496D02*
X199892008Y-120494371D01*
X199892008Y-120494371D02*
X199999758Y-120548246D01*
X199999758Y-120548246D02*
X200053632Y-120548246D01*
X200053632Y-120548246D02*
X200242194Y-120359684D01*
X200242194Y-120359684D02*
X200134445Y-120251934D01*
X200242194Y-120844557D02*
X200807880Y-120278872D01*
X200807880Y-120278872D02*
X200565443Y-121167806D01*
X200565443Y-121167806D02*
X201131128Y-120602120D01*
X200834817Y-121437180D02*
X201400502Y-120871494D01*
X201400502Y-120871494D02*
X201535189Y-121006181D01*
X201535189Y-121006181D02*
X201589064Y-121113931D01*
X201589064Y-121113931D02*
X201589064Y-121221680D01*
X201589064Y-121221680D02*
X201562127Y-121302493D01*
X201562127Y-121302493D02*
X201481314Y-121437180D01*
X201481314Y-121437180D02*
X201400502Y-121517992D01*
X201400502Y-121517992D02*
X201265815Y-121598804D01*
X201265815Y-121598804D02*
X201185003Y-121625741D01*
X201185003Y-121625741D02*
X201077253Y-121625741D01*
X201077253Y-121625741D02*
X200969504Y-121571867D01*
X200969504Y-121571867D02*
X200834817Y-121437180D01*
X195458505Y-94463372D02*
X195431568Y-94382560D01*
X195431568Y-94382560D02*
X195350756Y-94301748D01*
X195350756Y-94301748D02*
X195243006Y-94247873D01*
X195243006Y-94247873D02*
X195135257Y-94247873D01*
X195135257Y-94247873D02*
X195054444Y-94274810D01*
X195054444Y-94274810D02*
X194919757Y-94355623D01*
X194919757Y-94355623D02*
X194838945Y-94436435D01*
X194838945Y-94436435D02*
X194758133Y-94571122D01*
X194758133Y-94571122D02*
X194731196Y-94651934D01*
X194731196Y-94651934D02*
X194731196Y-94759684D01*
X194731196Y-94759684D02*
X194785070Y-94867433D01*
X194785070Y-94867433D02*
X194838945Y-94921308D01*
X194838945Y-94921308D02*
X194946695Y-94975183D01*
X194946695Y-94975183D02*
X195000570Y-94975183D01*
X195000570Y-94975183D02*
X195189131Y-94786621D01*
X195189131Y-94786621D02*
X195081382Y-94678871D01*
X195189131Y-95271494D02*
X195754817Y-94705809D01*
X195754817Y-94705809D02*
X195970316Y-94921308D01*
X195970316Y-94921308D02*
X195997253Y-95002120D01*
X195997253Y-95002120D02*
X195997253Y-95055995D01*
X195997253Y-95055995D02*
X195970316Y-95136807D01*
X195970316Y-95136807D02*
X195889504Y-95217619D01*
X195889504Y-95217619D02*
X195808692Y-95244557D01*
X195808692Y-95244557D02*
X195754817Y-95244557D01*
X195754817Y-95244557D02*
X195674005Y-95217619D01*
X195674005Y-95217619D02*
X195458505Y-95002120D01*
X196266627Y-95217619D02*
X196616814Y-95567806D01*
X196616814Y-95567806D02*
X196212753Y-95594743D01*
X196212753Y-95594743D02*
X196293565Y-95675555D01*
X196293565Y-95675555D02*
X196320502Y-95756367D01*
X196320502Y-95756367D02*
X196320502Y-95810242D01*
X196320502Y-95810242D02*
X196293565Y-95891054D01*
X196293565Y-95891054D02*
X196158878Y-96025741D01*
X196158878Y-96025741D02*
X196078066Y-96052679D01*
X196078066Y-96052679D02*
X196024191Y-96052679D01*
X196024191Y-96052679D02*
X195943379Y-96025741D01*
X195943379Y-96025741D02*
X195781754Y-95864117D01*
X195781754Y-95864117D02*
X195754817Y-95783305D01*
X195754817Y-95783305D02*
X195754817Y-95729430D01*
X180218505Y-94463372D02*
X180191568Y-94382560D01*
X180191568Y-94382560D02*
X180110756Y-94301748D01*
X180110756Y-94301748D02*
X180003006Y-94247873D01*
X180003006Y-94247873D02*
X179895257Y-94247873D01*
X179895257Y-94247873D02*
X179814444Y-94274810D01*
X179814444Y-94274810D02*
X179679757Y-94355623D01*
X179679757Y-94355623D02*
X179598945Y-94436435D01*
X179598945Y-94436435D02*
X179518133Y-94571122D01*
X179518133Y-94571122D02*
X179491196Y-94651934D01*
X179491196Y-94651934D02*
X179491196Y-94759684D01*
X179491196Y-94759684D02*
X179545070Y-94867433D01*
X179545070Y-94867433D02*
X179598945Y-94921308D01*
X179598945Y-94921308D02*
X179706695Y-94975183D01*
X179706695Y-94975183D02*
X179760570Y-94975183D01*
X179760570Y-94975183D02*
X179949131Y-94786621D01*
X179949131Y-94786621D02*
X179841382Y-94678871D01*
X179949131Y-95271494D02*
X180514817Y-94705809D01*
X180514817Y-94705809D02*
X180730316Y-94921308D01*
X180730316Y-94921308D02*
X180757253Y-95002120D01*
X180757253Y-95002120D02*
X180757253Y-95055995D01*
X180757253Y-95055995D02*
X180730316Y-95136807D01*
X180730316Y-95136807D02*
X180649504Y-95217619D01*
X180649504Y-95217619D02*
X180568692Y-95244557D01*
X180568692Y-95244557D02*
X180514817Y-95244557D01*
X180514817Y-95244557D02*
X180434005Y-95217619D01*
X180434005Y-95217619D02*
X180218505Y-95002120D01*
X180918878Y-95594743D02*
X180891940Y-95513931D01*
X180891940Y-95513931D02*
X180891940Y-95460056D01*
X180891940Y-95460056D02*
X180918878Y-95379244D01*
X180918878Y-95379244D02*
X180945815Y-95352306D01*
X180945815Y-95352306D02*
X181026627Y-95325369D01*
X181026627Y-95325369D02*
X181080502Y-95325369D01*
X181080502Y-95325369D02*
X181161314Y-95352306D01*
X181161314Y-95352306D02*
X181269064Y-95460056D01*
X181269064Y-95460056D02*
X181296001Y-95540868D01*
X181296001Y-95540868D02*
X181296001Y-95594743D01*
X181296001Y-95594743D02*
X181269064Y-95675555D01*
X181269064Y-95675555D02*
X181242127Y-95702493D01*
X181242127Y-95702493D02*
X181161314Y-95729430D01*
X181161314Y-95729430D02*
X181107440Y-95729430D01*
X181107440Y-95729430D02*
X181026627Y-95702493D01*
X181026627Y-95702493D02*
X180918878Y-95594743D01*
X180918878Y-95594743D02*
X180838066Y-95567806D01*
X180838066Y-95567806D02*
X180784191Y-95567806D01*
X180784191Y-95567806D02*
X180703379Y-95594743D01*
X180703379Y-95594743D02*
X180595629Y-95702493D01*
X180595629Y-95702493D02*
X180568692Y-95783305D01*
X180568692Y-95783305D02*
X180568692Y-95837180D01*
X180568692Y-95837180D02*
X180595629Y-95917992D01*
X180595629Y-95917992D02*
X180703379Y-96025741D01*
X180703379Y-96025741D02*
X180784191Y-96052679D01*
X180784191Y-96052679D02*
X180838066Y-96052679D01*
X180838066Y-96052679D02*
X180918878Y-96025741D01*
X180918878Y-96025741D02*
X181026627Y-95917992D01*
X181026627Y-95917992D02*
X181053565Y-95837180D01*
X181053565Y-95837180D02*
X181053565Y-95783305D01*
X181053565Y-95783305D02*
X181026627Y-95702493D01*
X185019131Y-120047998D02*
X184992194Y-119967185D01*
X184992194Y-119967185D02*
X184911381Y-119886373D01*
X184911381Y-119886373D02*
X184803632Y-119832498D01*
X184803632Y-119832498D02*
X184695882Y-119832498D01*
X184695882Y-119832498D02*
X184615070Y-119859436D01*
X184615070Y-119859436D02*
X184480383Y-119940248D01*
X184480383Y-119940248D02*
X184399571Y-120021060D01*
X184399571Y-120021060D02*
X184318758Y-120155747D01*
X184318758Y-120155747D02*
X184291821Y-120236560D01*
X184291821Y-120236560D02*
X184291821Y-120344309D01*
X184291821Y-120344309D02*
X184345696Y-120452059D01*
X184345696Y-120452059D02*
X184399571Y-120505934D01*
X184399571Y-120505934D02*
X184507320Y-120559808D01*
X184507320Y-120559808D02*
X184561195Y-120559808D01*
X184561195Y-120559808D02*
X184749757Y-120371247D01*
X184749757Y-120371247D02*
X184642007Y-120263497D01*
X184749757Y-120856120D02*
X185315442Y-120290434D01*
X185315442Y-120290434D02*
X185530942Y-120505934D01*
X185530942Y-120505934D02*
X185557879Y-120586746D01*
X185557879Y-120586746D02*
X185557879Y-120640621D01*
X185557879Y-120640621D02*
X185530942Y-120721433D01*
X185530942Y-120721433D02*
X185450129Y-120802245D01*
X185450129Y-120802245D02*
X185369317Y-120829182D01*
X185369317Y-120829182D02*
X185315442Y-120829182D01*
X185315442Y-120829182D02*
X185234630Y-120802245D01*
X185234630Y-120802245D02*
X185019131Y-120586746D01*
X185800316Y-120883057D02*
X185854190Y-120883057D01*
X185854190Y-120883057D02*
X185935003Y-120909995D01*
X185935003Y-120909995D02*
X186069690Y-121044682D01*
X186069690Y-121044682D02*
X186096627Y-121125494D01*
X186096627Y-121125494D02*
X186096627Y-121179369D01*
X186096627Y-121179369D02*
X186069690Y-121260181D01*
X186069690Y-121260181D02*
X186015815Y-121314056D01*
X186015815Y-121314056D02*
X185908065Y-121367930D01*
X185908065Y-121367930D02*
X185261568Y-121367930D01*
X185261568Y-121367930D02*
X185611754Y-121718117D01*
X186366001Y-121340993D02*
X186743125Y-121718117D01*
X186743125Y-121718117D02*
X185935003Y-122041366D01*
X150374819Y-82883333D02*
X151089104Y-82883333D01*
X151089104Y-82883333D02*
X151231961Y-82930952D01*
X151231961Y-82930952D02*
X151327200Y-83026190D01*
X151327200Y-83026190D02*
X151374819Y-83169047D01*
X151374819Y-83169047D02*
X151374819Y-83264285D01*
X150374819Y-81930952D02*
X150374819Y-82407142D01*
X150374819Y-82407142D02*
X150851009Y-82454761D01*
X150851009Y-82454761D02*
X150803390Y-82407142D01*
X150803390Y-82407142D02*
X150755771Y-82311904D01*
X150755771Y-82311904D02*
X150755771Y-82073809D01*
X150755771Y-82073809D02*
X150803390Y-81978571D01*
X150803390Y-81978571D02*
X150851009Y-81930952D01*
X150851009Y-81930952D02*
X150946247Y-81883333D01*
X150946247Y-81883333D02*
X151184342Y-81883333D01*
X151184342Y-81883333D02*
X151279580Y-81930952D01*
X151279580Y-81930952D02*
X151327200Y-81978571D01*
X151327200Y-81978571D02*
X151374819Y-82073809D01*
X151374819Y-82073809D02*
X151374819Y-82311904D01*
X151374819Y-82311904D02*
X151327200Y-82407142D01*
X151327200Y-82407142D02*
X151279580Y-82454761D01*
X175429104Y-85804285D02*
X175429104Y-85328095D01*
X175714819Y-85899523D02*
X174714819Y-85566190D01*
X174714819Y-85566190D02*
X175714819Y-85232857D01*
X175714819Y-84375714D02*
X175714819Y-84947142D01*
X175714819Y-84661428D02*
X174714819Y-84661428D01*
X174714819Y-84661428D02*
X174857676Y-84756666D01*
X174857676Y-84756666D02*
X174952914Y-84851904D01*
X174952914Y-84851904D02*
X175000533Y-84947142D01*
X175609580Y-90356666D02*
X175657200Y-90404285D01*
X175657200Y-90404285D02*
X175704819Y-90547142D01*
X175704819Y-90547142D02*
X175704819Y-90642380D01*
X175704819Y-90642380D02*
X175657200Y-90785237D01*
X175657200Y-90785237D02*
X175561961Y-90880475D01*
X175561961Y-90880475D02*
X175466723Y-90928094D01*
X175466723Y-90928094D02*
X175276247Y-90975713D01*
X175276247Y-90975713D02*
X175133390Y-90975713D01*
X175133390Y-90975713D02*
X174942914Y-90928094D01*
X174942914Y-90928094D02*
X174847676Y-90880475D01*
X174847676Y-90880475D02*
X174752438Y-90785237D01*
X174752438Y-90785237D02*
X174704819Y-90642380D01*
X174704819Y-90642380D02*
X174704819Y-90547142D01*
X174704819Y-90547142D02*
X174752438Y-90404285D01*
X174752438Y-90404285D02*
X174800057Y-90356666D01*
X174704819Y-90023332D02*
X174704819Y-89404285D01*
X174704819Y-89404285D02*
X175085771Y-89737618D01*
X175085771Y-89737618D02*
X175085771Y-89594761D01*
X175085771Y-89594761D02*
X175133390Y-89499523D01*
X175133390Y-89499523D02*
X175181009Y-89451904D01*
X175181009Y-89451904D02*
X175276247Y-89404285D01*
X175276247Y-89404285D02*
X175514342Y-89404285D01*
X175514342Y-89404285D02*
X175609580Y-89451904D01*
X175609580Y-89451904D02*
X175657200Y-89499523D01*
X175657200Y-89499523D02*
X175704819Y-89594761D01*
X175704819Y-89594761D02*
X175704819Y-89880475D01*
X175704819Y-89880475D02*
X175657200Y-89975713D01*
X175657200Y-89975713D02*
X175609580Y-90023332D01*
D11*
%TO.C,C2*%
X176380000Y-83090000D02*
X176380000Y-87130000D01*
X177005000Y-83090000D02*
X176380000Y-83090000D01*
X177005000Y-87130000D02*
X176380000Y-87130000D01*
X179220000Y-83090000D02*
X178595000Y-83090000D01*
X179220000Y-83090000D02*
X179220000Y-87130000D01*
X179220000Y-87130000D02*
X178595000Y-87130000D01*
%TO.C,SW4*%
X144530000Y-115800000D02*
X144530000Y-117300000D01*
X145780000Y-119800000D02*
X150280000Y-119800000D01*
X150280000Y-113300000D02*
X145780000Y-113300000D01*
X151530000Y-117300000D02*
X151530000Y-115800000D01*
%TO.C,R1*%
X139710000Y-97140000D02*
X139710000Y-97620000D01*
X139710000Y-100980000D02*
X139710000Y-100500000D01*
X149850000Y-97140000D02*
X139710000Y-97140000D01*
X149850000Y-97620000D02*
X149850000Y-97140000D01*
X149850000Y-100500000D02*
X149850000Y-100980000D01*
X149850000Y-100980000D02*
X139710000Y-100980000D01*
%TO.C,J2*%
X158690000Y-74990000D02*
X158690000Y-73660000D01*
X160020000Y-74990000D02*
X158690000Y-74990000D01*
X161290000Y-72330000D02*
X168970000Y-72330000D01*
X161290000Y-74990000D02*
X161290000Y-72330000D01*
X161290000Y-74990000D02*
X168970000Y-74990000D01*
X168970000Y-74990000D02*
X168970000Y-72330000D01*
%TO.C,J4*%
X181550000Y-125155000D02*
X181550000Y-123825000D01*
X182880000Y-125155000D02*
X181550000Y-125155000D01*
X184150000Y-122495000D02*
X191830000Y-122495000D01*
X184150000Y-125155000D02*
X184150000Y-122495000D01*
X184150000Y-125155000D02*
X191830000Y-125155000D01*
X191830000Y-125155000D02*
X191830000Y-122495000D01*
%TO.C,C1*%
X179650000Y-78680000D02*
X186110000Y-78680000D01*
X179650000Y-78720000D02*
X186110000Y-78720000D01*
X179650000Y-78760000D02*
X186110000Y-78760000D01*
X179652000Y-78640000D02*
X186108000Y-78640000D01*
X179653000Y-78600000D02*
X186107000Y-78600000D01*
X179656000Y-78560000D02*
X186104000Y-78560000D01*
X179658000Y-78520000D02*
X181840000Y-78520000D01*
X179662000Y-78480000D02*
X181840000Y-78480000D01*
X179665000Y-78440000D02*
X181840000Y-78440000D01*
X179669000Y-78400000D02*
X181840000Y-78400000D01*
X179674000Y-78360000D02*
X181840000Y-78360000D01*
X179679000Y-78320000D02*
X181840000Y-78320000D01*
X179685000Y-78280000D02*
X181840000Y-78280000D01*
X179691000Y-78240000D02*
X181840000Y-78240000D01*
X179698000Y-78200000D02*
X181840000Y-78200000D01*
X179705000Y-78160000D02*
X181840000Y-78160000D01*
X179713000Y-78120000D02*
X181840000Y-78120000D01*
X179721000Y-78080000D02*
X181840000Y-78080000D01*
X179730000Y-78039000D02*
X181840000Y-78039000D01*
X179739000Y-77999000D02*
X181840000Y-77999000D01*
X179749000Y-77959000D02*
X181840000Y-77959000D01*
X179759000Y-77919000D02*
X181840000Y-77919000D01*
X179770000Y-77879000D02*
X181840000Y-77879000D01*
X179782000Y-77839000D02*
X181840000Y-77839000D01*
X179794000Y-77799000D02*
X181840000Y-77799000D01*
X179806000Y-77759000D02*
X181840000Y-77759000D01*
X179819000Y-77719000D02*
X181840000Y-77719000D01*
X179833000Y-77679000D02*
X181840000Y-77679000D01*
X179847000Y-77639000D02*
X181840000Y-77639000D01*
X179862000Y-77599000D02*
X181840000Y-77599000D01*
X179878000Y-77559000D02*
X181840000Y-77559000D01*
X179894000Y-77519000D02*
X181840000Y-77519000D01*
X179910000Y-77479000D02*
X181840000Y-77479000D01*
X179928000Y-77439000D02*
X181840000Y-77439000D01*
X179946000Y-77399000D02*
X181840000Y-77399000D01*
X179964000Y-77359000D02*
X181840000Y-77359000D01*
X179984000Y-77319000D02*
X181840000Y-77319000D01*
X180004000Y-77279000D02*
X181840000Y-77279000D01*
X180024000Y-77239000D02*
X181840000Y-77239000D01*
X180046000Y-77199000D02*
X181840000Y-77199000D01*
X180068000Y-77159000D02*
X181840000Y-77159000D01*
X180090000Y-77119000D02*
X181840000Y-77119000D01*
X180114000Y-77079000D02*
X181840000Y-77079000D01*
X180138000Y-77039000D02*
X181840000Y-77039000D01*
X180164000Y-76999000D02*
X181840000Y-76999000D01*
X180190000Y-76959000D02*
X181840000Y-76959000D01*
X180216000Y-76919000D02*
X181840000Y-76919000D01*
X180244000Y-76879000D02*
X181840000Y-76879000D01*
X180273000Y-76839000D02*
X181840000Y-76839000D01*
X180302000Y-76799000D02*
X181840000Y-76799000D01*
X180332000Y-76759000D02*
X181840000Y-76759000D01*
X180364000Y-76719000D02*
X181840000Y-76719000D01*
X180396000Y-76679000D02*
X181840000Y-76679000D01*
X180430000Y-76639000D02*
X181840000Y-76639000D01*
X180464000Y-76599000D02*
X181840000Y-76599000D01*
X180500000Y-76559000D02*
X181840000Y-76559000D01*
X180537000Y-76519000D02*
X181840000Y-76519000D01*
X180575000Y-76479000D02*
X181840000Y-76479000D01*
X180615000Y-76439000D02*
X185145000Y-76439000D01*
X180656000Y-76399000D02*
X185104000Y-76399000D01*
X180698000Y-76359000D02*
X185062000Y-76359000D01*
X180726000Y-81945241D02*
X181356000Y-81945241D01*
X180743000Y-76319000D02*
X185017000Y-76319000D01*
X180788000Y-76279000D02*
X184972000Y-76279000D01*
X180836000Y-76239000D02*
X184924000Y-76239000D01*
X180885000Y-76199000D02*
X184875000Y-76199000D01*
X180936000Y-76159000D02*
X184824000Y-76159000D01*
X180990000Y-76119000D02*
X184770000Y-76119000D01*
X181041000Y-82260241D02*
X181041000Y-81630241D01*
X181046000Y-76079000D02*
X184714000Y-76079000D01*
X181104000Y-76039000D02*
X184656000Y-76039000D01*
X181166000Y-75999000D02*
X184594000Y-75999000D01*
X181230000Y-75959000D02*
X184530000Y-75959000D01*
X181299000Y-75919000D02*
X184461000Y-75919000D01*
X181371000Y-75879000D02*
X184389000Y-75879000D01*
X181448000Y-75839000D02*
X184312000Y-75839000D01*
X181530000Y-75799000D02*
X184230000Y-75799000D01*
X181618000Y-75759000D02*
X184142000Y-75759000D01*
X181715000Y-75719000D02*
X184045000Y-75719000D01*
X181821000Y-75679000D02*
X183939000Y-75679000D01*
X181940000Y-75639000D02*
X183820000Y-75639000D01*
X182078000Y-75599000D02*
X183682000Y-75599000D01*
X182247000Y-75559000D02*
X183513000Y-75559000D01*
X182478000Y-75519000D02*
X183282000Y-75519000D01*
X183920000Y-76479000D02*
X185185000Y-76479000D01*
X183920000Y-76519000D02*
X185223000Y-76519000D01*
X183920000Y-76559000D02*
X185260000Y-76559000D01*
X183920000Y-76599000D02*
X185296000Y-76599000D01*
X183920000Y-76639000D02*
X185330000Y-76639000D01*
X183920000Y-76679000D02*
X185364000Y-76679000D01*
X183920000Y-76719000D02*
X185396000Y-76719000D01*
X183920000Y-76759000D02*
X185428000Y-76759000D01*
X183920000Y-76799000D02*
X185458000Y-76799000D01*
X183920000Y-76839000D02*
X185487000Y-76839000D01*
X183920000Y-76879000D02*
X185516000Y-76879000D01*
X183920000Y-76919000D02*
X185544000Y-76919000D01*
X183920000Y-76959000D02*
X185570000Y-76959000D01*
X183920000Y-76999000D02*
X185596000Y-76999000D01*
X183920000Y-77039000D02*
X185622000Y-77039000D01*
X183920000Y-77079000D02*
X185646000Y-77079000D01*
X183920000Y-77119000D02*
X185670000Y-77119000D01*
X183920000Y-77159000D02*
X185692000Y-77159000D01*
X183920000Y-77199000D02*
X185714000Y-77199000D01*
X183920000Y-77239000D02*
X185736000Y-77239000D01*
X183920000Y-77279000D02*
X185756000Y-77279000D01*
X183920000Y-77319000D02*
X185776000Y-77319000D01*
X183920000Y-77359000D02*
X185796000Y-77359000D01*
X183920000Y-77399000D02*
X185814000Y-77399000D01*
X183920000Y-77439000D02*
X185832000Y-77439000D01*
X183920000Y-77479000D02*
X185850000Y-77479000D01*
X183920000Y-77519000D02*
X185866000Y-77519000D01*
X183920000Y-77559000D02*
X185882000Y-77559000D01*
X183920000Y-77599000D02*
X185898000Y-77599000D01*
X183920000Y-77639000D02*
X185913000Y-77639000D01*
X183920000Y-77679000D02*
X185927000Y-77679000D01*
X183920000Y-77719000D02*
X185941000Y-77719000D01*
X183920000Y-77759000D02*
X185954000Y-77759000D01*
X183920000Y-77799000D02*
X185966000Y-77799000D01*
X183920000Y-77839000D02*
X185978000Y-77839000D01*
X183920000Y-77879000D02*
X185990000Y-77879000D01*
X183920000Y-77919000D02*
X186001000Y-77919000D01*
X183920000Y-77959000D02*
X186011000Y-77959000D01*
X183920000Y-77999000D02*
X186021000Y-77999000D01*
X183920000Y-78039000D02*
X186030000Y-78039000D01*
X183920000Y-78080000D02*
X186039000Y-78080000D01*
X183920000Y-78120000D02*
X186047000Y-78120000D01*
X183920000Y-78160000D02*
X186055000Y-78160000D01*
X183920000Y-78200000D02*
X186062000Y-78200000D01*
X183920000Y-78240000D02*
X186069000Y-78240000D01*
X183920000Y-78280000D02*
X186075000Y-78280000D01*
X183920000Y-78320000D02*
X186081000Y-78320000D01*
X183920000Y-78360000D02*
X186086000Y-78360000D01*
X183920000Y-78400000D02*
X186091000Y-78400000D01*
X183920000Y-78440000D02*
X186095000Y-78440000D01*
X183920000Y-78480000D02*
X186098000Y-78480000D01*
X183920000Y-78520000D02*
X186102000Y-78520000D01*
X186150000Y-78760000D02*
G75*
G02*
X179610000Y-78760000I-3270000J0D01*
G01*
X179610000Y-78760000D02*
G75*
G02*
X186150000Y-78760000I3270000J0D01*
G01*
%TO.C,SW3*%
X96270000Y-115800000D02*
X96270000Y-117300000D01*
X97520000Y-119800000D02*
X102020000Y-119800000D01*
X102020000Y-113300000D02*
X97520000Y-113300000D01*
X103270000Y-117300000D02*
X103270000Y-115800000D01*
%TO.C,U3*%
X142180000Y-87520000D02*
X142180000Y-89170000D01*
X142180000Y-91170000D02*
X142180000Y-92820000D01*
X142180000Y-92820000D02*
X149920000Y-92820000D01*
X149920000Y-87520000D02*
X142180000Y-87520000D01*
X149920000Y-92820000D02*
X149920000Y-87520000D01*
X142180000Y-89170000D02*
G75*
G02*
X142180000Y-91170000I0J-1000000D01*
G01*
%TO.C,SW5*%
X96270000Y-90400000D02*
X96270000Y-91900000D01*
X97520000Y-94400000D02*
X102020000Y-94400000D01*
X102020000Y-87900000D02*
X97520000Y-87900000D01*
X103270000Y-91900000D02*
X103270000Y-90400000D01*
%TO.C,J1*%
X195520000Y-80705000D02*
X195520000Y-79375000D01*
X196850000Y-80705000D02*
X195520000Y-80705000D01*
X198120000Y-78045000D02*
X200720000Y-78045000D01*
X198120000Y-80705000D02*
X198120000Y-78045000D01*
X198120000Y-80705000D02*
X200720000Y-80705000D01*
X200720000Y-80705000D02*
X200720000Y-78045000D01*
%TO.C,SW2*%
X96270000Y-103100000D02*
X96270000Y-104600000D01*
X97520000Y-107100000D02*
X102020000Y-107100000D01*
X102020000Y-100600000D02*
X97520000Y-100600000D01*
X103270000Y-104600000D02*
X103270000Y-103100000D01*
%TO.C,J3*%
X115150000Y-74870000D02*
X116480000Y-74870000D01*
X115150000Y-76200000D02*
X115150000Y-74870000D01*
X117750000Y-74870000D02*
X133050000Y-74870000D01*
X117750000Y-77530000D02*
X117750000Y-74870000D01*
X117750000Y-77530000D02*
X133050000Y-77530000D01*
X133050000Y-77530000D02*
X133050000Y-74870000D01*
%TO.C,U2*%
X181509000Y-83780000D02*
X181509000Y-94020000D01*
X184640000Y-83780000D02*
X184640000Y-94020000D01*
X186150000Y-83780000D02*
X181509000Y-83780000D01*
X186150000Y-83780000D02*
X186150000Y-94020000D01*
X186150000Y-87050000D02*
X184640000Y-87050000D01*
X186150000Y-90751000D02*
X184640000Y-90751000D01*
X186150000Y-94020000D02*
X181509000Y-94020000D01*
%TO.C,U1*%
X156110000Y-104250000D02*
X156110000Y-97450000D01*
X156110000Y-106450000D02*
X156110000Y-106850000D01*
X156110000Y-109050000D02*
X156110000Y-109450000D01*
X156110000Y-118450000D02*
X156110000Y-111650000D01*
X158910000Y-97450000D02*
X158510000Y-97450000D01*
X158910000Y-118450000D02*
X158510000Y-118450000D01*
X161510000Y-97450000D02*
X161110000Y-97450000D01*
X161510000Y-118450000D02*
X161110000Y-118450000D01*
X164010000Y-97450000D02*
X163610000Y-97450000D01*
X164010000Y-118450000D02*
X163610000Y-118450000D01*
X166510000Y-97450000D02*
X166110000Y-97450000D01*
X166510000Y-118450000D02*
X166110000Y-118450000D01*
X169110000Y-97450000D02*
X168710000Y-97450000D01*
X169110000Y-118450000D02*
X168710000Y-118450000D01*
X171610000Y-97450000D02*
X171210000Y-97450000D01*
X171610000Y-118450000D02*
X171210000Y-118450000D01*
X174210000Y-97450000D02*
X173810000Y-97450000D01*
X174210000Y-118450000D02*
X173810000Y-118450000D01*
X176710000Y-97450000D02*
X176310000Y-97450000D01*
X176710000Y-118450000D02*
X176310000Y-118450000D01*
X179310000Y-97450000D02*
X178910000Y-97450000D01*
X179310000Y-118450000D02*
X178910000Y-118450000D01*
X181810000Y-97450000D02*
X181410000Y-97450000D01*
X181810000Y-118450000D02*
X181410000Y-118450000D01*
X184310000Y-97450000D02*
X183910000Y-97450000D01*
X184310000Y-118450000D02*
X183910000Y-118450000D01*
X186910000Y-97450000D02*
X186510000Y-97450000D01*
X186910000Y-118450000D02*
X186510000Y-118450000D01*
X189410000Y-97450000D02*
X189010000Y-97450000D01*
X189410000Y-118450000D02*
X189010000Y-118450000D01*
X192010000Y-97450000D02*
X191610000Y-97450000D01*
X192010000Y-118450000D02*
X191610000Y-118450000D01*
X194510000Y-97450000D02*
X194110000Y-97450000D01*
X194510000Y-118450000D02*
X194110000Y-118450000D01*
X197010000Y-97450000D02*
X196610000Y-97450000D01*
X197010000Y-118450000D02*
X196610000Y-118450000D01*
X199610000Y-97450000D02*
X199210000Y-97450000D01*
X199610000Y-118450000D02*
X199210000Y-118450000D01*
X202110000Y-97450000D02*
X201710000Y-97450000D01*
X202110000Y-118450000D02*
X201710000Y-118450000D01*
X204443000Y-97450000D02*
X204443000Y-100457000D01*
X204443000Y-100457000D02*
X207110000Y-100457000D01*
X204710000Y-97450000D02*
X204310000Y-97450000D01*
X204710000Y-118450000D02*
X204310000Y-118450000D01*
X207110000Y-97450000D02*
X206810000Y-97450000D01*
X207110000Y-97450000D02*
X207110000Y-118450000D01*
X207110000Y-118450000D02*
X206810000Y-118450000D01*
%TO.C,J5*%
X144720000Y-81220000D02*
X144720000Y-83880000D01*
X147320000Y-81220000D02*
X144720000Y-81220000D01*
X147320000Y-81220000D02*
X147320000Y-83880000D01*
X147320000Y-83880000D02*
X144720000Y-83880000D01*
X148590000Y-81220000D02*
X149920000Y-81220000D01*
X149920000Y-81220000D02*
X149920000Y-82550000D01*
%TO.C,A1*%
X153540000Y-77340000D02*
X153540000Y-92840000D01*
X153540000Y-92840000D02*
X174120000Y-92840000D01*
X171450000Y-77340000D02*
X153540000Y-77340000D01*
X171450000Y-80010000D02*
X153540000Y-80010000D01*
X171450000Y-80010000D02*
X171450000Y-77340000D01*
X174120000Y-77340000D02*
X172720000Y-77340000D01*
X174120000Y-78740000D02*
X174120000Y-77340000D01*
X174120000Y-80010000D02*
X171450000Y-80010000D01*
X174120000Y-90170000D02*
X153540000Y-90170000D01*
X174120000Y-92840000D02*
X174120000Y-80010000D01*
%TO.C,C3*%
X176380000Y-88170000D02*
X177005000Y-88170000D01*
X176380000Y-92210000D02*
X176380000Y-88170000D01*
X176380000Y-92210000D02*
X177005000Y-92210000D01*
X178595000Y-88170000D02*
X179220000Y-88170000D01*
X178595000Y-92210000D02*
X179220000Y-92210000D01*
X179220000Y-92210000D02*
X179220000Y-88170000D01*
%TD*%
M02*
